<?xml version="1.0" encoding="utf-8"?>
<!-- Generator: Adobe Illustrator 16.0.0, SVG Export Plug-In . SVG Version: 6.00 Build 0)  -->
<!DOCTYPE svg PUBLIC "-//W3C//DTD SVG 1.1//EN" "http://www.w3.org/Graphics/SVG/1.1/DTD/svg11.dtd">
<svg version="1.1" id="Layer_1" xmlns="http://www.w3.org/2000/svg" xmlns:xlink="http://www.w3.org/1999/xlink" x="0px" y="0px"
	 width="598px" height="222.2px" viewBox="0 0 598 222.2" enable-background="new 0 0 598 222.2" xml:space="preserve">
<path fill="#080808" d="M202.219,126.499c-2.05-1.367-11.452-1.476-13.285,0.023c-6.203,5.072-12.548,10.02-18.36,15.471
	c-2.014,1.889-2.695,5.084-3.855,7.732c-0.524,1.196-0.42,2.706-1.134,3.747c-5.337,7.779-2.629,16.493-3.208,24.784
	c-0.226,3.232,7.778,8.598,11.329,8.333c3.646-0.271,7.298-0.827,10.935-0.738c7.122,0.173,12.583,3.291,16.577,8.944
	c1.449,2.051,3.739,3.554,5.334,5.53c0.896,1.108,1.158,2.676,1.705,4.035c-1.38,0.19-2.834,0.738-4.127,0.501
	c-3.702-0.678-7.33-2.352-11.003-2.397c-6.477-0.082-13.078,0.205-19.417,1.362c-6.051,1.104-11.795,1.177-17.934,0.607
	c-11.402-1.06-22.959-1.625-34.381-1.076c-5.637,0.271-11.053,3.665-16.678,5.318c-8.549,2.511-16.854,5.185-23.109,11.838
	c-1.17,1.243-4.077,1.029-6.183,1.488c0.871-1.648,1.753-3.29,2.609-4.944c1.207-2.33,2.319-4.706,3.611-6.993
	c1.645-2.911,3.429-5.752,5.267-8.815c-4.498-0.097-8.812-0.522-12.88,3.139c-3.362,3.024-7.797,5.193-12.102,7.011
	c-3.946,1.665-2.799-1.901-3.275-4.218c-3.22,1.37-6.229,2.849-9.392,3.914c-1.588,0.534-3.458,0.319-5.201,0.443
	c0.645-1.313,1.072-2.781,1.971-3.914c3.257-4.102,7.487-6.826,12.66-8.655c3.029-1.071,5.919-3.172,8.151-5.441
	c4.16-4.228,8.699-6.918,15.038-7.134c17.179-0.581,28.863-8.486,33.934-24.207c2.194-6.798,4.096-13.744,5.25-20.753
	c0.783-4.749-6.847-13.288-11.806-14.32c-1.154-0.24-2.483-0.049-3.663,0.216c-2.559,0.575-5.039,1.496-7.614,1.968
	c-4.306,0.789-8.702,2.022-12.988,1.807c-4.986-0.25-9.917,1.944-15.242-1.198c-2.925-1.727-8.204,0.247-12.426,0.313
	c-3.679,0.056-7.364-0.223-11.045-0.358c-0.942-0.035-1.912,0.028-2.82-0.161c-2.681-0.557-5.408-1.03-7.981-1.895
	c-2.295-0.771-4.232-2.065-6.921-0.729c-4.444,2.208-9.066,1.754-13.467-0.311c-1.2-0.563-2.563-1.471-3.068-2.548
	c-0.699-1.49-1.468-3.716-0.784-4.883c2.229-3.809-2.16-10.708,5.989-11.702l0.088,0.074c-2.764,2.252-5.467,4.489-2.644,8.377
	c0.203,0.28-0.471,1.264-0.905,1.798c-2.525,3.11-1.158,5.402,1.832,7.103c4.157,2.364,8.714,2.831,13.005,0.666
	c3.032-1.53,5.216-0.398,7.568,0.901c5.673,3.133,12.251,1.521,18.22,3.123c0.577,0.156,1.387-0.705,2.093-0.709
	c4.988-0.034,10.143-0.676,14.908,0.315c3.197,0.665,5.881,1.805,8.85-0.094c4.12,0.187,8.244,0.567,12.359,0.49
	c2.629-0.05,5.396-0.417,7.812-1.328c1.618-0.61,4.088-3.225,3.855-3.578c-2.424-3.689-5.319-7.1-8.083-10.59
	c2.046-0.484,4.094-0.97,6.141-1.454c-0.717,0.629-2.092,1.775-2.059,1.813c2.997,3.406,3.937,8.649,9.529,9.763
	c5.067,1.966,9.272,4.861,11.151,10.267c0.361-0.219,0.721-0.437,1.082-0.656c-0.444-2.124-0.889-4.248-1.426-6.813
	c0.746,0.747,1.084,1.083,1.421,1.421c0.234,0.963,0.468,1.926,0.703,2.888c0.04,1.43,0.079,2.86,0.119,4.291
	c0.281,2.82,1.333,5.81,0.695,8.431c-1.855,7.62-3.906,15.26-6.756,22.588c-5.652,14.535-17.524,21.205-33.467,22.05
	c-5.362,0.284-9.824,1.901-13.783,5.701c-3.25,3.119-7.554,5.279-11.486,7.73c-1.554,0.97-3.362,1.574-5.056,2.345
	c-2.024,1.604-4.049,3.205-6.074,4.809c2.063-0.156,3.629-1.176,5.362-1.622c4.703-1.211,9.477-2.179,14.222-3.243
	c-0.684,0.532-1.369,1.064-2.053,1.598c-0.63,0.54-1.259,1.079-1.888,1.619c0.355,0.454,0.711,0.906,1.065,1.359
	c3.291-2.126,6.5-4.378,9.901-6.336c2.256-1.298,4.687-2.524,7.214-3.155c4.067-1.016,8.281-1.513,12.434-2.229
	c-0.758,1.208-1.515,2.415-2.204,3.512c2.28,0.893,4.072,1.595,5.865,2.296c-0.21,0.229-0.421,0.458-0.63,0.686
	c-3.401-2.428-6.457-1.981-8.523,1.457c-1.768,2.94-2.987,6.174-4.449,9.278c-1.223,1.327-2.446,2.653-3.67,3.98
	c0.328,0.291,0.656,0.581,0.983,0.872c1.327-1.122,2.747-2.162,3.963-3.383c3.523-3.541,7.321-6.443,12.832-6.642
	c1.569-0.057,3.121-0.834,4.661-1.335c8.697-2.833,17.388-5.683,26.082-8.527l-0.04-0.038c4.159,0.493,8.306,1.15,12.48,1.431
	c3.419,0.23,6.872,0.013,10.309-0.007c-0.001,0-0.034,0.03-0.034,0.03c2.102,0.157,4.243,0.135,6.29,0.534
	c1.345,0.263,2.531,1.577,3.833,1.643c2.953,0.151,6.064,0.298,8.876-0.403c9.018-2.242,18.039-3.379,27.299-1.723
	c2.099,0.343,4.198,0.686,7.153,1.169c-2.128-2.355-3.567-3.949-5.007-5.544c-0.421-0.48-0.841-0.961-1.263-1.442
	c-1.236-0.708-2.427-1.905-3.718-2.012c-2.069-0.17-4.203,0.383-6.309,0.63c1.759-0.686,3.518-1.371,5.44-2.12
	c-2.27-3.129-5.338-2.764-8.472-2.169c-1.621-0.336-3.374-1.228-4.84-0.915c-7.508,1.599-13.961,0.865-18.201-6.088
	c-0.245-0.402-0.691-0.691-1.044-1.033c-0.9-2.53,1.632-7.393-4.725-6.217c-3.041,0.659-6.081,1.318-9.121,1.978l0.067,0.06
	c2.261-0.994,4.524-1.987,6.786-2.98c1.875-0.057,3.879,0.264,5.594-0.264c2.174-0.671,1.789-12.746-0.307-14.026l0.049,0.045
	c1.568-2.402,3.367-4.702,4.634-7.238c1.11-2.221,1.256-4.54-2.419-4.898c-0.557-0.761-1.115-1.521-1.671-2.282
	c1.687,1.4,3.35,1.996,5.147,0.099c3.637-3.839,7.318-7.639,10.982-11.456c0.23-0.025,0.448-0.09,0.653-0.191
	c3.352-2.678,6.948-5.131,9.986-8.096c2.845-2.776,5.225-6.017,7.508-9.242c0.456-0.643-0.454-2.147-0.733-3.255
	c-1.089,1.088-2.279,2.102-3.25,3.276c-5.417,6.563-11.965,11.396-20.992,12.541c0.516-1.116,0.87-2.337,1.578-3.33
	c2.802-3.916,6.001-7.604,8.5-11.679c2.046-3.339,0.907-5.096-3.265-6.584c-0.696-0.303-1.392-0.605-2.088-0.908
	c3.58-2.686,7.504-0.414,11.25-0.699c-0.017,0.296-0.036,0.591-0.053,0.888c-4.048-0.022-4.048-0.022-3.099,2.238
	c-0.344,2.333-0.81,4.657-0.987,7.001c-0.101,1.334,0.272,2.701,0.433,4.053c1.251-0.496,2.826-0.697,3.691-1.546
	c2.171-2.124,3.822-4.746,6.101-6.738c0.909-0.795,3.352-1.068,4.314-0.465c0.944,0.593,1.285,2.628,1.175,3.979
	c-0.11,1.34-0.98,2.69-1.755,3.9c-1.056,1.651-2.336,3.175-3.52,4.753c0.098,0.457,0.196,0.912,0.294,1.368
	c4.549-3.432,8.544-1.672,12.563,0.039c0.43,0.184,0.997,0.082,1.501,0.112c-0.015,0.229,0.029,0.446,0.136,0.652
	C204.608,126.413,203.413,126.457,202.219,126.499z M175.79,124.174c1.69-0.678,3.379-1.357,5.588-2.244
	c-3.377-1.468-3.377-1.468-5.502,2.309c-0.106,0.043-0.227,0.068-0.31,0.135c-0.033,0.027,0.016,0.146,0.028,0.223
	C175.659,124.455,175.725,124.314,175.79,124.174z"/>
<path fill="#080808" d="M17.231,107.634c-0.61-3.546-1.067-6.924,1.903-10.047c0.803-0.845-0.868-3.676-0.086-4.675
	c4.032-5.148,8.229-10.244,12.964-14.803c1.418-1.365,4.764-0.941,7.263-1.343c-0.208-9.459,2.83-11.988,13.329-11.049
	c0.585,0.052,1.807-0.971,1.84-1.54c0.195-3.358,2.259-5.103,5.27-6.34c0.844-0.347,1.903-1.202,2.042-1.959
	c1.121-6.113,3.488-8.81,9.629-9.485c4.153-0.456,4.876-2.709,4.297-5.809c-0.743-3.981,1.14-6.658,4.68-8.031
	c3.94-1.529,5.155-5.039,7.573-7.697c1.856-2.042,4.299-3.604,6.462-5.4c0.874-0.726,2.237-1.386,2.457-2.279
	c1.175-4.781,4.394-7.498,9.057-9.223c1.973-0.729,3.989-1.856,5.416-3.303c3.83-3.882,11.252-4.703,16.388-1.64
	c0.997,0.595,2.386,0.643,3.611,0.853c6.001,1.027,11.827,2.753,17.987,3.274c2.695,0.229,5.356,2.517,7.703,4.263
	c2.409,1.79,5.097,3.624,3.947,7.425c-0.233,0.768,1.303,2.349,2.393,3.02c0.698,0.431,2.324,0.223,3.104-0.287
	c5.082-3.33,9.743-5.02,15.972-1.35c2.374,1.399,6.468,3.05,10.732,0.698c5.947-3.282,14.707-1.183,19.042,3.675
	c1.463,1.637,2.162,3.882,3.238,5.901c10.083-3.29,16.59,0.768,17.57,8.727c0.605,4.916,3.17,8.661,4.325,13.076
	c0.996,3.806,3.478,7.258,5.251,10.89c0.417,0.854,0.439,1.916,0.973,2.676c0.711,1.012,1.801,1.777,2.626,2.729
	c1.296,1.492,2.358,3.188,3.787,4.548c2,1.903,3.995,4.645,6.43,5.153c7.552,1.578,10.688,5.991,8.399,13.008
	c-0.334,1.023,0.34,2.356,0.604,3.535c0.404,1.808,0.666,3.674,1.35,5.387c0.556,1.39,1.576,2.634,2.508,3.866
	c2.292,3.032,2.046,8.077-1.385,9.896c-4.954,2.628-10.39,4.459-15.67,6.516c-5.297,2.062-10.661,1.336-16.032,0.141
	c-0.77-0.172-1.814,0.076-2.525,0.466c-3.627,1.987-7.385,2.954-11.605,2.102c-0.653-0.133-1.512,0.639-2.275,0.992
	c-0.493,0.201-0.985,0.403-1.478,0.606c-0.724,0.009-1.447,0.017-2.17,0.026c1.279-1.123,2.555-2.247,3.832-3.37
	c4.124,0.871,7.968,1.22,11.947-1.252c1.815-1.128,4.308-2.46,7.524-0.835c2.494,1.26,6.3,1.015,9.282,0.401
	c4.443-0.915,8.581-3.142,13.021-4.091c6.633-1.42,8.886-6.064,5.095-11.367c-1.16-1.624-3.205-3.836-2.751-5.114
	c1.189-3.355-0.795-4.173-3.287-4.851c3.322-6.589,3.18-8.504-0.669-11.818c-0.49-0.363-0.924-0.871-1.479-1.063
	c-2.838-0.979-7.796,2.286-8.177-3.7c-0.019-0.288-1.153-0.419-1.605-0.797c-0.618-0.516-1.607-1.265-1.531-1.798
	c0.589-4.107-2.652-4.16-5.395-4.785c0.152-1.4,0.938-3.142,0.339-4.139c-1.727-2.874-3.383-5.377-3.592-9.066
	c-0.152-2.681-3.277-5.253-5.224-7.772c-0.446-0.577-1.5-0.732-2.272-1.082c-1.997-0.857-2.15-1.837-1.313-3.917
	c0.789-1.963,0.901-4.738,0.027-6.625c-2.66-5.74-7.138-7.029-13.308-4.579c-1.633,0.647-3.703,1.909-4.368-1.078
	c-1.977-8.879-11.119-12.744-19.53-8.227c-1.737,0.934-10.36,0.242-12.001-0.96c-3.991-2.926-7.591-3.446-11.356,0.129
	c-3.688,3.503-6.526,2.507-9.437,0.064c-1.221-1.025-2.062-3.249-1.877-4.8c0.316-2.638-1.366-4.737-4.244-4.525
	c-0.834,0.062-2.213-0.613-2.543-1.295c-1.586-3.286-4.412-4.626-7.684-3.474c-3.195,1.125-5.279,0.875-7.559-1.521
	c-0.78-0.82-3.09-1.224-4.15-0.738c-2.479,1.132-3.745,0.132-5.493-1.284c-3.697-2.995-10.053-2.016-13.336,1.341
	c-1.485,1.519-3.657,2.713-5.757,3.362c-4.255,1.315-7.485,4.608-7.37,8.765c0.058,2.118-0.722,2.695-2.772,2.77
	c-3.79,0.141-5.553,1.989-7.246,5.458c-1.293,2.65-2.9,6.396-7.157,7.382c-3.188,0.738-5.313,2.591-4.106,6.329
	c0.353,1.095-0.385,2.475-0.479,3.733c-0.127,1.68-0.115,3.369-0.162,5.055c0,0,0.052-0.06,0.052-0.06
	c-8.199-2.234-12.584,0.364-13.793,7.859c-0.176,1.091-1.845,2.001-2.896,2.919c-1.199,1.047-3.223,1.808-3.599,3.043
	c-1.637,5.372-1.466,5.419-7.601,4.455c-4.752-0.747-9.21,2.662-8.28,6.331c1.4,5.521,1.4,5.521-4.68,5.533
	c-5.326,0.011-7.069,1.501-8.283,6.752c-0.162,0.701-1.15,1.248-1.789,1.833c-1.786,1.634-3.588,3.251-5.386,4.875
	c-1.137,2.883-2.414,5.726-3.332,8.67c-0.31,0.995,0.538,2.272,0.394,3.366c-0.113,0.859-0.94,1.635-1.45,2.447L17.231,107.634z"/>
<path fill="#747474" d="M433.555,194.495c-2.146-0.001-4.293,0.01-6.439-0.002c-11.218-0.063-19.838-8.223-19.918-18.847
	c-0.079-10.781,8.584-19.087,19.986-19.148c2.651-0.015,5.308-0.092,7.954,0.027c6.617,0.301,10.925,4.994,10.929,11.78
	c0.006,6.804-4.288,11.51-10.896,11.817c-2.646,0.123-5.303,0.032-7.954,0.031c-5.545-0.003-5.378-0.01-5.559-5.268
	c-0.104-3.037,0.728-4.46,4.204-4.097c2.37,0.247,4.839,0.301,7.174-0.066c1.213-0.189,2.231-1.479,3.338-2.271
	c-1.036-0.877-1.968-2.313-3.134-2.513c-2.322-0.396-4.783-0.225-7.173-0.085c-5.194,0.303-9.068,4.572-9.002,9.762
	c0.066,5.177,4.031,9.376,9.249,9.521c5.046,0.139,10.104,0.138,15.151,0.001c2.58-0.07,3.543,0.71,3.568,3.242
	c0.057,6.113,0.18,6.113-6.175,6.114C437.091,194.495,435.324,194.495,433.555,194.495z"/>
<path fill="#747474" d="M536.492,194.493c-2.146,0.001-4.293,0.015-6.439-0.001c-11.142-0.084-19.729-8.388-19.705-19.048
	c0.023-10.638,8.629-18.869,19.82-18.945c2.778-0.019,5.564-0.116,8.332,0.037c6.541,0.362,10.757,5.137,10.717,11.971
	c-0.039,6.594-4.291,11.284-10.731,11.6c-3.526,0.173-7.073-0.056-10.604,0.073c-2.38,0.087-2.968-0.928-3.044-2.989
	c-0.234-6.354-0.309-6.351,6.277-6.355c1.894-0.001,3.841,0.24,5.661-0.111c1.022-0.196,1.833-1.378,2.739-2.115
	c-0.854-0.924-1.606-2.518-2.577-2.645c-2.724-0.358-5.555-0.307-8.31-0.063c-4.91,0.435-8.578,4.903-8.409,9.918
	c0.169,5.031,4.049,9.154,9.079,9.311c5.173,0.161,10.361,0.201,15.53,0.005c4.404-0.168,3.187,2.744,3.264,4.883
	c0.077,2.152,0.77,4.802-3.269,4.513C542.062,194.331,539.271,194.49,536.492,194.493z"/>
<path fill="#747474" d="M552.815,175.117c0-5.245,0.073-10.493-0.036-15.736c-0.045-2.156,0.763-2.957,3.064-2.913
	c5.547,0.107,11.104-0.15,16.643,0.083c9.91,0.417,17.54,8.651,17.526,18.618c-0.012,9.963-7.69,18.19-17.566,18.56
	c-5.541,0.207-11.098-0.035-16.644,0.079c-2.35,0.047-3.063-0.843-3.021-2.953C552.883,185.61,552.814,180.363,552.815,175.117z
	 M562.666,174.937c0,0.715,0,1.431,0,2.146c0,7.482,0,7.482,7.737,7.375c6.087-0.085,9.872-3.742,9.802-9.467
	c-0.078-6.312-4.106-9.254-12.784-9.157c-5.735,0.063-4.634-0.764-4.754,8.03C562.662,174.222,562.666,174.579,562.666,174.937z"/>
<path fill="#747474" d="M328.34,175.602c-0.04,10.471-8.926,18.864-19.995,18.891c-11.168,0.025-20.282-8.59-20.225-19.117
	c0.058-10.521,9.218-18.967,20.469-18.875C319.638,156.59,328.38,165.046,328.34,175.602z M318.585,175.376
	c-0.066-5.43-4.738-9.664-10.539-9.551c-5.743,0.111-10.269,4.572-10.116,9.972c0.147,5.218,4.756,9.378,10.374,9.368
	C314.089,185.155,318.652,180.81,318.585,175.376z"/>
<path fill="#747474" d="M331.065,182.441c0.3-4.033,0.136-8.159,0.993-12.084c1.834-8.397,9.567-14.036,18.215-13.855
	c8.752,0.183,16.527,6.334,17.569,14.954c0.826,6.838,0.512,13.809,0.467,20.719c-0.005,0.772-1.43,1.823-2.43,2.222
	c-0.967,0.384-2.246-0.005-3.368,0.116c-2.873,0.31-4.062-0.625-3.931-3.555c0.23-5.122,0.11-10.261,0.047-15.392
	c-0.071-5.657-3.834-9.77-8.794-9.739c-5.045,0.03-8.632,4.037-8.681,9.791c-0.047,5.25-0.184,10.508,0.034,15.75
	c0.174,4.149-2.857,3.038-5.133,3.095c-2.256,0.057-5.053,0.786-4.756-3.059c0.229-2.968,0.046-5.963,0.046-8.947
	C331.251,182.452,331.157,182.447,331.065,182.441z"/>
<path fill="#959595" d="M327.41,108.436c2.701,0,5.408-0.065,8.107,0.016c3.1,0.095,4.793-1.068,5.578-4.073
	c2.667-10.196,5.686-20.311,8.329-30.513c0.77-2.961,2.64-3.797,5.219-3.154c2.6,0.649,4.547,1.809,4.134,5.299
	c-1.037,8.752-1.743,17.558-2.086,26.359c-0.208,5.353,0.544,5.652,6.144,5.23c1.186-0.09,2.369-0.187,3.554-0.279
	c0.116,0.436,0.232,0.872,0.35,1.309c-2.102,0.612-4.166,1.471-6.317,1.761c-2.038,0.275-3.146,0.854-2.536,2.895
	c1.267,4.234,2.284,8.579,4.084,12.605c0.715,1.598,3.237,2.475,5.26,3.909c-0.289,0.081-1.8,1.031-2.735,0.665
	c-2.135-0.834-4.747-1.895-5.81-3.611c-2.573-4.162-4.604-8.67-6.378-13.206c-0.833-2.127-1.65-3.074-4.144-3.093
	c-7.043-0.053-7.02-0.146-9.688,6.057c-3.763,8.745-8.911,16.271-19.714,18.01c-7.648,1.231-14.725-0.08-19.833-6.17
	c-4.582-5.462-4.731-11.625-2.31-17.976c0.339-0.89,0.679-1.94,1.385-2.507c1.007-0.808,2.354-1.236,3.556-1.826
	c-0.514,0.948-0.864,2.027-1.567,2.826c-6.545,7.435-2.679,19.032,7.452,21.585c9.25,2.331,17.242-0.072,23.65-6.806
	c1.506-1.584,2.804-3.408,3.871-5.287c1.242-2.188,2.125-4.558,3.164-6.85c-2.34-0.357-4.695-0.64-7.012-1.102
	c-1.366-0.272-2.669-0.83-4-1.26C327.213,108.979,327.312,108.707,327.41,108.436z M351.004,77.412
	c-0.239,0.446-0.61,0.922-0.768,1.454c-2.575,8.736-5.178,17.466-7.579,26.246c-0.19,0.697,1.266,2.569,1.585,2.494
	c2.304-0.546,6.464,2.078,6.644-2.225C351.272,96.108,351.004,86.81,351.004,77.412z"/>
<path fill="#747474" d="M276.151,156.495c1.261,0,2.543,0.143,3.778-0.027c3.919-0.535,5.17,0.869,5.157,4.675
	c-0.012,3.758-1.155,5.148-5.132,4.724c-2.615-0.28-5.292-0.083-7.94-0.044c-5.706,0.085-9.643,3.888-9.678,9.308
	c-0.036,5.406,3.897,9.235,9.632,9.319c3.279,0.047,6.563,0.098,9.839-0.013c2.237-0.075,3.081,0.681,3.175,2.862
	c0.281,6.481,0.372,6.478-6.517,6.479c-2.145,0-4.289,0.008-6.433-0.002c-11.157-0.054-19.539-8.032-19.555-18.611
	c-0.017-10.568,8.384-18.607,19.51-18.668C273.376,156.489,274.763,156.495,276.151,156.495z"/>
<path fill="#747474" d="M394.358,194.236c-3.711-0.537-7.614-0.554-11.095-1.711c-8.918-2.966-13.617-11.823-11.818-21.254
	c1.634-8.568,9.384-14.689,18.732-14.771c3.284-0.028,6.58,0.158,9.852-0.039c4.746-0.286,3.111,2.97,3.331,5.132
	c0.239,2.36,0.31,4.581-3.5,4.272c-3.262-0.265-6.566-0.114-9.849-0.032c-5.32,0.131-9.295,4.265-9.2,9.457
	c0.094,5.153,3.877,9.007,9.115,9.145c3.534,0.094,7.095-0.173,10.6,0.156c1.031,0.097,2.638,1.61,2.735,2.586
	c0.667,6.589,0.559,6.599-6.554,6.6c-0.759,0-1.517,0-2.274,0C394.408,193.931,394.383,194.084,394.358,194.236z"/>
<path fill="#747474" d="M495.807,171.527c1.491,4.062,2.328,7.757,4.22,10.881c0.898,1.484,3.834,2.677,5.796,2.613
	c4.783-0.158,3.581,2.79,3.762,5.214c0.197,2.653-0.015,4.45-3.854,4.351c-7.873-0.204-13.181-3.38-15.788-10.433
	c-2.993-8.096-5.732-16.276-8.791-24.35c-1.112-2.938-0.084-3.443,2.772-3.36c3.511,0.104,7.084-0.612,8.133,4.165
	c0.183,0.833,3.254,1.476,5.022,1.551c5.098,0.217,7.69,3.909,5.444,8.286c-0.281,0.548-1.327,0.942-2.07,1.035
	C499.127,171.646,497.762,171.527,495.807,171.527z"/>
<path fill="#959595" d="M479.195,126.068c0.771-4.431,1.39-8.891,2.363-13.281c0.747-3.368,1.602-6.794,3.085-9.906
	c0.73-1.533,2.991-2.414,4.56-3.592c1.193,1.545,3.23,3.002,3.427,4.652c0.645,5.438,0.484,10.959,0.916,16.428
	c0.223,2.823,1.046,5.604,1.642,8.627c-2.942,0.541-4.719-1.655-5.149-4.242c-0.86-5.15-0.988-10.405-1.585-15.599
	c-0.251-2.188-0.926-4.332-1.407-6.496c-1.021,2.08-2.462,4.07-2.978,6.258c-1.288,5.462-2.141,11.016-3.204,16.527
	c-0.227,1.168-0.386,2.428-0.985,3.424c-0.562,0.938-1.778,2.294-2.504,2.191c-1.127-0.16-2.671-1.23-2.992-2.219
	c-0.728-2.24-1.316-4.712-1.084-7.01c1.467-14.469,3.173-28.916,4.8-43.371c0.119-1.063,0.432-2.147,0.32-3.192
	c-0.237-2.242,0.509-3.612,3.067-3.261c2.438,0.336,3.223,1.722,2.792,4.122c-1.92,10.697-3.867,21.394-5.431,32.14
	c-0.847,5.813-0.945,11.726-1.381,17.594C478.043,125.932,478.619,126,479.195,126.068z"/>
<path fill="#959595" d="M379.94,119.157c0.47-1.828,0.786-3.706,1.442-5.472c1.247-3.359,2.248-6.902,4.148-9.919
	c3.238-5.144,8.75-5.196,12.76-0.54c5.708,6.628,4.638,20.018-2.13,25.681c-3.673,3.072-8.002,4.018-12.697,2.678
	c-2.575-0.733-3.593,0.028-3.486,2.423c0.164,3.686,0.152,7.395,0.656,11.04c0.308,2.228-0.502,3.463-2.556,3.274
	c-1.04-0.096-2.786-1.74-2.752-2.635c0.618-16.434,1.429-32.86,2.362-49.28c0.042-0.724,1.657-1.368,2.54-2.05
	c0.752,1.121,2.276,2.341,2.133,3.348c-0.999,7.056-2.344,14.065-3.578,21.091C379.169,118.916,379.555,119.037,379.94,119.157z
	 M397.746,116.57c-0.876-3.399-1.282-6.669-2.627-9.547c-0.799-1.712-3.03-3.828-4.695-3.892c-1.628-0.062-3.645,2.04-4.946,3.6
	c-1.028,1.232-1.408,3.043-1.775,4.658c-0.977,4.315-1.69,8.684-2.702,12.99c-0.773,3.298,0.892,4.997,3.889,5.913
	c4.093,1.251,8.295-0.29,10.084-4.228C396.338,123.059,396.862,119.711,397.746,116.57z"/>
<path fill="#747474" d="M447.389,194.425c3.826-10.445,7.077-20.345,11.108-29.951c2.547-6.074,9.287-8.938,16.249-7.871
	c0.83,0.128,1.871,1.294,2.098,2.149c0.356,1.347,0.004,2.847,0.131,4.267c0.202,2.256-0.95,3.075-3.132,2.775
	c-4.739-0.651-6.802,1.79-8.09,5.692c-1.95,5.912-4.459,11.666-6.273,17.611c-1.126,3.692-3.055,5.442-7.169,4.993
	C450.989,193.947,449.612,194.257,447.389,194.425z"/>
<path fill="#959595" d="M429.892,100.873c2.412-0.41,4.369-1.325,5.373-0.751c0.995,0.57,1.522,2.679,1.403,4.046
	c-0.559,6.393-1.567,12.751-2.078,19.146c-0.194,2.448,0.22,5.164,4.189,5.06c-3.044,2.575-4.183,1.999-8.774-4.311
	c-1.064,1.559-2.021,3.068-3.092,4.503c-4.332,5.813-11.106,5.719-15.083-0.339c-3.924-5.979-4.093-12.517-1.895-18.982
	c1.136-3.34,3.019-6.582,5.177-9.455c3.841-5.11,6.66-5.292,11.874-1.394C428.263,99.351,429.409,100.458,429.892,100.873z
	 M413.02,120.027c0.252,0.182,0.505,0.362,0.757,0.544c0.754,2.617,1.145,5.396,2.345,7.815c1.808,3.646,5.6,4.021,8.134,0.806
	c1.616-2.05,2.987-4.518,3.587-6.99c1.149-4.738,1.733-9.604,2.428-14.437c0.421-2.928-0.298-5.704-3.398-6.906
	c-3.271-1.267-5.958,0.588-7.199,3.133C417.135,109.199,415.201,114.668,413.02,120.027z"/>
<path fill="#464646" d="M219.958,121.449c-1.278,1.124-2.554,2.247-3.833,3.37c-0.785,0.018-1.571,0.036-2.357,0.056
	c-0.208-0.342-0.552-1-0.608-0.978c-2.095,0.786-4.16,1.635-6.231,2.475c-0.421-0.218-0.841-0.436-1.263-0.653
	c-0.504-0.03-1.07,0.071-1.501-0.112c-4.019-1.711-8.014-3.471-12.563-0.039c-0.099-0.456-0.196-0.912-0.295-1.368
	c1.185-1.578,2.464-3.102,3.521-4.753c0.774-1.21,1.644-2.561,1.754-3.9c0.111-1.351-0.23-3.387-1.176-3.979
	c-0.963-0.604-3.405-0.33-4.314,0.465c-2.279,1.993-3.929,4.615-6.101,6.739c-0.866,0.848-2.439,1.05-3.69,1.545
	c-0.161-1.353-0.533-2.719-0.433-4.053c0.176-2.345,0.642-4.669,0.987-7.001c1.033-0.747,2.066-1.493,3.099-2.239
	c0.018-0.296,0.035-0.591,0.052-0.886c0.263-0.169,0.526-0.338,0.79-0.507c0.442,0.007,0.884,0.013,1.327,0.019
	c1.661-0.098,3.323-0.194,4.985-0.292c-0.218-0.974-0.435-1.947-0.77-3.447c2.957,0.975,6.327,1.238,8.252,2.952
	c2.063,1.835,4.042,2.571,6.573,2.79c-1.205,0.34-2.41,0.678-3.616,1.016c-0.583,0.936-1.883,2.154-1.617,2.755
	c1.001,2.261,2.513,4.319,3.833,6.454c0.226,0.217,0.452,0.433,0.678,0.648c1.814,0.912,3.626,1.823,5.44,2.735
	c0.151,0.003,0.304-0.002,0.458-0.016c0.825-0.198,1.65-0.399,2.475-0.599c0.205,0.209,0.408,0.418,0.612,0.627
	c0.28,0.028,0.56,0.055,0.84,0.082c0.966,0.208,1.933,0.416,2.899,0.623C218.763,121.804,219.36,121.626,219.958,121.449z"/>
<path fill="#959595" d="M461.051,106.646c0.012-0.238,0.09-0.495,0.024-0.713c-0.705-2.347-0.799-6.163-2.282-6.733
	c-3.495-1.345-5.033,2.21-6.529,4.588c-3.896,6.189-4.933,12.982-3.945,20.029c0.665,4.741,3.643,7.482,7.651,7.538
	c4.095,0.058,7.087-2.541,8.251-6.984c0.183-0.695,0.989-1.243,1.508-1.858c0.288,1.054,1.042,2.22,0.791,3.145
	c-1.936,7.181-12.256,9.49-18.137,4.132c-5.457-4.972-5.945-11.43-4.519-17.664c1.222-5.348,3.901-10.475,6.499-15.436
	c1.546-2.948,4.208-2.732,7.375-1.077c6.57,3.433,8.875,8.474,7.675,15.172c-0.204,1.139-1.301,2.135-1.984,3.195
	c-0.85-1.134-2.008-2.166-2.456-3.428c-0.421-1.177-0.09-2.593-0.09-3.904C460.938,106.646,460.994,106.646,461.051,106.646z"/>
<path fill="#959595" d="M521.757,121.017c2.47,3.753,0.788,6.036-1.063,8.136c-2.842,3.222-6.459,4.672-10.793,3.036
	c-5.041-1.903-7.479-5.881-8.563-10.66c-1.725-7.613-0.012-14.728,4.039-21.351c3.595-5.874,11.803-5.585,15.311,0.54
	c2.592,4.528,1.771,9.053-0.886,13.298c-2.488,3.977-6.026,6.528-11.211,5.776c-2.2-0.319-2.787,0.43-2.558,2.232
	c0.181,1.421,0.331,2.866,0.746,4.232c0.868,2.862,2.793,5.446,6.028,4.888c2.483-0.431,4.964-2.309,6.804-4.123
	C520.826,125.821,520.903,123.591,521.757,121.017z M520,106.466c-0.229-0.093-0.459-0.186-0.688-0.277
	c-0.109-0.825,0.02-1.776-0.376-2.452c-0.975-1.663-2.083-4.398-3.334-4.497c-1.723-0.137-4.406,1.351-5.286,2.864
	c-1.723,2.963-2.984,6.363-3.448,9.704c-0.269,1.94,0.932,5.465,2.28,5.87c1.914,0.576,5.518-0.4,6.706-1.906
	C517.919,113.149,518.688,109.616,520,106.466z"/>
<path fill="#121212" d="M206.93,126.372c2.07-0.84,4.137-1.688,6.231-2.475c0.056-0.021,0.398,0.636,0.608,0.978
	C211.489,125.373,209.209,125.873,206.93,126.372z"/>
<path fill="#464646" d="M202.219,126.499c1.194-0.042,2.389-0.086,3.584-0.129C204.608,126.413,203.414,126.457,202.219,126.499z"/>
<path fill="#464646" d="M218.296,124.793c0.493-0.202,0.985-0.404,1.478-0.605C219.282,124.389,218.789,124.591,218.296,124.793z"/>
<path fill="#989798" d="M153.849,174.322c-2.262,0.994-4.524,1.987-6.786,2.982c-0.093,0.032-0.198,0.048-0.274,0.104
	c-0.038,0.027-0.019,0.124-0.027,0.188c0.079-0.117,0.156-0.235,0.235-0.352c3.041-0.659,6.081-1.319,9.121-1.979
	c-0.206,1.132-0.413,2.263-0.693,3.798c4.548,2.734-3.554,4.475-1.695,7.277c2.37-1.621,4.741-3.24,7.113-4.858
	c0.353,0.343,0.799,0.633,1.044,1.033c4.24,6.954,10.693,7.687,18.201,6.088c1.467-0.312,3.22,0.58,4.84,0.916l0.064-0.064
	c-1.519,0.491-3.038,0.98-4.557,1.471c-2.532,1.9-5.063,3.803-7.798,5.855c-0.125-0.948-0.242-1.84-0.36-2.732
	c-0.565,4.031-3.596,4.992-6.748,4.484c-0.648-0.104-0.572-4.242-0.832-6.54c-0.439,1.286-0.801,2.856-1.516,4.269
	c-0.516,1.02-1.535,2.604-2.27,2.576c-1.77-0.07-4.376,0.08-4.026-2.919c-0.107-0.614-0.212-1.229-0.319-1.843
	c-0.179,0.368-0.359,0.735-0.539,1.103c-1.134,3.738-3.854,2.985-6.122,1.501c-0.834-0.545-0.542-2.627-0.686-3.526
	c-1.081,0.078-3.795,0.997-4.677,0.169c-1.337-1.255-1.776-3.7-1.909-5.681c-0.166-2.463,0.371-4.966,0.604-7.452
	c0.498-1.298,1.138-2.564,1.466-3.899c1.034-4.204,1.95-8.435,2.913-12.653c0.612-5.742,1.222-11.483,1.833-17.225
	c-0.371-0.035-0.744-0.07-1.117-0.104c-0.26,3.091-0.256,6.231-0.902,9.248c-0.285,1.334-1.896,3.445-2.889,3.438
	c-4.552-0.039-9.099-0.702-13.813-1.156c0.056-0.667,0.171-2.038,0.287-3.409c-0.25-0.044-0.5-0.087-0.749-0.13
	c-0.288,1.187-0.577,2.374-0.865,3.562c-0.833,2.004-2.514,3.433-3.493,5.54c-3.632,7.814-8.503,15.113-12.91,22.605
	c-0.427,0.515-0.853,1.028-1.28,1.542c0.149,0.151,0.299,0.302,0.449,0.452c0.893-0.703,1.784-1.407,2.676-2.11
	c0.378-0.202,0.757-0.405,1.135-0.607c1.262-1.475,2.523-2.948,3.785-4.422l-0.036,0.048c1.271-1.439,2.542-2.879,3.813-4.318
	c2.018-0.016,4.035-0.032,6.053-0.048c0.514,0.24,1.027,0.48,1.541,0.721c0.22,0.175,0.44,0.35,0.661,0.524
	c0.052-0.087,0.106-0.174,0.159-0.261c-0.29-0.069-0.58-0.139-0.87-0.209c-0.515-0.239-1.03-0.479-1.546-0.717
	c-2.012-0.02-4.024-0.039-6.037-0.059c0.55-1.89,1.099-3.779,1.65-5.671c1.224-2.867,2.449-5.735,3.673-8.603
	c4.358-3.346,9.003-4.915,14.358-2.066c1.125,3.705,0.612,4.19-3.303,3.813c-2.417-0.232-4.88-0.044-7.32-0.044
	c7.767,1.51,8.667,1.906,9.145,4.983c-1.144-0.512-2.163-0.968-3.094-1.385c1.01,1.896,2.25,3.567,2.828,5.423
	c2.245,7.202-3.006,12.702-5.104,18.921c-0.133,0.395-0.846,0.995-1.042,0.921c-0.695-0.268-1.282-0.784-1.911-1.206
	c-3.556-2.599-7.11-5.198-10.667-7.797c-0.247,0.329-0.495,0.657-0.742,0.986c3.05,2.022,6.101,4.045,9.151,6.068
	c-3.409,2.226-6.74,4.574-10.276,6.603c-1.044,0.599-2.859,0.74-3.993,0.314c-3.361-1.267-6.558-2.92-9.82-4.422
	c-0.016-0.258-0.033-0.517-0.049-0.773c2.87,0,5.738,0,8.607,0c0.052-0.274,0.104-0.549,0.156-0.822
	c-1.971-0.53-3.941-1.061-5.912-1.593c0.073-0.392,0.146-0.783,0.218-1.175c-0.546,0.169-1.093,0.339-1.641,0.509
	c-5.101,0-10.202,0-14.186,0c0.167,0.195,1.25,1.094,1.741,2.224c0.202,0.463-0.758,1.928-1.388,2.054
	c-1.412,0.283-2.948,0.015-4.434-0.027l0.014,0.01c-2.571-2.747-6.179-3.029-9.129-0.713l0.038-0.021
	c-3.084,1.16-6.169,2.322-9.253,3.483c-2.734,1.836-5.321,3.919-8.236,5.439c-3.224,1.683-6.437,4.02-10.58,2.571
	c1.693-0.771,3.501-1.376,5.056-2.346c3.932-2.45,8.235-4.611,11.486-7.73c3.959-3.8,8.42-5.417,13.782-5.701
	c15.943-0.844,27.815-7.514,33.467-22.049c2.849-7.328,4.901-14.969,6.755-22.589c0.639-2.62-0.414-5.61-0.695-8.431
	c1.53-1.078,3.059-2.157,4.59-3.233c2.232-1.569,4.466-3.138,6.699-4.706c1.319,0.678,2.883,1.122,3.91,2.08
	c2.55,2.376,4.94,1.064,7.104-0.203c2.755-1.614,5.239-3.643,7.841-5.492c1.066-0.327,2.143-0.631,3.199-0.986
	c4.446-1.499,7.347-0.604,10.221,3.12c-1.164,0.981-2.318,1.953-3.472,2.925c-0.039,0.38-0.078,0.761-0.115,1.142
	c1.539-0.139,3.079-0.277,4.618-0.416c0.529-0.198,1.059-0.396,1.589-0.595c9.026-1.146,15.576-5.978,20.993-12.541
	c0.97-1.176,2.161-2.189,3.249-3.276c-0.254,0.912-0.21,2.089-0.811,2.697c-4.012,4.067-8.218,7.962-12.237,12.024
	c-1.612,1.63-2.912,3.539-4.352,5.321c-0.9-0.771-1.798-1.543-1.835-1.574c-1.53,1.501-2.979,3.217-4.797,4.445
	c-0.342,0.229-2.157-1.489-3.183-2.23c0,0.77,0,1.993,0,3.603c-0.544-0.951-0.875-1.532-0.679-1.189
	c-0.838,1.561-1.826,3.399-2.814,5.238c-0.831-0.399-1.662-0.798-2.493-1.196c0-1.258,0-2.516,0-3.772
	c-0.304-0.007-0.609-0.014-0.915-0.02c0,2.726,0,5.451,0,8.175c0.19,0.207,0.381,0.414,0.571,0.62
	c0.558,0.761,1.115,1.521,1.671,2.282c-1.103,1.479-2.127,3.193-4.365,1.32c-0.41-1.286-0.819-2.572-1.229-3.857
	c-0.342,0.127-0.685,0.253-1.027,0.38c1.708,3.136-0.543,7.957,5.093,9.42c-1.695,1.713-3.391,3.425-5.118,5.17
	c0.271,1.765,0.599,3.892,0.936,6.086c0.476-1.006,0.903-1.906,1.329-2.808C157.421,167.729,158.91,172.077,153.849,174.322z
	 M135.041,139.436c0.228-0.692,0.456-1.385,0.681-2.079c0.23-0.553,0.459-1.106,0.689-1.66c0.426-0.434,0.851-0.867,1.276-1.3
	c-0.173-0.113-0.346-0.227-0.519-0.341c-0.251,0.549-0.502,1.097-0.753,1.646c-0.336,0.455-0.672,0.91-1.007,1.365
	c-0.224,0.694-0.449,1.389-0.671,2.085C134.838,139.246,134.939,139.341,135.041,139.436z M145.721,132.905
	c0.026,0.153,0.053,0.307,0.081,0.461c3.418,0,6.836,0,10.255,0c-0.002-0.154-0.004-0.308-0.006-0.461
	C152.608,132.905,149.165,132.905,145.721,132.905z M160.566,132.299c-0.264-0.177-0.526-0.353-0.79-0.528
	c-0.522,1.049-1.047,2.098-1.569,3.146c0.221,0.104,0.443,0.209,0.664,0.313C159.436,134.253,160,133.275,160.566,132.299z"/>
<path fill="#737373" d="M185.795,105.631c-0.264,0.169-0.526,0.338-0.79,0.507c-3.746,0.284-7.669-1.987-11.25,0.698
	c-0.863,0.279-1.724,0.559-2.585,0.839c-2.486-0.226-4.973-0.45-7.458-0.676c-0.436-0.219-0.872-0.438-1.309-0.656
	c-0.154,0.294-0.233,0.677-0.478,0.868c-2.032,1.575-4.013,3.232-6.185,4.617c-1.018,0.647-2.414,0.786-3.654,1.095
	c-2.264,0.563-4.523,1.379-6.817,1.485c-1.058,0.049-2.191-1.323-3.29-2.051c0.481-0.525,0.964-1.05,1.445-1.574
	c-0.104-0.201-0.208-0.401-0.312-0.602c-1.212,0.578-2.424,1.156-3.637,1.734c-1.287-0.447-2.573-0.894-3.859-1.341
	c0.644-0.297,1.287-0.594,1.931-0.891c-0.13-0.185-0.259-0.369-0.388-0.554c-0.499,0.498-0.998,0.998-1.497,1.497
	c-2.546,0.949-5.093,1.899-7.639,2.85l0.037-0.054c-3.284-0.457-6.568-0.912-9.853-1.369c-0.506-0.243-1.012-0.488-1.517-0.732
	c-0.251-0.24-0.503-0.48-0.754-0.721c-1.284-3.543-2.538-1.349-3.796,0.018c-1.717-0.028-3.542,0.285-5.126-0.161
	c-2.594-0.731-3.971,0.059-4.76,2.302l0.075-0.029c-2.046,0.485-4.094,0.97-6.142,1.453l0.062-0.021
	c-0.278,0.001-0.555,0.003-0.833,0.005c-0.232,0.196-0.462,0.395-0.693,0.59c-0.236,0.079-0.476,0.139-0.722,0.179
	c-2.912,0.284-5.825,0.566-8.737,0.851c0.04,0.783,0.079,1.566,0.116,2.348c3.422,0,6.941-0.454,10.229,0.175
	c1.904,0.363,3.537,2.377,5.053,3.865c0.327,0.321-0.208,2.205-0.622,2.302c-3.926,0.908-7.938,1.48-11.872,2.366
	c-2.687,0.605-5.286,1.553-7.924,2.347c-2.969,1.898-5.652,0.76-8.849,0.095c-4.766-0.992-9.92-0.35-14.909-0.315
	c-0.705,0.004-1.516,0.864-2.092,0.709c-5.969-1.603-12.546,0.01-18.22-3.123c-2.352-1.301-4.536-2.432-7.568-0.902
	c-4.292,2.166-8.849,1.7-13.006-0.666c-2.989-1.699-4.356-3.992-1.832-7.102c0.434-0.534,1.108-1.519,0.905-1.798
	c-2.823-3.889-0.119-6.125,2.644-8.378c0.511-0.812,1.338-1.587,1.451-2.447c0.145-1.093-0.703-2.371-0.394-3.365
	c0.918-2.943,2.195-5.787,3.332-8.671c1.846,2.935,3.69,5.867,5.535,8.8c-0.385,5.82,0.467,7.565,4.864,7.758
	c3.685,0.162,5.038,2.733,6.025,4.897c2.738,6,3.618,6.857,10.298,6.596c4.297-0.846,8.242-3.38,13.111-1.478
	c1.479,0.578,3.913-0.994,5.882-1.656c0.112-0.038-0.031-0.756-0.056-1.156c2.045-0.715,4.09-1.43,6.135-2.145
	c0.409-0.337,0.817-0.673,1.226-1.01c-1.337-0.881-2.586-1.934-4.032-2.606c-2.085-0.97-4.764-2.042-3.196-4.462
	c1.317-2.032,2.898-3.498,1.715-6.055c-0.153-0.33,0.744-1.095,1.154-1.659c-0.225,4.533,4.145,5.186,6.846,7.247
	c2.945,2.758,6.436,3.122,10.45,2.777c4.472-0.383,9.242,1.196,13.089-2.333c0.146-0.136,0.729,0.25,1.066,0.188
	c3.668-0.664,7.329-1.37,10.992-2.064c3.335-0.712,6.671-1.423,10.006-2.135c1.732,0.002,3.463,0.004,5.194,0.007
	c1.537,0.229,3.074,0.462,4.61,0.693c0.746-0.28,1.492-0.563,2.238-0.843c0.478-0.447,0.955-0.895,1.433-1.341
	c2.583-2.344,6.28-4.276,7.452-7.136c1.3-3.175,0.297-7.193,0.297-10.528c1.193,0.912,2.265,1.815,3.427,2.602
	c1.855,1.256,3.769,2.434,5.658,3.645l-0.032-0.063c0.756,2.881,1.512,5.762,2.269,8.643c-2.124,1.311-4.249,2.621-6.371,3.931
	c0.275,0.309,0.552,0.616,0.826,0.924c1.853-1.615,3.704-3.231,5.556-4.847h0.355l0.356-0.014c2.069,0.001,4.138,0.003,6.207,0.004
	c2.408,0.42,4.814,0.849,7.224,1.256c0.822,0.138,1.919-0.062,2.442,0.373c5.394,4.497,10.69,0.801,15.559-0.649
	c4.299-1.28,8.201-1.739,12.318-0.463c3.418,1.059,6.396,1.188,8.63-1.985l-0.044,0.037c1.937-0.487,3.89-0.925,5.806-1.472
	c4.769-1.36,6.313-4.634,4.636-9.038c-0.351-0.922,0.157-2.35,0.706-3.324c1.708-3.027,3.265-5.962,0.287-9.083
	c1.498-2.607,2.995-5.216,4.493-7.823c1.788,0.211,3.577,0.423,5.366,0.634l-0.032-0.034c0.238,1.283,0.36,2.598,0.735,3.844
	c1.201,3.979,3.44,7.222,2.201,12.276c-0.953,3.894,0.26,8.636-2.04,13.083c0.887-0.511,1.515-0.872,2.143-1.233
	c0.757,0.975,1.514,1.95,2.27,2.925c-0.247,0.958-0.495,1.916-0.743,2.874l0.044-0.044c-0.647,0.302-1.758,0.495-1.871,0.923
	c-1.15,4.392-6.091,4.97-8.678,7.874c-5.338,0.262-10.695,2.402-16.004-0.146c-0.526-0.521-1.054-1.04-1.581-1.561
	c-2.532-0.219-4.51-0.955-6.573-2.79c-1.926-1.715-5.295-1.978-8.252-2.952c0.334,1.5,0.552,2.474,0.769,3.447
	c-1.661,0.098-3.323,0.194-4.984,0.292C186.68,105.644,186.238,105.638,185.795,105.631z"/>
<path fill="#6F6F6F" d="M156.885,195.92c-0.35,3,2.257,2.85,4.026,2.919c0.735,0.028,1.754-1.557,2.27-2.576
	c0.715-1.412,1.077-2.982,1.516-4.269c0.26,2.298,0.182,6.436,0.832,6.54c3.151,0.508,6.182-0.453,6.748-4.484
	c0.118,0.892,0.234,1.783,0.36,2.732c2.735-2.053,5.266-3.955,7.798-5.855c0.261,0.283,0.522,0.563,0.783,0.847
	c-1.224,1.162-2.448,2.325-3.671,3.486c-0.304,0.23-0.609,0.463-0.912,0.693c-0.208,0.523-0.415,1.049-0.622,1.573
	c0.19,0.03,0.38,0.06,0.57,0.091c0-0.572,0-1.146,0-1.718c0.265,0.013,0.528,0.026,0.792,0.039c0.697,0.331,1.527,1.076,2.067,0.92
	c2.16-0.624,4.228-1.529,6.331-2.33c-0.023,0.242-0.046,0.484-0.067,0.728l0.047-0.065c-0.08,0.408-0.162,0.816-0.243,1.225
	c4.158-0.408,8.318-0.816,12.476-1.225c0.421,0.481,0.841,0.963,1.263,1.443c-1.935,0.208-3.869,0.416-6.493,0.698
	c2.016,1.705,3.181,2.691,4.347,3.678c-9.26-1.657-18.281-0.521-27.299,1.723c-2.811,0.7-5.924,0.553-8.876,0.402
	c-1.302-0.065-2.487-1.38-3.833-1.643c-2.047-0.399-4.188-0.377-6.29-0.534l0.034-0.03c-3.437,0.02-6.89,0.237-10.309,0.007
	c-4.174-0.281-8.321-0.938-12.48-1.43c0.256-0.245,0.511-0.49,0.766-0.733c0.247-0.475,0.492-0.949,0.739-1.423
	c0.259-0.243,0.518-0.485,0.775-0.729c0.066-0.177,0.13-0.353,0.195-0.528c-0.048,0.191-0.098,0.382-0.146,0.574
	c-0.259,0.242-0.518,0.485-0.776,0.728c-0.246,0.475-0.493,0.949-0.74,1.423c-0.258,0.242-0.516,0.485-0.774,0.727
	c-8.693,2.845-17.384,5.693-26.081,8.527c-1.54,0.501-3.092,1.277-4.661,1.334c-5.511,0.198-9.308,3.102-12.832,6.643
	c-1.216,1.221-2.636,2.26-3.963,3.384c-0.327-0.291-0.655-0.582-0.983-0.873c1.224-1.327,2.446-2.653,3.67-3.98
	c3.28-3.453,6.76-6.534,11.969-7.27c0.506-0.072,0.677-2.26,1.003-3.466c0.209-0.229,0.42-0.457,0.63-0.686
	c2.729,0.249,5.469,0.728,8.183,0.623c0.969-0.038,1.877-1.486,2.814-2.291c-0.96-0.858-1.782-2.196-2.904-2.483
	c-3.129-0.797-6.382-1.158-9.587-1.692c-0.734,0.028-1.467,0.057-2.2,0.085l0.033-0.049c-4.152,0.716-8.365,1.213-12.434,2.228
	c-2.527,0.631-4.957,1.858-7.214,3.157c-3.399,1.956-6.61,4.209-9.901,6.336c-0.354-0.454-0.711-0.907-1.065-1.36
	c0.629-0.54,1.258-1.079,1.888-1.619c1.59-0.729,3.356-1.238,4.74-2.227c4.866-3.479,9.4-7.315,16.188-7.184
	c1.56,0.03,5.058,0.744,4.763-2.9c1.486,0.044,3.022,0.312,4.434,0.027c0.63-0.127,1.59-1.591,1.388-2.054
	c-0.49-1.129-1.573-2.027-1.741-2.224c3.983,0,9.085,0,14.186,0c0.474,0.222,0.948,0.444,1.422,0.667
	c1.971,0.53,3.941,1.062,5.912,1.592c-0.052,0.274-0.104,0.549-0.156,0.822c-2.869,0-5.738,0-8.607,0
	c0.016,0.258,0.033,0.516,0.049,0.773c3.261,1.502,6.459,3.155,9.82,4.422c1.134,0.427,2.948,0.284,3.993-0.314
	c3.536-2.028,6.868-4.377,10.275-6.603c0.753,0.248,1.506,0.495,2.259,0.742c0.628,0.422,1.216,0.939,1.91,1.206
	c0.196,0.074,0.91-0.526,1.042-0.921c2.099-6.218,7.35-11.719,5.105-18.921c-0.579-1.855-1.818-3.526-2.828-5.423
	c0.933,0.417,1.95,0.873,3.095,1.385c-0.479-3.077-1.377-3.473-9.145-4.982c2.441,0,4.904-0.19,7.32,0.043
	c3.916,0.378,4.429-0.108,3.303-3.813c2.29,0.146,4.139,0.712,3.714,3.461c-3.959,4.967-3.034,10.9-3.66,16.527
	c-0.233,2.485-0.769,4.989-0.604,7.452c0.132,1.98,0.572,4.426,1.909,5.681c0.881,0.827,3.596-0.091,4.676-0.169
	c0.145,0.899-0.146,2.981,0.686,3.526c2.269,1.484,4.989,2.237,6.123-1.501C156.313,195.426,156.6,195.673,156.885,195.92z
	 M97.73,195.913c0.264,0.031,0.527,0.063,0.792,0.094c4.76,1.498,9.521,2.995,14.282,4.492c0.141-0.234,0.281-0.468,0.422-0.702
	c-1.128-1.021-2.258-2.041-3.387-3.061c-3.934-1.459-7.821-3.602-12.062-0.766c-0.184,0.12-0.369,0.239-0.555,0.36
	C97.391,196.191,97.561,196.052,97.73,195.913z"/>
<path fill="#717171" d="M162.941,129.206c1.154-0.973,2.309-1.944,3.473-2.925c-2.874-3.725-5.774-4.619-10.221-3.121
	c-1.057,0.356-2.133,0.659-3.199,0.987c1.504-1.414,3.009-2.827,4.515-4.242c2.868,0.447,5.761,0.793,8.595,1.389
	c1.228,0.256,2.334,1.025,3.497,1.563c0.613-1.625,1.226-3.25,1.96-5.194c0.705-0.219,2.124-0.656,3.542-1.094
	c0.07-0.519,0.142-1.037,0.211-1.556c-3.631-1.279-7.264-2.559-10.896-3.839c0.745-0.673,1.49-1.348,2.236-2.021
	c3.278,0.781,6.562,1.601,9.192-1.409c4.171,1.487,5.311,3.244,3.265,6.583c-2.498,4.076-5.697,7.764-8.499,11.68
	c-0.71,0.992-1.063,2.214-1.579,3.33c-0.53,0.198-1.059,0.396-1.589,0.595C165.943,129.689,164.442,129.447,162.941,129.206z"/>
<path fill="#474747" d="M80.246,129.189c2.638-0.795,5.237-1.742,7.924-2.347c3.934-0.886,7.946-1.458,11.872-2.367
	c0.414-0.096,0.948-1.98,0.622-2.302c-1.516-1.487-3.149-3.501-5.053-3.865c-3.288-0.628-6.808-0.175-10.229-0.175
	c-0.039-0.782-0.077-1.564-0.116-2.347c2.913-0.284,5.825-0.566,8.736-0.852c0.241-0.059,0.482-0.118,0.723-0.178
	c0.231-0.196,0.461-0.394,0.693-0.591c0.277-0.001,0.554-0.003,0.833-0.005l-0.062,0.021c2.766,3.489,5.66,6.9,8.084,10.59
	c0.232,0.354-2.237,2.968-3.855,3.578c-2.416,0.912-5.183,1.278-7.812,1.328C88.49,129.757,84.366,129.376,80.246,129.189z"/>
<path fill="#969696" d="M122.73,131.412c-0.234-0.964-0.469-1.927-0.703-2.889c1.103-0.728,2.205-1.454,3.452-2.275
	c-2.144-0.707-4.001-1.318-5.859-1.931c0,0-0.026-0.033-0.026-0.033c1.774-0.949,3.548-1.899,6.15-3.293
	c-1.413,0-1.943,0.147-2.299-0.024c-1.75-0.846-3.454-1.775-5.173-2.675c1.215-1.24,2.361-2.551,3.673-3.69
	c0.615-0.534,1.546-0.741,2.334-1.096c0.7,0.9,1.516,1.741,2.079,2.712c1.655,2.857,3.209,5.767,4.803,8.655
	C130.028,128.983,127.234,131.182,122.73,131.412z"/>
<path fill="#6F6F6F" d="M157.036,149.261c2.237,1.874,3.262,0.159,4.365-1.319c3.676,0.357,3.529,2.678,2.42,4.898
	c-1.268,2.536-3.066,4.836-4.634,7.239c-0.089,0.169-0.178,0.339-0.268,0.509c0.072-0.185,0.145-0.369,0.217-0.554
	c2.097,1.279,2.482,13.355,0.307,14.025c-1.713,0.527-3.718,0.208-5.593,0.264c5.061-2.245,3.572-6.593,3.171-10.671
	c-0.426,0.901-0.853,1.802-1.329,2.809c-0.338-2.195-0.665-4.321-0.937-6.086c1.727-1.745,3.423-3.457,5.118-5.17
	c0.385-0.293,0.784-0.571,1.127-0.902c0.028-0.027-0.328-0.602-0.511-0.604C157.261,153.645,157.156,151.452,157.036,149.261z"/>
<path fill="#979797" d="M95.348,197.312c3.204,0.533,6.457,0.895,9.586,1.692c1.122,0.285,1.944,1.624,2.904,2.483
	c-0.937,0.804-1.845,2.253-2.814,2.291c-2.714,0.104-5.454-0.375-8.183-0.623c-1.792-0.703-3.585-1.403-5.865-2.297
	c0.689-1.097,1.446-2.305,2.204-3.512l-0.033,0.049C93.881,197.368,94.614,197.339,95.348,197.312z"/>
<path fill="#6F6F6F" d="M160.072,140.655c0.831,0.399,1.662,0.798,2.492,1.197c0.989-1.839,1.976-3.678,2.815-5.238
	c-0.196-0.343,0.136,0.238,0.679,1.188c0-1.608,0-2.832,0-3.602c1.026,0.741,2.841,2.461,3.183,2.23
	c1.817-1.229,3.267-2.944,4.797-4.446c0.037,0.032,0.936,0.804,1.835,1.574l-0.034-0.032c0.006,0.258,0.013,0.517,0.019,0.774
	c-3.664,3.816-7.346,7.616-10.982,11.456c-1.797,1.896-3.461,1.301-5.148-0.099c-0.191-0.207-0.381-0.413-0.572-0.62
	C159.463,143.578,159.768,142.117,160.072,140.655z"/>
<path fill="#989798" d="M90.146,193.777c0.295,3.646-3.203,2.931-4.763,2.9c-6.787-0.132-11.321,3.705-16.188,7.184
	c-1.383,0.989-3.15,1.499-4.74,2.227c0.685-0.532,1.369-1.064,2.053-1.597c0.788-0.725,1.575-1.448,2.363-2.173
	c0.533-0.936,1.064-1.871,1.597-2.807l-0.04,0.045c1.154-0.97,2.308-1.939,3.46-2.909c2.393-1.198,4.787-2.396,7.179-3.594
	c0,0-0.039,0.021-0.039,0.02c3.044,0.238,6.086,0.476,9.13,0.714L90.146,193.777z"/>
<path fill="#959595" d="M185.772,194.529c-2.102,0.801-4.171,1.706-6.33,2.33c-0.54,0.156-1.37-0.59-2.067-0.921
	c0.039-0.229,0.095-0.456,0.171-0.677c1.223-1.162,2.447-2.325,3.671-3.487c1.257-0.772,2.515-1.544,3.773-2.316l-0.063,0.064
	c3.134-0.596,6.202-0.961,8.472,2.168c-1.922,0.749-3.681,1.435-5.44,2.12l0.072-0.058
	C187.278,194.012,186.524,194.271,185.772,194.529z"/>
<path fill="#979797" d="M96.211,203.841c-0.326,1.205-0.497,3.393-1.003,3.465c-5.209,0.735-8.689,3.816-11.969,7.27
	c1.462-3.104,2.681-6.338,4.449-9.276C89.755,201.859,92.81,201.413,96.211,203.841z"/>
<path fill="#717171" d="M175.874,133.56c1.441-1.78,2.739-3.689,4.352-5.32c4.02-4.062,8.226-7.957,12.237-12.023
	c0.602-0.609,0.557-1.785,0.811-2.698c0.28,1.108,1.188,2.613,0.733,3.256c-2.284,3.227-4.663,6.465-7.508,9.241
	c-3.038,2.965-6.634,5.419-9.986,8.096c-0.224-0.194-0.449-0.389-0.674-0.583L175.874,133.56z"/>
<path fill="#6F6F6F" d="M68.871,202.318c-0.788,0.726-1.575,1.449-2.363,2.173c-4.746,1.064-9.519,2.032-14.223,3.242
	c-1.732,0.446-3.299,1.466-5.362,1.622c2.025-1.602,4.051-3.205,6.074-4.808c4.143,1.449,7.356-0.889,10.58-2.571
	c2.917-1.521,5.503-3.604,8.237-5.439c0.092,0.084,0.183,0.167,0.274,0.25c-0.554,0.923-1.108,1.846-1.661,2.769l0.04-0.044
	C69.936,200.447,69.404,201.383,68.871,202.318z"/>
<path fill="#6F6F6F" d="M160.841,181.483c-2.373,1.619-4.744,3.238-7.114,4.858c-1.857-2.803,6.244-4.543,1.695-7.277
	c0.281-1.535,0.488-2.666,0.694-3.798C162.473,174.092,159.942,178.953,160.841,181.483z"/>
<path fill="#6F6F6F" d="M119.62,124.317c1.857,0.612,3.715,1.224,5.859,1.931c-1.247,0.821-2.349,1.548-3.452,2.275
	c-0.337-0.338-0.675-0.675-1.421-1.421c0.537,2.565,0.981,4.689,1.426,6.813c-0.361,0.22-0.721,0.438-1.082,0.656
	c-1.879-5.405-6.084-8.301-11.151-10.267c0,0,0.203-0.25,0.202-0.249c2.421,0.952,4.816,1.98,7.295,2.773
	c0.385,0.123,1.153-0.821,1.744-1.272C119.233,125.144,119.427,124.73,119.62,124.317z"/>
<path fill="#6B6C6C" d="M122.73,131.412c4.503-0.23,7.298-2.429,8.431-6.54c0.992,0.964,1.985,1.927,2.978,2.89
	c-2.233,1.569-4.467,3.137-6.7,4.707c-1.531,1.076-3.06,2.155-4.59,3.232C122.811,134.272,122.771,132.842,122.73,131.412z"/>
<path fill="#939393" d="M197.103,201.01c-1.165-0.986-2.331-1.973-4.347-3.678c2.624-0.282,4.559-0.49,6.493-0.698
	c1.439,1.595,2.879,3.188,5.007,5.543C201.3,201.695,199.201,201.352,197.103,201.01z"/>
<path fill="#969696" d="M197.986,195.191c-4.158,0.408-8.318,0.816-12.476,1.225c0.081-0.408,0.163-0.816,0.243-1.225
	c0,0-0.047,0.065-0.047,0.064c0.775-0.5,1.55-1.001,2.325-1.503l-0.072,0.057c2.105-0.247,4.24-0.8,6.308-0.63
	C195.559,193.287,196.75,194.483,197.986,195.191z"/>
<path fill="#737373" d="M109.799,124.305c-5.591-1.114-6.531-6.356-9.529-9.763c-0.033-0.038,1.342-1.184,2.059-1.813l-0.076,0.029
	c2.287,3.077,4.573,6.154,6.859,9.23c0.297,0.689,0.592,1.379,0.889,2.066L109.799,124.305z"/>
<path fill="#969696" d="M175.845,107.744c-2.628,3.01-5.914,2.19-9.192,1.409c1.506-0.494,3.012-0.986,4.518-1.479
	c0.861-0.28,1.722-0.56,2.585-0.839C174.453,107.139,175.149,107.441,175.845,107.744z"/>
<path fill="#959595" d="M184.953,107.024c-1.032,0.746-2.065,1.492-3.098,2.239C180.905,107.002,180.905,107.002,184.953,107.024z"
	/>
<path fill="#989798" d="M175.84,133.527c0.225,0.195,0.449,0.389,0.673,0.584c-0.206,0.102-0.423,0.165-0.653,0.191
	C175.854,134.044,175.847,133.785,175.84,133.527z"/>
<path fill="#DCDBDB" d="M175.79,124.174c-0.065,0.141-0.13,0.281-0.195,0.422c-0.013-0.077-0.062-0.195-0.028-0.223
	c0.083-0.067,0.204-0.092,0.309-0.135L175.79,124.174z"/>
<path fill="#6F6F6F" d="M150.805,200.958c0,0,0.033-0.03,0.034-0.03L150.805,200.958z"/>
<path fill="#959494" d="M27.243,102.024c-1.844-2.933-3.688-5.866-5.534-8.799c1.796-1.624,3.6-3.241,5.386-4.875
	c0.639-0.585,1.627-1.132,1.789-1.833c1.214-5.251,2.958-6.741,8.282-6.752c6.08-0.013,6.08-0.013,4.68-5.533
	c-0.93-3.669,3.528-7.078,8.28-6.331c6.136,0.964,5.964,0.917,7.601-4.455c0.376-1.235,2.4-1.996,3.599-3.043
	c1.052-0.918,2.721-1.829,2.896-2.919c1.209-7.496,5.594-10.094,13.794-7.859c1.77,1.698,3.537,3.397,5.306,5.096
	c1.611,0.177,3.223,0.354,4.833,0.532c0.016-0.416,0.031-0.831,0.046-1.247c-1.644,0-3.287,0-4.931,0
	c-0.747-0.615-1.492-1.235-2.243-1.846c-1.019-0.828-2.042-1.651-3.064-2.476c0.047-1.686,0.034-3.375,0.162-5.055
	c0.095-1.259,0.833-2.639,0.479-3.733c-1.207-3.738,0.918-5.591,4.106-6.329c4.256-0.986,5.862-4.731,7.156-7.382
	c1.692-3.469,3.456-5.317,7.246-5.458c2.051-0.075,2.831-0.652,2.772-2.77c-0.115-4.157,3.114-7.45,7.37-8.766
	c2.101-0.648,4.272-1.842,5.757-3.361c3.284-3.357,9.64-4.336,13.337-1.341c1.749,1.415,3.015,2.416,5.493,1.284
	c1.06-0.485,3.37-0.081,4.151,0.738c2.28,2.396,4.363,2.646,7.559,1.521c3.271-1.152,6.098,0.188,7.684,3.473
	c0.33,0.682,1.708,1.357,2.543,1.296c2.877-0.213,4.559,1.887,4.243,4.525c-0.185,1.551,0.656,3.776,1.877,4.8
	c2.911,2.444,5.749,3.44,9.437-0.063c3.765-3.575,7.365-3.055,11.356-0.129c1.641,1.203,10.265,1.894,12.001,0.96
	c8.41-4.518,17.553-0.653,19.529,8.227c0.665,2.987,2.734,1.726,4.368,1.078c6.17-2.45,10.648-1.161,13.308,4.579
	c0.874,1.887,0.762,4.662-0.027,6.625c-0.836,2.08-0.683,3.06,1.313,3.917c-0.274,4.915-4.438,8.87-3.87,14.058
	c0.076,0.688-1.413,1.526-2.177,2.296c-2.474-3.951-4.946-7.9-7.419-11.85c-0.283,0.138-0.565,0.275-0.848,0.413
	c2.495,4.332,4.989,8.665,7.484,12.998c-1.499,2.607-2.995,5.216-4.493,7.823c0.948,3.814,0.705,7.29-2.833,10.017
	c-0.397,0.305-0.471,1.512-0.168,2.021c2.832,4.765,1.2,7.756-4.668,8.818c-1.344,0.242-2.515,1.351-3.765,2.06l0.044-0.037
	c-5.771,3.34-11.553-1.354-17.337-0.003c-0.299,0.069-0.695-0.344-1.047-0.344c-0.566-0.002-1.226,0.006-1.689,0.264
	c-5.106,2.845-10.059,6.729-16.099,1.672c-0.313-0.263-0.936-0.24-1.419-0.266c-2.934-0.152-5.869-0.282-8.715-0.415
	c-0.085-0.354,0.024,0.104,0.134,0.562c-2.069-0.002-4.138-0.003-6.207-0.005c-0.997-2.88-1.994-5.758-2.991-8.637l0.032,0.063
	c-0.562-1.121-0.819-2.604-1.741-3.295c-2.591-1.938-5.455-3.551-8.21-5.293c3.229-1.076,6.597-1.894,9.621-3.352
	c1.245-0.602,1.747-2.579,2.585-3.93c0.515-1.897,1.028-3.793,1.542-5.689l-0.036,0.06c2.449-2.498,7.307-2.706,7.671-7.261
	c0.034-0.42,1.172-1.08,1.802-1.085c4.215-0.03,3.349-2.842,3.549-4.348c-2.155,1.675-4.588,3.566-7.022,5.457
	c-0.149-2.451-0.251-4.905-0.461-7.352c-0.208-2.454-0.525-4.9-0.794-7.351c-0.588,0.054-1.177,0.107-1.765,0.161
	c0,1.847,0.148,3.708-0.046,5.538c-0.162,1.531-0.442,3.429-2.962,1.88c-0.761,2.39-1.521,4.779-2.282,7.168l0.038-0.055
	c-0.771,0.73-1.544,1.46-2.317,2.19l0.044-0.036c-2.809,0.349-5.157,0.959-3.058,4.398c0.199,0.326-0.059,0.901-0.105,1.36
	c-0.216,0.234-0.431,0.469-0.647,0.702l-0.019,0.014c-0.246,0.205-0.492,0.41-0.739,0.616c-1.328,1.186-4.779,0.417-3.819,3.708
	l0.045-0.048c-0.77,0.005-1.54,0.01-2.31,0.015l0.059,0.048c-0.779-0.494-1.559-0.985-2.339-1.479l0.072,0.039
	c-1.536-1.69-3.073-3.381-4.608-5.071l0.044,0.064c-0.778-0.734-1.556-1.47-2.334-2.205l0.068,0.045
	c-0.528-0.253-1.058-0.505-1.586-0.758l0.078,0.033c-2.295-0.037-4.59-0.073-6.885-0.11c-1.775,0.264-3.551,0.527-5.326,0.792
	l0.076,0.038c-2.322-0.863-4.572-2.04-6.977-2.527c-5.207-1.054-10.383-3.322-15.854-1.059l0.07-0.034
	c-0.778,0.493-1.558,0.984-2.337,1.479l0.056-0.052c-1.095,2.146-2.225,4.277-3.278,6.441c-1.979,4.07-3.916,8.16-5.939,12.387
	c-3.341-0.759-6.512-0.233-8.5,3.717c-0.726,1.442-2.415,2.688-3.974,3.467c-2.97,1.48-4.797,3.076-2.589,6.317l-0.037-0.066
	c-0.714,3.059-0.859,6.38-2.279,9.11c-1.971,3.787-1.633,5.683,2.503,7.512c1.359,0.602,2.427,1.789,3.628,2.71
	c-2.045,0.715-4.091,1.43-6.135,2.145c-2.482,0.638-5.8,2.534-7.276,1.658c-3.29-1.951-5.388-0.939-7.966,0.588
	c-0.804,0.476-1.909,0.5-2.875,0.73c-1.583,0.02-3.166,0.039-4.748,0.059c-3.372-0.423-4.729-2.185-5.313-5.427
	c-0.358-1.987-2.428-5.052-4.032-5.232c-4.859-0.548-7.998-1.719-7.282-7.034C27.885,102.254,27.463,102.127,27.243,102.024z
	 M102.987,58.376c0.144,0.745,0.288,1.491,0.431,2.236c0.487-0.49,0.973-0.979,1.459-1.468c-0.586-0.31-1.173-0.617-1.76-0.925
	c-1.007-0.488-2.015-0.977-3.023-1.465c-5.815-2.216-5.583-8.865-9.978-12.015c-0.57,3.247,4.152,9.825,9.206,12.669
	C100.543,57.732,101.765,58.056,102.987,58.376z M183.567,53.812c-0.795-0.673-1.592-1.348-2.388-2.021
	c-1.554-3.529,0.202-5.643,3.43-7.097c1.241-0.559,2.85-0.748,3.723-1.617c5.337-5.305,10.975-4.911,16.928-1.146
	c0.608,1.032,1.308,2.027,1.807,3.104c2.172,4.692,3.302,5.378,8.871,5.195c-1.104-0.525-8.162-6.478-9.185-7.688
	c-0.306-0.361-0.749-0.618-1.13-0.924c-3.372-3.429-7.638-4.506-12.054-2.793c-4.114,1.596-8.997,3.292-11.421,6.415
	c-2.78,3.581-5.941,5.454-9.944,6.853c-0.101,0.036-0.079,0.385,0.039-0.276c2.899,0,5.905,0,8.912,0
	c0.707,0.747,1.413,1.495,2.121,2.242c1.923,2.656,2.151-0.45,3.178-0.837c1.214,0.368,2.427,0.737,3.641,1.105
	c0.042-0.355,0.081-0.712,0.122-1.066c-1.242,0-2.484,0-3.727-0.001C185.515,53.443,184.542,53.627,183.567,53.812z"/>
<path fill="#939292" d="M234.995,97.731c-0.756-0.974-1.513-1.95-2.269-2.925c0.725-6.168,1.449-12.335,2.174-18.503
	c2.344-1.975,4.688-3.949,7.032-5.924c2.742,0.624,5.984,0.677,5.395,4.785c-0.077,0.533,0.911,1.282,1.531,1.798
	c0.453,0.377,1.587,0.509,1.605,0.797c0.381,5.987,5.339,2.722,8.177,3.7c0.556,0.191,0.989,0.7,1.479,1.062
	c0.205,2.025,0.408,4.051,0.613,6.076c-0.21,0.018-0.42,0.037-0.631,0.055c-0.19-0.594-0.381-1.188-0.572-1.784
	c-0.214-0.001-0.429-0.002-0.644-0.003c-0.116,0.847-0.235,1.693-0.352,2.54c-0.956,0.737-1.837,1.591-2.881,2.189
	c-2.705,1.55-3.288,3.074-0.2,4.791c0.983,0.922,1.968,1.845,2.952,2.767c-0.095,0.721-0.188,1.442-0.282,2.164
	c-0.369,0.567-0.739,1.136-1.109,1.703c-0.283,1.805-0.567,3.608-0.851,5.412c-1.244,0.929-2.489,1.858-3.734,2.787
	c-1.816,0.737-3.633,1.478-5.449,2.216c-0.183,0.18-0.365,0.36-0.548,0.54c-4.084,0.846-2.465-1.625-2.165-3.328
	c0.21-1.675,0.419-3.351,0.628-5.026c-0.219-1.142-0.25-2.355-0.693-3.413c-1.106-2.638-2.219-5.302-3.685-7.766
	c-0.966-1.624-2.55-2.92-3.858-4.362c-0.283,0.269-0.565,0.536-0.849,0.805c0.993,0.856,2.866,1.743,2.835,2.564
	c-0.189,4.937,4.218,7.867,5.493,12.099c-1.148,3.22-2.255,6.48-6.822,6.487c-0.434-0.111-1.121-0.445-1.265-0.301
	c-3.68,3.737-8.348,3.703-13.159,3.178c-2.363,0.898-4.82,2.693-7.064,2.479c-3.095-0.294-6.286-1.735-8.942-3.393
	c-1.872-1.167-2.922-3.511-4.339-5.328c1.206-0.34,2.411-0.677,3.616-1.017c0.527,0.521,1.054,1.04,1.581,1.561
	c1.33,0.784,2.694,2.278,3.983,2.223c4.285-0.186,8.543-0.929,12.812-1.458c3.891-2.548,8.241-4.67,9.758-9.417l-0.044,0.044
	C234.5,99.647,234.748,98.689,234.995,97.731z"/>
<path fill="#717171" d="M237.317,112.034c4.566-0.007,5.673-3.268,6.822-6.487c0.252,0.024,0.504,0.049,0.756,0.073
	c-0.209,1.676-0.418,3.352-0.627,5.026c-0.157-0.163-0.303-0.34-0.481-0.479c-0.035-0.027-0.255,0.063-0.287,0.138
	c-0.538,1.239-1.059,2.484-1.967,4.639c2.088-0.412,3.494-0.691,4.899-0.971c0.183-0.18,0.365-0.359,0.548-0.54
	c1.817-0.738,3.634-1.478,5.45-2.215c1.244-0.93,2.489-1.859,3.733-2.787c0.284-1.804,0.568-3.608,0.852-5.412
	c0.369-0.568,0.74-1.137,1.109-1.705c0.094-0.721,0.188-1.442,0.281-2.163c-0.984-0.922-1.968-1.845-2.951-2.767
	c-0.557-2.031-0.733-3.847,1.892-4.882c0.6-0.237,0.803-1.375,1.188-2.099c0.116-0.847,0.235-1.692,0.352-2.539
	c0.214,0,0.429,0.002,0.644,0.002c0.191,0.596,0.382,1.191,0.572,1.785c0.211-0.018,0.421-0.037,0.631-0.055
	c-0.205-2.025-0.408-4.051-0.613-6.076c3.849,3.314,3.991,5.229,0.669,11.818c2.492,0.677,4.477,1.495,3.287,4.851
	c-0.454,1.278,1.591,3.49,2.751,5.113c3.791,5.304,1.538,9.947-5.096,11.367c-4.439,0.949-8.577,3.177-13.021,4.091
	c-2.983,0.614-6.788,0.859-9.282-0.4c-3.217-1.625-5.709-0.293-7.525,0.835c-3.979,2.472-7.822,2.123-11.947,1.251
	c-0.596,0.178-1.194,0.354-1.791,0.532c-0.966-0.208-1.933-0.416-2.9-0.624c-0.28-0.027-0.56-0.054-0.84-0.081
	c-0.203-0.209-0.406-0.419-0.611-0.628c-0.825,0.199-1.65,0.4-2.475,0.6c-0.154-0.063-0.308-0.059-0.459,0.015
	c-1.813-0.912-3.625-1.823-5.438-2.736c-0.226-0.216-0.452-0.432-0.678-0.647c-1.321-2.135-2.832-4.193-3.834-6.454
	c-0.266-0.601,1.035-1.819,1.618-2.755c1.417,1.818,2.468,4.162,4.34,5.33c2.656,1.657,5.848,3.098,8.942,3.393
	c2.245,0.213,4.702-1.581,7.064-2.48C227.549,117.565,231.382,116.801,237.317,112.034z"/>
<path fill="#737373" d="M241.933,70.38c-2.345,1.975-4.688,3.949-7.032,5.923c-1.737-3.155-3.476-6.312-5.214-9.467l0.032,0.035
	c-1.528-0.732-3.055-1.465-4.583-2.196c0.766-0.77,2.254-1.608,2.179-2.296c-0.567-5.188,3.595-9.143,3.87-14.058
	c0.773,0.349,1.826,0.505,2.272,1.082c1.945,2.52,5.071,5.092,5.223,7.772c0.209,3.689,1.866,6.192,3.593,9.066
	C242.871,67.238,242.085,68.979,241.933,70.38z"/>
<path fill="#939292" d="M215.265,121.357c0.967,0.208,1.935,0.415,2.9,0.623C217.198,121.772,216.231,121.564,215.265,121.357z"/>
<path fill="#080808" d="M185.795,105.631c0.442,0.007,0.884,0.013,1.327,0.019C186.68,105.644,186.238,105.638,185.795,105.631z"/>
<path fill="#939292" d="M213.813,120.648c0.205,0.209,0.409,0.418,0.612,0.627C214.221,121.066,214.017,120.856,213.813,120.648z"/>
<path fill="#939292" d="M210.88,121.262c0.151-0.073,0.305-0.077,0.459-0.015C211.186,121.26,211.033,121.265,210.88,121.262z"/>
<path fill="#939292" d="M204.764,117.877c0.226,0.217,0.452,0.433,0.678,0.647C205.215,118.31,204.989,118.094,204.764,117.877z"/>
<path fill="#090909" d="M171.171,107.675c-1.506,0.492-3.012,0.984-4.518,1.479c-0.746,0.673-1.491,1.348-2.236,2.021
	c-2.304,2.912-4.606,5.822-6.909,8.733c-1.505,1.414-3.011,2.827-4.514,4.24c-2.602,1.85-5.085,3.878-7.841,5.492
	c-2.165,1.269-4.555,2.58-7.104,0.203c-1.027-0.958-2.591-1.402-3.91-2.08c-0.992-0.964-1.985-1.927-2.978-2.89
	c-1.594-2.889-3.147-5.798-4.802-8.655c-0.563-0.971-1.379-1.812-2.079-2.712c-2.015-0.492-4.029-0.983-6.043-1.475l-0.028,0.023
	c3.285,0.456,6.569,0.911,9.854,1.369c0.701,3.356,1.536,5.715,6.396,3.992c2.89-1.025,6.687-0.763,9.782-0.006
	c3.769,0.921,11.67,0.348,14.004-2.39c2.101-2.463,3.667-5.333,5.469-8.021C166.199,107.225,168.685,107.448,171.171,107.675z
	 M130.731,119.868c1.453,1.719,2.46,3.73,4.141,4.704c2.517,1.455,6.342,3.756,8.133,2.907c4.535-2.148,8.249-5.851,12.29-8.931
	c-0.208-0.319-0.418-0.639-0.626-0.958C147.288,123.523,138.811,115.236,130.731,119.868z"/>
<path fill="#6F6F6F" d="M128.825,162.27c-1.224,2.867-2.449,5.734-3.673,8.603c-1.81,3.346-3.618,6.692-5.425,10.038l0.036-0.049
	c-1.261,1.475-2.523,2.947-3.785,4.422c-0.379,0.202-0.757,0.405-1.136,0.608c-0.615,0.038-1.229,0.077-1.845,0.116
	c4.407-7.493,9.278-14.792,12.91-22.605c0.979-2.107,2.66-3.536,3.493-5.541C129.208,159.33,129.017,160.799,128.825,162.27z"/>
<path fill="#181818" d="M128.825,162.27c0.192-1.471,0.383-2.939,0.575-4.408c0.288-1.188,0.577-2.375,0.865-3.562
	c0.25,0.043,0.5,0.087,0.749,0.13c-0.116,1.371-0.23,2.743-0.287,3.409c4.714,0.455,9.261,1.119,13.813,1.156
	c0.993,0.009,2.604-2.104,2.89-3.438c0.646-3.017,0.642-6.157,0.901-9.248c0.373,0.035,0.745,0.07,1.118,0.105
	c-0.612,5.741-1.222,11.482-1.833,17.224c-0.24,0.002-0.479,0.011-0.718,0.026c0.425-2.749-1.425-3.315-3.714-3.461
	C137.828,157.354,133.184,158.924,128.825,162.27z"/>
<path fill="#212121" d="M157.036,149.261c0.119,2.191,0.225,4.384,3.454,4.437c0.183,0.004,0.54,0.578,0.511,0.605
	c-0.343,0.331-0.742,0.609-1.127,0.902c-5.636-1.463-3.385-6.285-5.093-9.421c0.342-0.127,0.685-0.253,1.027-0.38
	C156.216,146.689,156.626,147.976,157.036,149.261z"/>
<path fill="#272626" d="M146.897,163.663c0.238-0.016,0.478-0.024,0.718-0.025c-0.963,4.22-1.879,8.449-2.913,12.653
	c-0.328,1.335-0.967,2.603-1.466,3.899C143.863,174.564,142.939,168.631,146.897,163.663z"/>
<path fill="#686969" d="M90.16,193.787c-3.043-0.237-6.085-0.475-9.129-0.713C83.98,190.758,87.589,191.04,90.16,193.787z"/>
<path fill="#686969" d="M81.068,193.054c-2.393,1.197-4.786,2.396-7.178,3.594c-0.6,0.046-1.2,0.093-1.8,0.14
	c-0.092-0.082-0.183-0.165-0.274-0.25C74.899,195.376,77.983,194.215,81.068,193.054z"/>
<path fill="#181818" d="M133.38,191.63c-0.752-0.247-1.505-0.494-2.258-0.742c-3.05-2.022-6.102-4.045-9.151-6.067
	c0.248-0.329,0.496-0.658,0.742-0.987C126.27,186.432,129.825,189.031,133.38,191.63z"/>
<path fill="#1C1C1C" d="M119.727,180.91c1.808-3.346,3.617-6.692,5.424-10.038c-0.55,1.891-1.099,3.781-1.649,5.672
	c0.001,0,0.038,0.047,0.038,0.047C122.269,178.03,120.998,179.47,119.727,180.91z"/>
<path fill="#505050" d="M145.721,132.905c3.442,0,6.886,0,10.33,0c0.002,0.153,0.004,0.307,0.006,0.461c-3.419,0-6.837,0-10.255,0
	C145.775,133.212,145.748,133.059,145.721,132.905z"/>
<path fill="#222222" d="M160.072,140.655c-0.304,1.462-0.61,2.923-0.915,4.384c0-2.726,0-5.45,0-8.175
	c0.304,0.007,0.61,0.013,0.915,0.02C160.072,138.141,160.072,139.398,160.072,140.655z"/>
<path fill="#212121" d="M115.979,185.283c1.262-1.475,2.523-2.948,3.785-4.423C118.502,182.335,117.24,183.809,115.979,185.283z"/>
<path fill="#242424" d="M160.566,132.299c-0.565,0.977-1.13,1.954-1.694,2.93c-0.221-0.104-0.443-0.209-0.664-0.313
	c0.522-1.049,1.046-2.098,1.569-3.146C160.039,131.946,160.302,132.122,160.566,132.299z"/>
<path fill="#131313" d="M162.941,129.206c1.501,0.241,3.002,0.483,4.503,0.726c-1.539,0.139-3.079,0.277-4.618,0.416
	C162.864,129.966,162.902,129.586,162.941,129.206z"/>
<path fill="#1C1C1C" d="M129.593,176.542c-2.018,0.017-4.035,0.032-6.052,0.049c0,0-0.036-0.047-0.037-0.047
	c2.012,0.019,4.024,0.038,6.037,0.058L129.593,176.542z"/>
<path fill="#222222" d="M184.99,189.457c-1.258,0.772-2.515,1.544-3.773,2.316c-0.262-0.283-0.522-0.563-0.783-0.847
	C181.952,190.438,183.471,189.947,184.99,189.457z"/>
<path fill="#1C1C1C" d="M109.835,190.194c-0.474-0.222-0.948-0.444-1.422-0.666c0.547-0.17,1.094-0.34,1.641-0.51
	C109.981,189.411,109.908,189.803,109.835,190.194z"/>
<path fill="#1F2020" d="M112.998,186.007c0.617-0.039,1.23-0.077,1.845-0.116c-0.893,0.702-1.784,1.407-2.676,2.11
	c-0.15-0.151-0.299-0.302-0.448-0.453C112.145,187.035,112.571,186.521,112.998,186.007z"/>
<path fill="#141414" d="M156.885,195.92c-0.286-0.247-0.572-0.494-0.858-0.74c0.18-0.367,0.359-0.734,0.539-1.103
	C156.673,194.691,156.779,195.306,156.885,195.92z"/>
<path fill="#191918" d="M136.416,135.7c0.251-0.549,0.502-1.097,0.753-1.646c0.173,0.114,0.345,0.228,0.519,0.341
	c-0.425,0.434-0.85,0.867-1.276,1.3L136.416,135.7z"/>
<path fill="#373737" d="M135.723,137.359c-0.227,0.691-0.455,1.384-0.682,2.076c-0.102-0.097-0.204-0.191-0.305-0.285
	c0.225-0.695,0.449-1.391,0.674-2.084C135.556,137.125,135.66,137.223,135.723,137.359z"/>
<path fill="#0D0D0D" d="M136.412,135.695c-0.23,0.554-0.459,1.107-0.689,1.662c-0.063-0.135-0.167-0.232-0.313-0.291
	c0.335-0.456,0.67-0.912,1.007-1.366L136.412,135.695z"/>
<path fill="#171617" d="M131.086,177.319c0.291,0.069,0.58,0.139,0.87,0.208c-0.053,0.086-0.107,0.173-0.159,0.26
	c-0.221-0.174-0.441-0.349-0.662-0.523L131.086,177.319z"/>
<path fill="#111111" d="M129.54,176.602c0.516,0.238,1.03,0.478,1.546,0.717c0,0.001,0.048-0.055,0.048-0.055
	c-0.513-0.24-1.027-0.48-1.54-0.722C129.593,176.542,129.54,176.602,129.54,176.602z"/>
<path fill="#373737" d="M135.041,139.436c-0.102-0.095-0.203-0.189-0.305-0.285C134.837,139.244,134.939,139.339,135.041,139.436z"
	/>
<path fill="#080808" d="M146.996,177.244c-0.079,0.117-0.156,0.234-0.235,0.352c0.008-0.064-0.01-0.16,0.028-0.188
	c0.076-0.055,0.181-0.071,0.274-0.104C147.063,177.303,146.996,177.244,146.996,177.244z"/>
<path fill="#959494" d="M122.82,102.731c-3.335,0.711-6.671,1.422-10.006,2.134c-1.888,0.062-3.833-0.133-5.652,0.233
	c-4.469,0.9-9.218,0.838-13.28,3.296c-0.405,0.245-1.216-0.156-1.843-0.183c-1.69-0.07-3.397,0.017-5.068-0.176
	c-2.303-0.267-4.585-0.718-6.87-1.119c-0.969-0.169-1.923-0.411-2.885-0.619c-2.702-2.062-7.071-2.715-6.846-7.247
	c-0.239-1.18-0.48-2.36-0.721-3.541l0.036,0.066c-0.279-2.826,0.561-5.236,3.861-5.502c2.664-0.215,2.9-1.815,3.894-3.509
	c0.939-1.604,2.899-3.02,4.74-3.632c0.734-0.244,2.353,1.886,3.329,2.729c2.641-6.999,5.549-14.707,8.458-22.415l-0.055,0.052
	c0.779-0.494,1.558-0.985,2.337-1.479l-0.07,0.034c4.53,0.377,9.06,0.747,13.588,1.143c0.361,0.032,0.854,0.132,1.036,0.371
	c2.155,2.804,5.275,2.086,8.206,2.073l-0.075-0.039c0.847,1.213,1.694,2.425,1.927,2.759c1.241-1.033,2.326-1.936,3.411-2.839
	c2.291-0.199,4.582-0.4,6.874-0.6l-0.077-0.034c0.529,0.254,1.058,0.506,1.586,0.759l-0.068-0.045
	c0.778,0.735,1.556,1.47,2.334,2.204l-0.045-0.063c0.169,2.801,0.148,5.755,4.609,5.071l-0.072-0.039
	c0.78,0.493,1.559,0.984,2.339,1.479l-0.06-0.048c0.263,0.964,0.525,1.928,0.788,2.891c-0.25,1.205-0.499,2.41-0.749,3.614
	c0.042,0.932-0.251,2.051,0.191,2.759c0.971,1.554,1.778,10.904,0.751,12.308c-0.278,0.379-0.688,0.938-1.055,0.95
	c-3.267,0.113-4.104,2.597-5.326,4.72c-0.478,0.447-0.955,0.894-1.433,1.341c-0.746,0.281-1.492,0.563-2.238,0.844
	c-1.536-0.231-3.073-0.463-4.61-0.694C126.286,100.515,124.552,102.409,122.82,102.731z"/>
<path fill="#464646" d="M163.713,106.999c-1.801,2.689-3.368,5.56-5.468,8.022c-2.334,2.737-10.236,3.311-14.004,2.39
	c-3.095-0.757-6.894-1.02-9.782,0.005c-4.859,1.723-5.695-0.636-6.396-3.992l-0.036,0.054c2.256-0.284,4.514-0.553,6.769-0.855
	c1.564-0.211,3.123-0.468,4.683-0.704c1.212-0.578,2.424-1.157,3.637-1.735c0.104,0.2,0.208,0.4,0.312,0.602
	c-0.481,0.524-0.964,1.05-1.445,1.575c1.099,0.728,2.232,2.1,3.29,2.05c2.293-0.106,4.553-0.922,6.817-1.485
	c1.241-0.31,2.637-0.446,3.654-1.094c2.172-1.386,4.153-3.042,6.185-4.618c0.245-0.19,0.324-0.574,0.478-0.867
	C162.841,106.561,163.277,106.78,163.713,106.999z"/>
<path fill="#090909" d="M109.113,121.989c-2.286-3.076-4.572-6.153-6.858-9.23c0.79-2.243,2.167-3.033,4.76-2.302
	c1.584,0.447,3.409,0.133,5.126,0.161l-0.033-0.015c-1.45,0.231-2.989,0.255-4.319,0.765c-0.899,0.344-2.132,1.368-2.138,2.097
	c-0.038,4.328,4.309,7.018,8.814,5.652c0.245-0.912,0.49-1.825,0.734-2.736c0.223,0.014,0.446,0.035,0.667,0.064
	c1.243,2.613,2.485,5.228,3.728,7.84l0.027,0.033c-0.194,0.413-0.388,0.826-0.582,1.24
	C115.731,124.368,112.422,123.179,109.113,121.989z"/>
<path fill="#1C1C1C" d="M162.296,98.408c-0.109-0.458-0.219-0.916-0.134-0.562c2.846,0.134,5.781,0.263,8.714,0.415
	c0.484,0.025,1.106,0.003,1.419,0.266c6.042,5.057,10.993,1.173,16.101-1.672c0.462-0.258,1.121-0.266,1.689-0.264
	c0.352,0,0.748,0.413,1.046,0.344c5.786-1.351,11.566,3.344,17.338,0.003c-2.234,3.173-5.211,3.044-8.63,1.985
	c-4.118-1.275-8.019-0.817-12.318,0.464c-4.869,1.449-10.165,5.146-15.559,0.649c-0.523-0.436-1.621-0.235-2.442-0.374
	C167.11,99.257,164.704,98.828,162.296,98.408z"/>
<path fill="#202020" d="M77.215,106.298c0.961,0.208,1.916,0.45,2.885,0.619c2.285,0.401,4.567,0.852,6.87,1.119
	c1.672,0.193,3.378,0.105,5.068,0.176c0.627,0.026,1.438,0.428,1.843,0.183c4.061-2.458,8.811-2.396,13.28-3.296
	c1.819-0.366,3.765-0.172,5.652-0.233c-3.663,0.695-7.322,1.4-10.992,2.065c-0.337,0.061-0.919-0.323-1.066-0.189
	c-3.848,3.529-8.618,1.95-13.088,2.334C83.652,109.419,80.161,109.056,77.215,106.298z"/>
<path fill="#1E1E1E" d="M136.296,101.247c1.221-2.123,2.059-4.606,5.326-4.72c0.366-0.013,0.776-0.571,1.055-0.95
	c1.027-1.403,0.22-10.754-0.751-12.308c-0.442-0.708-0.149-1.827-0.191-2.759c0.482,0.244,0.964,0.488,1.445,0.731
	c2.756,1.742,5.619,3.354,8.21,5.294c0.922,0.689,1.18,2.172,1.741,3.294c-1.89-1.211-3.804-2.389-5.658-3.645
	c-1.161-0.785-2.233-1.689-3.427-2.602c0,3.334,1.003,7.354-0.297,10.528C142.576,96.972,138.878,98.905,136.296,101.247z"/>
<path fill="#191919" d="M229.688,66.836c1.737,3.155,3.476,6.312,5.213,9.467c-0.725,6.169-1.449,12.336-2.174,18.504
	c-0.628,0.361-1.256,0.724-2.143,1.233c2.3-4.447,1.088-9.189,2.04-13.083c1.238-5.054-1-8.298-2.201-12.276
	C230.047,69.435,229.925,68.12,229.688,66.836z"/>
<path fill="#1B1B1B" d="M208.425,96.976c1.25-0.709,2.42-1.817,3.765-2.06c5.867-1.062,7.5-4.054,4.667-8.818
	c-0.302-0.51-0.229-1.717,0.169-2.021c3.538-2.727,3.78-6.202,2.832-10.017c2.979,3.121,1.422,6.056-0.286,9.083
	c-0.549,0.975-1.057,2.402-0.706,3.324c1.678,4.404,0.133,7.678-4.636,9.038C212.315,96.052,210.362,96.488,208.425,96.976z"/>
<path fill="#171717" d="M27.243,102.024c0.22,0.103,0.643,0.229,0.633,0.304c-0.716,5.315,2.421,6.486,7.282,7.034
	c1.604,0.181,3.673,3.245,4.031,5.232c0.584,3.242,1.941,5.004,5.313,5.427c1.311,0.196,2.621,0.392,3.931,0.588
	c0,0.223,0,0.444-0.001,0.667c-6.681,0.262-7.561-0.596-10.298-6.596c-0.987-2.165-2.34-4.736-6.025-4.897
	C27.711,109.59,26.858,107.845,27.243,102.024z"/>
<path fill="#1B1B1B" d="M69.649,95.51c0.24,1.181,0.481,2.361,0.721,3.541c-0.411,0.563-1.308,1.328-1.154,1.659
	c1.184,2.557-0.397,4.022-1.715,6.055c-1.568,2.42,1.112,3.492,3.197,4.462c1.445,0.673,2.695,1.725,4.031,2.606
	c-0.409,0.336-0.817,0.673-1.226,1.009c-1.202-0.92-2.27-2.108-3.628-2.709c-4.137-1.829-4.474-3.725-2.504-7.513
	C68.79,101.891,68.935,98.568,69.649,95.51z"/>
<path fill="#191918" d="M48.431,121.276c0-0.223,0.001-0.444,0.001-0.667c0.272-0.216,0.545-0.432,0.817-0.646
	c0.966-0.23,2.07-0.254,2.875-0.73c2.578-1.527,4.677-2.539,7.966-0.588c1.477,0.877,4.794-1.021,7.276-1.658
	c0.025,0.401,0.169,1.119,0.056,1.156c-1.969,0.662-4.402,2.233-5.881,1.656C56.672,117.896,52.728,120.431,48.431,121.276z"/>
<path fill="#272626" d="M225.137,64.675c1.527,0.731,3.054,1.464,4.582,2.196c-1.788-0.212-3.578-0.424-5.366-0.635
	c-2.495-4.333-4.989-8.666-7.484-12.998c0.283-0.138,0.565-0.275,0.848-0.413C220.19,56.775,222.663,60.724,225.137,64.675z"/>
<path fill="#1F2020" d="M224.538,109.979c-4.269,0.529-8.526,1.271-12.812,1.457c-1.29,0.056-2.654-1.438-3.983-2.222
	c5.309,2.547,10.666,0.406,16.002,0.145C224.01,109.565,224.274,109.771,224.538,109.979z"/>
<path fill="#171617" d="M224.538,109.979c-0.264-0.207-0.528-0.413-0.792-0.619c2.587-2.905,7.529-3.482,8.679-7.875
	c0.112-0.427,1.224-0.621,1.871-0.923C232.779,105.309,228.429,107.43,224.538,109.979z"/>
<path fill="#0C0C0C" d="M139.477,111.916c-1.561,0.236-3.118,0.494-4.683,0.704c-2.255,0.304-4.512,0.573-6.769,0.855
	c2.546-0.949,5.093-1.898,7.639-2.849l-0.047-0.052C136.904,111.022,138.19,111.469,139.477,111.916z"/>
<path fill="#121212" d="M153.098,89.767c0.997,2.879,1.994,5.757,2.991,8.637l-0.356,0.015l-0.355-0.001l-0.011-0.009
	C154.611,95.528,153.854,92.647,153.098,89.767z"/>
<path fill="#202020" d="M155.378,98.417c-1.851,1.615-3.703,3.231-5.556,4.847c-0.274-0.308-0.55-0.615-0.826-0.923
	c2.124-1.311,4.249-2.621,6.372-3.932L155.378,98.417z"/>
<path fill="#1E1E1E" d="M122.82,102.731c1.732-0.322,3.466-2.218,5.194,0.006C126.283,102.735,124.552,102.733,122.82,102.731z"/>
<path fill="#1C1C1C" d="M112.141,110.617c1.259-1.366,2.513-3.562,3.796-0.018l0.003-0.005c-0.791-0.027-1.581-0.057-2.372-0.084
	c-0.488,0.03-0.974,0.062-1.461,0.093L112.141,110.617z"/>
<path fill="#1B1B1B" d="M135.665,110.627c0.498-0.499,0.998-0.999,1.497-1.497c0.13,0.186,0.259,0.37,0.388,0.554
	c-0.644,0.298-1.287,0.595-1.931,0.892L135.665,110.627z"/>
<path fill="#171617" d="M132.625,103.432c0.746-0.281,1.492-0.563,2.238-0.844C134.117,102.869,133.37,103.15,132.625,103.432z"/>
<path fill="#0A0A0A" d="M234.995,97.731c-0.247,0.958-0.494,1.916-0.742,2.874C234.5,99.647,234.748,98.689,234.995,97.731z"/>
<path fill="#1C1C1C" d="M116.691,111.32c0.506,0.245,1.012,0.49,1.518,0.733l0.028-0.023c-0.514-0.239-1.026-0.479-1.538-0.718
	L116.691,111.32z"/>
<path fill="#080808" d="M94.724,114.758c-0.241,0.06-0.481,0.119-0.723,0.178C94.248,114.896,94.488,114.836,94.724,114.758z"/>
<path fill="#1C1C1C" d="M115.937,110.6c0.251,0.24,0.503,0.48,0.754,0.721c0,0,0.008-0.008,0.008-0.008
	c-0.253-0.239-0.506-0.478-0.759-0.718L115.937,110.6z"/>
<path fill="#080808" d="M96.25,114.162c-0.278,0.002-0.554,0.004-0.833,0.005C95.694,114.166,95.972,114.164,96.25,114.162z"/>
<path fill="#979797" d="M109.839,196.736c1.129,1.02,2.258,2.04,3.387,3.061c-0.141,0.233-0.282,0.468-0.422,0.702
	c-4.761-1.497-9.521-2.994-14.282-4.491C102.294,196.25,106.067,196.492,109.839,196.736z"/>
<path fill="#080808" d="M109.839,196.736c-3.772-0.244-7.545-0.486-11.317-0.729c-0.265-0.032-0.528-0.063-0.792-0.095l0.047,0.059
	C102.018,193.135,105.904,195.277,109.839,196.736z"/>
<path fill="#080808" d="M188.03,193.753c-0.775,0.501-1.55,1.002-2.325,1.503c0.021-0.242,0.044-0.484,0.067-0.727
	C186.524,194.271,187.278,194.012,188.03,193.753z"/>
<path fill="#1D1D1D" d="M176.582,195.899c0,0.573,0,1.146,0,1.718c-0.19-0.031-0.38-0.061-0.57-0.091
	c0.208-0.524,0.415-1.05,0.622-1.573L176.582,195.899z"/>
<path fill="#080808" d="M185.752,195.191c-0.08,0.408-0.162,0.816-0.243,1.225C185.59,196.008,185.672,195.6,185.752,195.191z"/>
<path fill="#080808" d="M95.348,197.312c-0.735,0.027-1.468,0.057-2.201,0.084C93.881,197.367,94.614,197.339,95.348,197.312z"/>
<path fill="#1D1D1D" d="M177.546,195.261c-0.076,0.222-0.133,0.448-0.171,0.678c-0.264-0.013-0.527-0.026-0.792-0.039
	c0-0.001,0.051,0.053,0.051,0.053C176.938,195.723,177.242,195.491,177.546,195.261z"/>
<path fill="#080808" d="M130.378,196.663c0.049-0.19,0.098-0.381,0.146-0.573c-0.064,0.177-0.129,0.353-0.194,0.529L130.378,196.663
	z"/>
<path fill="#080808" d="M128.862,198.814c0.247-0.474,0.493-0.947,0.74-1.422l-0.047-0.046c-0.246,0.475-0.492,0.949-0.739,1.423
	L128.862,198.814z"/>
<path fill="#080808" d="M97.73,195.913c-0.169,0.139-0.339,0.279-0.508,0.418c0.185-0.121,0.37-0.24,0.555-0.36
	C97.777,195.971,97.73,195.913,97.73,195.913z"/>
<path fill="#080808" d="M130.33,196.619c-0.258,0.243-0.517,0.485-0.775,0.729l0.047,0.046c0.259-0.243,0.518-0.485,0.776-0.729
	L130.33,196.619z"/>
<path fill="#080808" d="M128.816,198.771c-0.255,0.244-0.511,0.489-0.767,0.733c0,0,0.04,0.037,0.04,0.038
	c0.257-0.242,0.515-0.484,0.773-0.728L128.816,198.771z"/>
<path fill="#969696" d="M157.508,119.906c2.303-2.91,4.605-5.82,6.909-8.732c3.632,1.279,7.264,2.56,10.896,3.839
	c-0.07,0.519-0.142,1.037-0.211,1.556c-1.418,0.438-2.837,0.876-3.542,1.094c-0.734,1.944-1.347,3.57-1.96,5.194
	c-1.162-0.537-2.27-1.306-3.496-1.563C163.269,120.699,160.377,120.354,157.508,119.906z"/>
<path fill="#6F6F6F" d="M115.94,110.595c0.252,0.24,0.506,0.479,0.759,0.718c0.512,0.239,1.025,0.479,1.538,0.718
	c2.015,0.492,4.028,0.982,6.043,1.475c-0.788,0.354-1.72,0.563-2.334,1.097c-1.311,1.14-2.458,2.449-3.673,3.689
	c1.72,0.9,3.424,1.83,5.173,2.675c0.357,0.173,0.886,0.024,2.299,0.024c-2.603,1.393-4.376,2.344-6.15,3.293
	c-1.244-2.613-2.486-5.226-3.728-7.839c-0.223-0.021-0.446-0.044-0.668-0.065c-0.244,0.912-0.489,1.824-0.734,2.737
	c-0.299-2.869-0.597-5.738-0.897-8.607C114.359,110.538,115.149,110.567,115.94,110.595z"/>
<path fill="#080808" d="M159.136,160.033c-0.073,0.186-0.145,0.37-0.217,0.554c0.089-0.169,0.178-0.34,0.268-0.509
	C159.187,160.078,159.136,160.033,159.136,160.033z"/>
<path fill="#191918" d="M72.09,196.787c0.6-0.047,1.2-0.094,1.8-0.14c-1.154,0.97-2.308,1.939-3.461,2.909
	C70.983,198.633,71.536,197.71,72.09,196.787z"/>
<path fill="#1F2020" d="M68.871,202.318c0.533-0.936,1.064-1.871,1.597-2.807C69.936,200.447,69.404,201.383,68.871,202.318z"/>
<path fill="#969696" d="M109.113,121.989c3.31,1.189,6.619,2.379,9.927,3.568c-0.59,0.451-1.358,1.396-1.744,1.272
	c-2.479-0.793-4.874-1.821-7.295-2.773C109.706,123.368,109.41,122.679,109.113,121.989z"/>
<path fill="#737373" d="M143.178,81.243c-0.481-0.244-0.963-0.488-1.445-0.731c0.25-1.205,0.499-2.41,0.749-3.614
	c0.507-0.969,1.014-1.938,1.521-2.906l-0.045,0.049c1.589-1.151,3.177-2.302,4.766-3.453c0.639-0.938,1.407-1.82,1.884-2.827
	c0.689-1.459,1.168-3.008,1.737-4.52l-0.044,0.036c0.773-0.73,1.545-1.46,2.317-2.19l-0.038,0.056
	c0.761-2.39,1.521-4.778,2.282-7.169c2.52,1.549,2.799-0.349,2.962-1.879c0.194-1.83,0.046-3.691,0.046-5.539
	c0.588-0.053,1.176-0.105,1.765-0.16c0.269,2.45,0.585,4.896,0.794,7.351c0.209,2.446,0.312,4.9,0.461,7.351
	c-0.857,1.257-1.622,2.583-2.595,3.751c-1.032,1.239-2.261,2.329-3.405,3.484l0.035-0.06c-0.514,1.896-1.028,3.792-1.542,5.689
	c-0.839,1.352-1.341,3.329-2.586,3.93C149.775,79.349,146.407,80.167,143.178,81.243z"/>
<path fill="#1F2020" d="M93.966,63.247c-2.908,7.708-5.817,15.416-8.458,22.415c-0.976-0.843-2.595-2.973-3.329-2.729
	c-1.841,0.612-3.801,2.028-4.74,3.632c-0.994,1.692-1.23,3.294-3.894,3.509c-3.3,0.266-4.14,2.675-3.861,5.502
	c-2.207-3.241-0.38-4.836,2.59-6.317c1.561-0.778,3.248-2.024,3.974-3.467c1.988-3.95,5.159-4.476,8.5-3.717
	c2.023-4.227,3.959-8.317,5.939-12.387C91.741,67.524,92.871,65.393,93.966,63.247z"/>
<path fill="#202020" d="M205.26,41.931c-5.954-3.767-11.591-4.161-16.928,1.145c-0.873,0.869-2.482,1.06-3.723,1.617
	c-3.228,1.454-4.983,3.568-3.429,7.098c-0.001,0-0.026,0.026-0.026,0.026c-3.006,0-6.013,0-8.912,0
	c-0.118,0.66-0.139,0.312-0.038,0.275c4.002-1.397,7.164-3.271,9.943-6.853c2.424-3.123,7.308-4.819,11.422-6.415
	c4.415-1.713,8.68-0.636,12.053,2.794C205.499,41.72,205.377,41.824,205.26,41.931z"/>
<path fill="#1F2020" d="M119.009,65.441c-2.93,0.014-6.051,0.73-8.206-2.073c-0.183-0.239-0.676-0.339-1.036-0.371
	c-4.529-0.396-9.059-0.765-13.589-1.143c5.472-2.264,10.648,0.005,15.854,1.059C114.438,63.4,116.688,64.577,119.009,65.441z"/>
<path fill="#1E1E1E" d="M156.891,68.332c1.144-1.155,2.373-2.246,3.405-3.484c0.974-1.169,1.739-2.494,2.596-3.751
	c2.434-1.892,4.867-3.782,7.021-5.456c-0.2,1.506,0.666,4.317-3.549,4.347c-0.629,0.005-1.768,0.666-1.801,1.085
	C164.198,65.625,159.341,65.833,156.891,68.332z"/>
<path fill="#1F2020" d="M99.321,57.409c-5.054-2.844-9.776-9.422-9.206-12.669c4.396,3.149,4.164,9.799,9.979,12.015
	C99.836,56.974,99.579,57.191,99.321,57.409z"/>
<path fill="#242424" d="M205.622,41.618c0.381,0.306,0.824,0.563,1.129,0.924c1.024,1.211,8.081,7.162,9.185,7.688
	c-5.569,0.183-6.699-0.503-8.871-5.195c-0.498-1.077-1.198-2.072-1.806-3.104C205.377,41.824,205.499,41.72,205.622,41.618z"/>
<path fill="#272727" d="M152.345,63.239c-0.569,1.511-1.047,3.061-1.737,4.52c-0.476,1.007-1.246,1.89-1.883,2.827l-0.244-0.231
	c0.009-0.214,0.021-0.427,0.036-0.64l0.019-0.014c0.215-0.234,0.431-0.469,0.647-0.702c0.046-0.46,0.304-1.035,0.104-1.36
	C147.188,64.199,149.536,63.589,152.345,63.239z"/>
<path fill="#191919" d="M124.272,65.322c-1.084,0.902-2.169,1.806-3.411,2.838c-0.233-0.334-1.08-1.545-1.927-2.758
	c1.775-0.264,3.551-0.528,5.325-0.792C124.264,64.849,124.268,65.085,124.272,65.322z"/>
<path fill="#515151" d="M83.271,54.006c1.644,0,3.287,0,4.931,0c-0.015,0.416-0.03,0.831-0.046,1.247
	c-1.611-0.178-3.223-0.355-4.833-0.532C83.325,54.481,83.309,54.242,83.271,54.006z"/>
<path fill="#080808" d="M83.271,54.006c0.039,0.236,0.055,0.476,0.051,0.715c-1.769-1.698-3.537-3.397-5.306-5.096
	c0,0-0.05,0.06-0.052,0.06c1.022,0.824,2.045,1.647,3.064,2.476C81.779,52.771,82.523,53.391,83.271,54.006z"/>
<path fill="#191919" d="M139.486,72.614c-4.46,0.684-4.439-2.271-4.609-5.071C136.413,69.233,137.949,70.924,139.486,72.614z"/>
<path fill="#1A1A1A" d="M156.862,53.972c-0.761,2.391-1.521,4.779-2.282,7.169C155.341,58.751,156.102,56.362,156.862,53.972z"/>
<path fill="#1E1E1E" d="M148.724,70.586c-1.589,1.151-3.177,2.303-4.766,3.453c-0.961-3.291,2.49-2.523,3.819-3.709l0.35,0.027
	l0.353-0.004L148.724,70.586z"/>
<path fill="#1E1E1E" d="M124.272,65.322c-0.004-0.237-0.008-0.474-0.013-0.711c2.295,0.037,4.591,0.073,6.885,0.11
	C128.854,64.922,126.563,65.123,124.272,65.322z"/>
<path fill="#181818" d="M155.385,73.961c0.515-1.897,1.028-3.793,1.542-5.689C156.413,70.168,155.899,72.064,155.385,73.961z"/>
<path fill="#383938" d="M186.49,53.26c1.241,0,2.482,0,3.725,0c-0.041,0.355-0.08,0.711-0.121,1.066
	c-1.215-0.368-2.427-0.736-3.642-1.105L186.49,53.26z"/>
<path fill="#1E1E1E" d="M186.453,53.221c-1.027,0.387-1.255,3.494-3.178,0.837c0.104-0.075,0.203-0.158,0.294-0.248
	c0.974-0.183,1.947-0.367,2.921-0.551C186.49,53.26,186.453,53.221,186.453,53.221z"/>
<path fill="#0E0E0E" d="M99.321,57.409c0.258-0.218,0.516-0.436,0.773-0.654c1.008,0.488,2.016,0.977,3.023,1.465l-0.132,0.159
	C101.765,58.056,100.543,57.732,99.321,57.409z"/>
<path fill="#191918" d="M144.003,73.99c-0.507,0.969-1.014,1.938-1.521,2.906c-0.263-0.963-0.525-1.928-0.788-2.891
	C142.463,74.001,143.234,73.996,144.003,73.99z"/>
<path fill="#737373" d="M49.25,119.963c-0.272,0.216-0.545,0.432-0.817,0.646c-1.31-0.196-2.62-0.392-3.931-0.588
	C46.084,120.002,47.667,119.982,49.25,119.963z"/>
<path fill="#272626" d="M183.273,54.058c-0.707-0.747-1.414-1.494-2.121-2.241c0,0,0.024-0.026,0.026-0.026
	c0.796,0.674,1.593,1.348,2.388,2.021C183.477,53.9,183.378,53.982,183.273,54.058z"/>
<path fill="#242424" d="M103.118,58.22c0.587,0.308,1.174,0.615,1.76,0.925c-0.487,0.489-0.973,0.978-1.459,1.468
	c-0.144-0.745-0.287-1.491-0.432-2.234C102.986,58.379,103.118,58.22,103.118,58.22z"/>
<path fill="#1E1E1E" d="M154.618,61.085c-0.772,0.731-1.544,1.46-2.317,2.191C153.074,62.545,153.846,61.816,154.618,61.085z"/>
<path fill="#1B1B1B" d="M134.921,67.606c-0.778-0.734-1.556-1.469-2.334-2.204C133.366,66.138,134.144,66.872,134.921,67.606z"/>
<path fill="#1C1C1C" d="M141.753,74.054c-0.78-0.494-1.56-0.985-2.339-1.479C140.194,73.068,140.973,73.561,141.753,74.054z"/>
<path fill="#1F2020" d="M96.248,61.82c-0.779,0.493-1.559,0.985-2.337,1.479C94.689,62.806,95.469,62.313,96.248,61.82z"/>
<path fill="#1E1E1E" d="M132.655,65.446c-0.529-0.253-1.058-0.505-1.586-0.758C131.598,64.941,132.126,65.194,132.655,65.446z"/>
<path fill="#737373" d="M149.182,68.999c-0.215,0.233-0.432,0.469-0.647,0.702C148.75,69.468,148.967,69.233,149.182,68.999z"/>
<path fill="#737373" d="M148.48,70.354l-0.353,0.003l-0.35-0.026c0.246-0.205,0.492-0.41,0.739-0.616
	C148.501,69.928,148.49,70.141,148.48,70.354z"/>
<path fill="#222222" d="M244.896,105.62c-0.252-0.023-0.504-0.048-0.756-0.073c-1.277-4.231-5.683-7.162-5.493-12.099
	c0.03-0.821-1.843-1.708-2.835-2.564c0.283-0.269,0.565-0.536,0.848-0.805c1.31,1.442,2.893,2.738,3.859,4.362
	c1.467,2.465,2.577,5.128,3.684,7.766C244.646,103.265,244.678,104.479,244.896,105.62z"/>
<path fill="#242424" d="M237.317,112.034c-5.936,4.767-9.769,5.531-14.423,2.877c4.811,0.525,9.478,0.56,13.158-3.178
	C236.195,111.589,236.883,111.923,237.317,112.034z"/>
<path fill="#1D1D1D" d="M258.535,89.405c-0.386,0.724-0.588,1.861-1.188,2.098c-2.625,1.035-2.449,2.852-1.892,4.883
	c-3.088-1.717-2.507-3.241,0.199-4.791C256.699,90.996,257.58,90.143,258.535,89.405z"/>
<path fill="#171617" d="M246.434,113.974c-1.406,0.279-2.812,0.558-4.899,0.971c0.908-2.154,1.43-3.399,1.966-4.639
	c0.033-0.074,0.252-0.165,0.288-0.138c0.178,0.139,0.324,0.315,0.481,0.479C243.969,112.349,242.351,114.819,246.434,113.974z"/>
<path fill="#171617" d="M252.431,111.219c-1.816,0.737-3.633,1.477-5.45,2.215C248.798,112.695,250.614,111.956,252.431,111.219z"/>
<path fill="#0B0B0B" d="M257.016,103.02c-0.283,1.805-0.567,3.608-0.852,5.412C256.448,106.628,256.732,104.823,257.016,103.02z"/>
<path fill="#121212" d="M258.406,99.152c-0.094,0.721-0.188,1.441-0.281,2.163C258.219,100.595,258.313,99.873,258.406,99.152z"/>
<path fill="#474747" d="M113.568,110.511c0.3,2.868,0.598,5.737,0.897,8.606c-4.506,1.365-8.854-1.324-8.815-5.652
	c0.006-0.729,1.239-1.752,2.138-2.097c1.33-0.51,2.869-0.533,4.319-0.765C112.594,110.572,113.081,110.541,113.568,110.511z"/>
<path fill="#474747" d="M115.198,116.38c0.222,0.021,0.445,0.044,0.668,0.065C115.644,116.416,115.421,116.394,115.198,116.38z"/>
</svg>
