<svg xmlns="http://www.w3.org/2000/svg" width="316.084" height="134" viewBox="0 0 316.084 134"><path fill="none" d="M155.84 171.668c-96.31 0-192.62-.002-288.928.037-1.415.002-1.802-.283-1.8-1.875.044-67.658.043-135.317.008-202.975 0-1.32.13-1.74 1.54-1.74 192.943.047 385.885.046 578.823.016 1.174 0 1.507.226 1.507 1.56-.037 67.795-.04 135.59.008 203.386.005 1.537-.44 1.623-1.647 1.623-96.504-.034-193.007-.032-289.51-.032zM10.584 65.886c-4.07.907-1.377 4.936-2.858 7.086-.655.95.09 1.953.688 2.764.273.367.642.686 1.024.924 2.312 1.45 4.73 1.7 7.188.504.912-.443 1.737-.787 2.642-.074 1.806 1.426 3.727 2.244 5.998 1.332.12-.045.332.174.502.262 1.837.953 3.694.695 5.637.344 2.54-.46 5.162-1.62 7.638.428.524.436 1.336.584 2.045.367 2.086-.643 4.307.076 6.368-.748 1.222.676 2.338.088 3.53-.215 2.097-.535 4.32-.547 6.217-1.867.165-.113.497.016.74.076 2.46.595 6.195 5.5 6.155 8.22-.08 5.268-2 10.016-3.817 14.785-1.965 5.166-5.443 8.54-10.473 10.158-2.066.662-4.176.955-6.295 1.04-2.633.11-4.838 1.155-6.414 3.288-1.717 2.325-3.856 3.776-6.447 4.63-2.71.89-4.236 3.277-5.88 5.457-.702.928-.158 1.564.91 1.48.78-.06 1.466-.47 2.143-.887 1.325-.822 2.706-1.502 4.297-1.688.142 1.197-.236 3.06 1.706 2.13 2.266-1.085 4.728-1.95 6.377-4.12 1.74-2.29 4.002-1.814 6.782-1.646-3.41 3.057-3.135 7.918-6.29 10.648-.32.277-.38.734-.106 1.115.328.462.78.37 1.233.23 1.778-.56 3.275-1.558 4.476-3.09 1.504-1.917 3.386-3.138 5.775-3.368 1.242-.117 2.322-.74 3.46-1.223 2.856-1.208 5.705-2.9 8.672-3.235 6.03-.678 12.142-.318 18.146.72 2.815.485 5.448.21 8.214-.333 4.185-.818 8.42-2.213 12.712-.182 1.207.572 2.624.69 3.96.895 1.348.21 2.054-.71 1.264-1.77-1.622-2.182-3.23-4.44-5.068-6.38-2.652-2.794-6.2-3.796-9.847-2.905-3.343.816-5.61-.186-7.69-2.998-1.03-1.395-.786-2.688-.74-4.033.147-4.19-.598-8.546 1.878-12.356.27-.416.354-1.06.326-1.586-.093-1.81.7-3.117 1.823-4.363 2.964-3.277 6.718-5.596 9.582-8.99.28-.33.65-.4 1.06-.348 2.064.256 4.334-1.637 6.227.695.154.19.74-.023 1.125-.05 1.77.493 3.177-.83 4.752-1.067 2.212-.33 4.313-1.432 6.66-1.045.715.115 1.587-.496 2.313-.916.956-.55 1.854-.53 2.936-.453 1.733.122 3.433 1.37 5.215.33.688-.4 1.494-.372 2.18-.614 2.71-.955 5.602-1.504 7.874-3.576 1.613-1.473 1.986-4.23.65-5.9-.513-.638-.747-1.6-1.226-1.98-1.24-.978.273-2.446-.6-3.1-1.166-.873-.583-1.655-.302-2.58 1.11-3.654-.706-6.587-4.322-7.034-.423-.052-1.01.154-1.19-.415-.48-1.5-2.86-1.696-2.326-3.88.033-.135-.166-.46-.303-.494-2.228-.587-2.813-2.585-3.686-4.477-.333-.723-.866-1.335-.727-2.16.293-1.764-1.515-2.49-1.658-3.977-.128-1.317-.494-2.406-1.7-2.985-.488-.234-.546-.496-.423-1.108 1.013-5.05-1.745-8.755-6.437-8.74-2.306.008-2.306.008-3.553-2.03-2.005-3.275-7.162-4.917-10.555-2.842-2.168 1.326-4.192.268-5.42-.526-2.952-1.906-5.22-1.16-7.685.546-.62.43-1.028 1.427-2.08.526-.81-.69-1.595-1.124-1.02-2.446.293-.667-.08-1.354-.488-1.902-1.774-2.39-4.522-3.236-6.825-4.783-.356-.24-1.092-.173-1.496.06-1.648.96-2.78-.09-3.93-1.033-1.3-1.066-2.907.584-4.17-.596-.096-.09-.204-.168-.31-.244-2.68-1.878-6.66-1.28-8.5 1.436-.61.906-1.364 1.154-2.223 1.417-2.696.82-4.56 2.505-4.895 5.618-.093.866-.518.937-1.135 1.038-1.816.302-2.777 1.514-3.646 3.236-.838 1.664-1.694 3.516-3.68 4.28-1.995.768-2.764 2.53-2.398 4.788.284 1.748-.475 2.88-2.1 3.135-3.188.504-4.6 2.057-5 5.59-.064.55-.173.862-.72 1.008-2.305.607-3.236 2.296-3.094 4.74-5.4-1.296-8.776 1.198-7.605 6.374-1.725.113-3.71-.276-4.92 1.272-1.7 2.18-3.65 4.23-5 6.596-1.183 2.073-.774 4.95-1.78 7.308-.32.752.756 1.66-.05 2.48zm213.144 50.028h2.52c3.508 0 3.45 0 3.47-3.656.01-1.33-.308-1.805-1.612-1.748-2.514.105-5.04.05-7.562.025-2.973-.03-5.084-2.307-5.133-5.477-.052-3.244 2.107-5.617 5.163-5.662 1.1-.016 2.2.045 3.294-.014 1.018-.057 1.382.443 1.406 1.455.022 1.04-.357 1.492-1.372 1.455-1.615-.057-3.232-.03-4.848-.002-.468.008-1.186-.23-1.217.602-.055 1.498-.455 3.152.2 4.445.42.834 1.796.256 2.738.3 1.29.065 2.586.058 3.878.01 3.335-.124 5.647-2.907 5.66-6.765.012-3.867-2.266-6.7-5.57-6.852-1.42-.064-2.843-.014-4.264-.012-5.705.02-10.115 4.78-10.12 10.926-.01 6.162 4.386 10.947 10.073 10.97 1.097.004 2.197 0 3.297 0zm52.877 0h2.326c3.707 0 3.662.004 3.535-4.004-.035-1.1-.364-1.41-1.354-1.39-2.648.058-5.298.052-7.945.01-2.923-.044-5.03-2.438-5.01-5.61.023-3.09 2.095-5.434 4.908-5.52 1.16-.035 2.332.053 3.49-.02 1.136-.075 1.463.505 1.47 1.597.005 1.162-.606 1.355-1.506 1.31-.838-.04-1.678-.007-2.52-.007-3.582 0-3.544 0-3.486 3.846.018 1.12.248 1.61 1.397 1.553 1.807-.093 3.62.017 5.428-.034 3.36-.094 5.69-2.85 5.724-6.693.034-3.98-2.276-6.805-5.7-6.924-1.355-.048-2.715-.01-4.07-.01-5.732.015-10.152 4.726-10.185 10.856-.037 6.25 4.38 11.027 10.203 11.04 1.1.002 2.197-.002 3.296-.002zm8.22-11.113c0 2.952.064 5.905-.026 8.856-.04 1.357.2 1.95 1.648 1.88 2.7-.128 5.413-.005 8.122-.042 5.145-.072 9.26-4.764 9.295-10.56.035-5.956-4-10.786-9.177-10.903-2.836-.062-5.675.048-8.51-.036-1.15-.033-1.395.416-1.372 1.54.063 3.085.02 6.175.02 9.267zm-114.778.15c0-6.144-4.554-10.96-10.333-10.93-5.645.026-10.222 4.874-10.254 10.854-.035 6.084 4.57 11.027 10.28 11.04 5.772.012 10.31-4.812 10.306-10.963zm1.52 4.1v3.304c0 3.652 0 3.6 3.502 3.592 1.155-.004 1.583-.28 1.545-1.598-.09-3.164-.05-6.33-.023-9.496.026-3.137 1.913-5.434 4.42-5.455 2.504-.023 4.46 2.277 4.51 5.38.04 2.478.01 4.958.01 7.435 0 4.096-.005 4.06 3.95 3.73.87-.072 1.09-.398 1.08-1.246-.04-3.578.105-7.166-.08-10.732-.3-5.807-4.546-10.053-9.694-9.943-5.053.106-9.093 4.696-9.21 10.49-.032 1.51-.005 3.025-.01 4.54zm-9.238-29.495c-3.134-.152-6.164-1.037-7.583-4.475-1.33-3.227-1.114-6.44 1.522-9.06.27-.268.573-.65.23-1.067-.316-.377-.74-.256-1.045.017-.387.348-.76.745-1.042 1.19-3.12 4.97-1.053 12.31 4.106 14.643 4.083 1.846 9.246.824 12.445-2.447 2.4-2.455 3.81-5.547 4.783-8.842.455-1.535 1.097-2 2.57-1.947 3.303.12 3.282.04 4.237 3.365.818 2.86 1.93 5.557 4.266 7.428.98.783 2.07 1.14 3.25.51.3-.158.484-.492.356-.865-.09-.252-.285-.482-.587-.252-1.722 1.316-2.166-.46-2.682-1.43-.96-1.797-1.27-3.87-1.77-5.86-.467-1.868-.52-3.118 1.857-3.12.88-.002 2.53-.057 2.377-1.364-.108-.92-1.554-.078-2.398-.118-.193-.01-.39.012-.58.047-1.486.283-2.033-.314-2.027-1.973.024-5.568-.182-11.14 1.04-16.622.43-1.934-1.046-2.38-2.197-2.742-1.155-.362-2.23-.092-2.616 1.57-1.302 5.596-2.677 11.173-4.08 16.74-.882 3.485-1.006 3.535-4.494 3.455-.45-.01-.9-.05-1.346-.12-.53-.082-1.328-.67-1.503.107-.228 1.013.83.972 1.454 1.19.24.08.514.05.772.065 3.916.232 3.907.225 1.992 4.084-2.378 4.8-5.92 7.715-11.306 7.89zm-19.538 35.947c5.234 0 5.196.002 5.082-3.973-.03-1.065-.292-1.466-1.32-1.425-1.743.076-3.49.03-5.234.02-2.99-.02-4.995-2.12-5.04-5.252-.044-3.205 2.02-5.45 5.042-5.477.97-.01 1.94-.002 2.908-.002 3.875 0 3.842.002 3.643-4.086-.047-.975-.302-1.336-1.228-1.307-1.743.062-3.49.02-5.232.02-4.408 0-7.865 2.39-9.426 6.52-1.63 4.294-.607 9.165 2.52 12.32 2.525 2.554 5.602 2.878 8.286 2.642zm60.464 0h1.535c3.815 0 3.767 0 3.658-4.04-.03-1.126-.387-1.39-1.355-1.353-1.74.065-3.483.03-5.228.015-2.938-.025-4.966-2.19-4.998-5.314-.033-3.075 2.053-5.382 4.92-5.413 1.81-.02 3.62.012 5.424-.014.463-.006 1.17.23 1.175-.63.015-1.497.27-3.142-.23-4.438-.315-.807-1.896-.22-2.905-.28-1.157-.065-2.325.005-3.483-.017-4.04-.072-6.974 1.97-8.754 5.664-1.842 3.82-1.652 7.72.647 11.338 2.444 3.85 6.018 4.933 9.594 4.482zm52.432-12.807c.97 0 1.735-.004 2.5.002.538.004.926-.002 1.063-.803.645-3.764.093-4.563-3.354-4.568-.258-.002-.523-.04-.773.006-.963.174-1.48-.334-1.6-1.27-.236-1.844-1.293-2.24-2.836-2.06-.955.108-1.926.02-3.132.02 1.92 5.9 3.62 11.665 5.7 17.272 1.013 2.734 3.22 4.455 6.17 4.61 3.307.177 3.228.146 3.33-3.354.046-1.592-.332-2.254-1.895-2.027-1.343.193-2.625.03-3.168-1.625-.653-2-1.294-4-2.006-6.203zm-8.717-25.88c-.904-1.595-.567-3.064-.476-4.43.552-8.303 1.772-16.51 3.377-24.653.17-.846.148-1.46-.5-2-.62-.52-1.314-.57-2.02-.345-1.018.324-.604 1.162-.544 1.876.025.27-.026.55-.067.82-.945 6.585-1.972 13.16-2.402 19.816-.217 3.288-.523 6.58.16 9.856.197.95.672 1.697 1.635 1.768.96.064 1.33-.777 1.528-1.582.296-1.19.526-2.406.68-3.625.418-3.27.953-6.514 1.86-9.673.198-.69.31-1.813 1.088-1.73.89.092.595 1.212.613 1.906.057 1.992.03 3.988.03 5.984 0 1.8.218 3.576.793 5.266.64 1.88 1.77 2.447 3.328 1.752-1.308-.79-1.43-2.125-1.512-3.494-.21-3.428.135-6.877-.34-10.3-.186-1.353-.46-2.746-1.91-2.983-1.506-.248-2.08 1.136-2.562 2.345-.658 1.648-.992 3.403-1.368 5.146-.568 2.64-.518 5.405-1.39 8.278zm-50.495-5.475c-.094-3.625.063-7.243 1.163-10.737.23-.737.563-1.436-.213-2.028-.488-.376-1.046-.602-1.637-.444-.93.25-.51 1.11-.598 1.726-.98 6.88-1.1 13.823-1.312 20.756-.074 2.473-.028 4.95-.017 7.426.007 1.14.58 1.63 1.627 1.402.902-.193 1.734-.303 1.33-1.81-.587-2.194-.428-4.5-.352-6.767.036-1.102.294-1.703 1.627-1.248 3.13 1.063 6.077.002 7.8-2.84 2.446-4.04 2.465-8.307.487-12.546-.766-1.645-1.978-2.915-3.938-2.84-1.865.074-2.87 1.4-3.67 2.952-1.118 2.178-1.566 4.61-2.297 6.998zm26.023-8.513c-.705-1.382-1.582-1.987-2.39-2.663-2.098-1.754-3.385-1.68-5.164.41-1.488 1.752-2.635 3.753-3.218 6.05-.97 3.832-1.09 7.62.976 11.148 2.034 3.48 5.532 3.58 7.737.256.604-.914 1.132-1.885 1.775-2.96.598 1.78 1.092 3.41 2.98 3.65.708.09 1.352-.052 1.555-1.146-2.372.502-2.31-1.29-2.396-2.736-.225-3.803.266-7.557 1.25-11.202.37-1.382-.177-1.945-1.13-2.382-1.1-.503-1.634.194-1.976 1.575zm8.45 52.9c1.134 0 2.087-.016 3.043.002 1.592.028 2.463-.6 2.953-2.4 1.06-3.876 2.438-7.653 3.676-11.474.42-1.305 1.007-2.334 2.495-2.47 2.96-.27 2.956-.304 2.928-3.522-.003-.275-.015-.553 0-.824.034-.645-.153-.93-.84-1.04-3.695-.583-7.338 1.09-8.656 4.677-2.06 5.594-3.75 11.346-5.6 17.05zm27.152-44.99c.114 3.386.86 6.38 3.408 8.526 2.962 2.496 7.56.57 8.14-3.408.106-.725.254-1.762-.612-1.908-.816-.14-.536.92-.656 1.438-.67 2.83-2.067 4.293-4.063 4.14-1.982-.15-3.1-1.804-3.265-4.843-.015-.275-.01-.55-.033-.824-.068-.865.116-1.143 1.072-.965 2.72.504 4.6-.97 5.906-3.344 1.39-2.515 1.817-5.19.368-7.834-1.94-3.532-5.935-3.55-7.858-.108-1.59 2.846-2.272 5.956-2.408 9.128zm-26.842 2.148c-.073-3.96.91-7.314 2.846-10.353.673-1.052 1.456-2.11 2.82-1.585 1.236.473 1.048 1.77 1.02 2.843-.035 1.298-.262 2.594-.282 3.894-.015 1.05.404 1.936 1.558 1.94 1.232.003.87-1.064.967-1.82.484-3.8-.378-6.795-3.843-8.765-1.978-1.126-2.87-1.27-4.208.75-1.696 2.57-2.678 5.465-3.138 8.55-.568 3.803-.355 7.45 2.44 10.332 3.077 3.172 8.342 1.72 9.384-2.523.2-.817.217-1.675-.647-1.83-.892-.16-.602.76-.673 1.327-.264 2.05-1.813 3.643-3.72 3.873-1.835.22-3.337-.918-4.067-3.05-.43-1.253-.478-2.55-.457-3.585z"/><path fill="#141312" d="M107.182 77.014c-.384.025-.97.238-1.125.05-1.893-2.333-4.163-.44-6.227-.696-.41-.053-.78.018-1.06.348-2.865 3.395-6.618 5.71-9.582 8.99-1.125 1.246-1.917 2.555-1.823 4.363.027.524-.057 1.17-.326 1.585-2.477 3.81-1.73 8.168-1.878 12.355-.046 1.346-.29 2.64.74 4.033 2.078 2.813 4.346 3.813 7.688 2.998 3.647-.89 7.195.112 9.847 2.907 1.838 1.938 3.446 4.197 5.068 6.38.79 1.06.084 1.978-1.264 1.77-1.335-.206-2.75-.323-3.96-.896-4.29-2.03-8.528-.638-12.712.183-2.766.543-5.4.818-8.214.334-6.004-1.04-12.117-1.398-18.146-.72-2.967.333-5.815 2.026-8.67 3.233-1.14.482-2.22 1.105-3.462 1.223-2.39.23-4.27 1.45-5.776 3.37-1.2 1.53-2.698 2.528-4.476 3.087-.452.145-.906.232-1.234-.23-.273-.38-.215-.838.106-1.115 3.155-2.73 2.88-7.596 6.29-10.648-2.78-.168-5.042-.643-6.78 1.646-1.652 2.17-4.114 3.035-6.38 4.12-1.94.93-1.563-.933-1.705-2.13-1.59.186-2.97.865-4.296 1.688-.676.42-1.365.827-2.144.888-1.066.084-1.61-.553-.908-1.48 1.644-2.178 3.17-4.568 5.88-5.457 2.59-.853 4.73-2.304 6.447-4.628 1.575-2.133 3.78-3.178 6.413-3.287 2.12-.086 4.23-.38 6.295-1.04 5.03-1.618 8.508-4.993 10.473-10.16 1.817-4.77 3.74-9.517 3.818-14.784.04-2.72-3.694-7.624-6.154-8.22-.244-.06-.576-.19-.74-.076-1.897 1.32-4.12 1.332-6.22 1.867-1.19.304-2.307.892-3.528.216l.01-.418c.45.03.983.246 1.337.063 1.625-.837 3.28-.952 5.08-.913 1.484.033 2.008-1.73 1.024-2.896-.425-.503-.55-1.267-1.204-1.562l-.01-.01c-.022-.336-.048-.672-.428-.785-.2-1.402-1.27-2.223-1.94-3.31.9-.913 2.18.02 3.112-.728v.33c-.146.607-1.58.3-1.03 1.023 1.433 1.885 1.854 4.77 4.543 5.47 2.74 1.093 5.068 2.698 6.397 5.73.053-.5.104-1 .16-1.503.133 0 .27 0 .402.002l.104 1.28c-.315 1.923.73 3.675.48 5.65-.863 6.86-3.022 13.188-6.42 19.062-3.88 4.702-8.843 6.864-14.64 7.07-2.862.103-5.246 1.212-6.988 3.716-1.223 1.758-2.798 3.094-4.785 3.64-2.62.722-4.415 2.624-6.234 4.593 2.693-1.69 5.725-2.265 8.665-3.132.414-.123.855-.477 1.096.242-.46.203-.923.408-.403 1.043-.648-.445-1.05.03-1.45.457-.054.06-.032.316.033.37.505.42.946 0 1.426-.13 2.257-.62 3.573-2.55 5.134-4.14 2.772-.858 5.72-.438 8.493-1.312-.67.947-.747 2.22-1.582 3.098-1.682 1.766-2.784 3.88-3.123 6.398-.995.592-1.49 1.533-1.874 2.79 1.426-.386 2.08-1.452 2.84-2.345 1.33-1.562 2.866-3.007 4.797-3.25 3.89-.493 7.33-2.41 10.797-3.94 3.707-1.632 7.216-1.69 10.985-1.282 2.035.22 4.143 1.107 6.097.416 1.14-.404 1.886-.398 2.803.195.428.276.894.46.755-.442l.005-.41.03-.08c1.184 2.24 3.198 2.36 5.134 1.902 3.738-.885 7.49-1.582 11.288-2.076 1.63-.213 2.957 1.088 4.55.695 1.107.212 2.214.42 3.707.706-1.13-1.367-1.952-2.357-2.77-3.352-.17-.23-.338-.457-.506-.688-.114-1.2-.93-1.293-1.783-1.21-1.112.108-2.22.294-3.328.444.618-1.098 1.975-.463 2.87-1.322-1.888-2.19-4.392-1.504-6.554-1.736-2.64-.29-5.548 1.717-7.857-1.182-.067-.434-.263-.754-.686-.867l-.048-.05c-.16-.483-.458-.847-.873-1.104-.26-.276-.517-.55-.777-.823-.05-.588-.227-1.203-.128-1.762.307-1.734-.385-2.21-1.86-1.846-.8-.247-1.694.196-2.952-.585 1.584 0 2.664-.016 3.74.006.696.015 1.094-.263 1.096-1.054.006-2.31.04-4.623.016-6.936-.007-.64-.43-.188-.673-.178-.053-.053-.105-.105-.157-.162l1.687-2.77-.026.026c.713-.963 1.568-1.88.84-3.264l-.186-.21c.085-1.17-1.29-.202-1.405-1.087l-.042.027c1.296-.088 2.196-.695 2.843-1.97.835-1.646 2.178-2.872 3.51-4.064 1.838-1.645 3.762-3.184 5.55-4.89 2.103-2.01 4.2-4.058 5.302-6.952.196-.518.482-1.104-.058-1.46-.52-.34-.97.126-1.322.542-.214.254-.387.547-.568.83-2.767 4.33-6.474 7.094-11.424 7.803.3-.84.83-1.513 1.356-2.208 1.573-2.08 3.26-4.088 4.303-6.56.836-1.987.33-3.046-1.726-3.756-.36-.183-.72-.363-1.082-.543 1.362-.572 2.645-1.55 4.216-.416.476.342 1.25.138 1.84-.22.022 1.343-2.1.673-1.844 2.187.39 2.306-.943 4.26-1.082 6.45-1.125-.214-1.317.77-1.705 1.505-.188.104-.376.208-.558.317.022.125.037.25.06.375 0 .006.067 0 .102 0l-.195-.38c.267.218.543.27.835.056.487-.63 2.082-.27 1.47-1.873 2.463.14 3.352-1.936 4.478-3.645.84-1.27 1.813-2.717 3.372-1.955 1.833.896.787 2.592.32 3.947-.24.69-.704 1.3-1.076 1.936-.378.654-1.3.934-1.192 2.28 2.596-1.55 4.954-.93 7.188.673v.334z"/><path fill="#131312" d="M107.182 77.014v-.33c2.22-.22 4.046-2.13 6.432-1.693.352.065.528-.32.62-.673-.002 0 .027-.07.027-.07l.338-.406c2.152.446 4.232.892 6.187-.897.79-.723 2.177-.47 3.152-1.133.612 2.03 2.56.227 3.563 1.402.397.467 1.186 0 1.814-.217 2.24-.77 4.185-2.3 6.644-2.576 3.417-.382 4.57-3.526 2.666-6.39-.632-.952-1.77-2.53-1.538-3.08.938-2.246-.48-2.258-1.716-2.6 1.834-3.817 1.792-5.026-.23-6.916-.92-1.104-2.007-.925-3.137-.466-.532.215-1.526.42-1.32-.315.513-1.817-.613-2.04-1.624-2.572-.242-.127-.544-.573-.497-.798.53-2.547-1.364-2.406-2.73-2.854.095-.854.705-1.714.158-2.562-.946-1.465-1.714-2.717-1.78-4.815-.047-1.504-1.938-3.307-3-4.982-.14-.223-.567-.24-.863-.352-.998-.428-1.486-.98-.685-2.13.493-.705.915-1.577.63-2.49-1.038-3.317-3.165-6.11-7.39-4.036-.948.465-1.79.616-2.583-.257.444-.703.45-1.406.005-2.11.104-.878-.477-1.366-.973-1.883-2.613-2.718-6.362-2.815-9.95-.27h-.734c-1.755-1.486-4.27-1.012-6-2.636-.245-.232-.867-.046-1.308 0-1.41.15-2.582.89-3.525 1.935-.896.992-1.648 1.488-2.678.222-.275-.34-.77-.474-1.166-.705-1.136-.666-1.922-1.51-1.1-2.967.442-.776.16-1.305-.373-1.78-.484-.43-.81-1.396-1.704-.718-.95.716-1.188.022-1.442-.765-.57-1.768-1.88-2.612-3.453-2.1-1.792.587-3.262.838-4.45-1.042-.11-.18-.533-.34-.686-.255-2.344 1.297-3.888-.696-5.718-1.516-.278-.125-.627-.067-.943-.095-.124-.053-.248-.053-.37 0-1.658-.09-3.07.425-3.928 2.026-.575 1.07-1.475 1.41-2.516 1.65-2.688.615-4.084 2.427-4.066 5.285.005.69-.008 1.24-.77 1.386-.6-.017-1.23-.267-1.753.278-1.104-.017-1.802.553-2.114 1.673-.5.484-.405.987-.033 1.495-1.095.89-2.7 1.396-2.297 3.427-.45.14-.9.283-1.348.424-2.38.48-2.98 1.392-2.463 3.874.134.642.186 1.254-.23 1.735-.69.803-.64 1.73-.554 2.688-.154.01-.308.02-.462.028-.574-.004-1.15-.02-1.726-.007-2.897.056-4.33 1.503-4.424 4.512-.025.838-.08 1.632-.813 2.15-.123-.05-.248-.046-.37.007-1.515-.128-2.254.616-2.34 2.233-.12 2.304-.9 2.854-3.067 2.248-2.185-.61-3.587-.056-4.74 1.876-.44.553-.437 1.106.004 1.657.77 2.947.643 3.124-2.292 3.134-.377 0-.757 0-1.135.002-2.213.388-3.328 1.48-3.337 3.562-.003 1-.306 1.275-1.166 1.366-1.094.116-1.86.774-2.125 1.976-.164.284-.327.567-.488.852-.477 1.625-.292 3.48-1.654 4.81-.392.383-.34 1.246.063 1.737 1.365 1.664.04 1.804-1.01 2.127l-.016-.44c.806-.822-.268-1.73.053-2.482 1.007-2.357.6-5.234 1.78-7.308 1.35-2.365 3.3-4.417 5-6.596 1.208-1.55 3.195-1.16 4.92-1.273-1.17-5.175 2.204-7.67 7.605-6.372-.142-2.447.79-4.135 3.093-4.74.55-.147.66-.46.72-1.01.4-3.532 1.814-5.085 5-5.59 1.626-.254 2.383-1.387 2.1-3.134-.366-2.26.405-4.018 2.4-4.788 1.984-.764 2.842-2.617 3.68-4.28.87-1.722 1.83-2.935 3.647-3.236.617-.1 1.042-.172 1.135-1.037.333-3.113 2.198-4.798 4.893-5.618.86-.262 1.614-.51 2.225-1.417 1.836-2.717 5.818-3.312 8.497-1.436.107.076.215.153.312.244 1.263 1.18 2.87-.47 4.17.596 1.15.942 2.28 1.993 3.93 1.034.404-.234 1.14-.3 1.496-.06 2.303 1.546 5.05 2.393 6.825 4.782.41.548.78 1.235.49 1.902-.577 1.322.21 1.754 1.018 2.446 1.053.9 1.46-.097 2.08-.526 2.464-1.706 4.732-2.452 7.683-.546 1.23.794 3.256 1.852 5.422.526 3.395-2.074 8.55-.433 10.555 2.84 1.25 2.04 1.25 2.04 3.555 2.03 4.692-.013 7.45 3.69 6.436 8.742-.124.61-.064.874.424 1.108 1.205.58 1.57 1.668 1.698 2.985.144 1.487 1.952 2.213 1.657 3.976-.137.827.396 1.44.728 2.16.874 1.893 1.458 3.89 3.687 4.478.136.035.334.36.302.493-.532 2.186 1.848 2.383 2.326 3.883.18.57.768.363 1.19.415 3.617.447 5.433 3.38 4.323 7.035-.282.924-.864 1.706.302 2.578.87.655-.64 2.123.598 3.103.48.38.712 1.342 1.225 1.98 1.338 1.67.965 4.426-.647 5.9-2.27 2.07-5.165 2.62-7.873 3.575-.688.242-1.494.213-2.18.613-1.784 1.042-3.483-.206-5.216-.327-1.08-.076-1.978-.098-2.935.453-.727.422-1.6 1.03-2.31.916-2.35-.387-4.452.715-6.665 1.045-1.57.235-2.98 1.56-4.748 1.067z"/><path fill="#739048" d="M223.727 115.914c-1.1 0-2.2.004-3.297 0-5.688-.02-10.083-4.807-10.074-10.97.006-6.145 4.41-10.905 10.12-10.925 1.42-.003 2.845-.054 4.264.01 3.306.15 5.583 2.98 5.57 6.853-.012 3.855-2.324 6.64-5.658 6.764-1.292.047-2.59.057-3.878-.008-.945-.046-2.318.528-2.74-.304-.655-1.293-.253-2.95-.198-4.445.03-.827.75-.593 1.217-.6 1.615-.026 3.232-.054 4.845.003 1.015.037 1.398-.414 1.376-1.457-.024-1.01-.39-1.51-1.406-1.453-1.096.06-2.195-.002-3.296.014-3.056.045-5.213 2.418-5.163 5.662.05 3.17 2.16 5.442 5.134 5.476 2.52.025 5.045.08 7.562-.025 1.305-.056 1.623.42 1.613 1.747-.022 3.658.034 3.658-3.473 3.658h-2.52zM276.604 115.914c-1.1 0-2.195.004-3.295 0-5.823-.012-10.24-4.79-10.204-11.04.032-6.13 4.452-10.84 10.185-10.854 1.356-.002 2.716-.04 4.07.008 3.425.12 5.735 2.943 5.7 6.924-.033 3.844-2.367 6.6-5.727 6.693-1.805.05-3.618-.06-5.425.033-1.15.06-1.38-.432-1.396-1.553-.058-3.846-.1-3.846 3.487-3.846.84 0 1.68-.034 2.518.007.9.045 1.51-.148 1.505-1.31-.006-1.093-.333-1.673-1.47-1.6-1.16.075-2.33-.013-3.49.022-2.812.085-4.884 2.43-4.906 5.52-.024 3.17 2.084 5.565 5.005 5.61 2.65.04 5.3.047 7.95-.01.987-.02 1.318.29 1.354 1.39.127 4.007.17 4.003-3.535 4.003h-2.326z"/><path fill="#728F47" d="M284.825 104.8c0-3.09.042-6.18-.02-9.267-.023-1.123.222-1.572 1.372-1.54 2.834.085 5.673-.026 8.51.038 5.177.118 9.21 4.948 9.176 10.905-.037 5.795-4.15 10.486-9.298 10.56-2.706.036-5.42-.087-8.12.042-1.447.068-1.687-.523-1.647-1.885.09-2.947.027-5.9.027-8.85zm5.047.038v1.027c0 4.338 0 4.338 4.17 4.262 2.93-.05 4.835-2.21 4.807-5.438-.027-3.097-1.95-5.243-4.76-5.294-.9-.018-1.808.066-2.7-.02-1.138-.114-1.658.216-1.542 1.556.112 1.29.024 2.603.024 3.906z"/><path fill="#739049" d="M170.046 104.95c.003 6.15-4.534 10.976-10.305 10.964-5.71-.012-10.314-4.955-10.28-11.04.032-5.98 4.61-10.827 10.253-10.854 5.78-.03 10.333 4.787 10.333 10.93zm-15.57-.12c-.055 3.123 2.226 5.648 5.165 5.71 2.97.065 5.366-2.337 5.422-5.433.056-3.143-2.215-5.66-5.16-5.715-2.964-.06-5.372 2.356-5.426 5.438z"/><path fill="#739048" d="M171.568 109.05c.003-1.515-.024-3.03.006-4.542.12-5.793 4.158-10.383 9.21-10.488 5.15-.11 9.397 4.14 9.696 9.943.185 3.568.04 7.154.078 10.732.01.848-.21 1.174-1.078 1.246-3.952.33-3.95.366-3.952-3.73 0-2.476.03-4.956-.007-7.433-.05-3.104-2.004-5.404-4.51-5.38-2.51.02-4.394 2.317-4.42 5.454-.024 3.167-.067 6.333.023 9.497.038 1.316-.392 1.594-1.544 1.598-3.506.008-3.503.06-3.503-3.592-.002-1.1-.002-2.203 0-3.302z"/><path fill="#A4B565" d="M162.328 79.555c5.385-.176 8.928-3.09 11.306-7.89 1.915-3.86 1.924-3.853-1.992-4.083-.258-.018-.533.014-.77-.068-.626-.217-1.683-.174-1.455-1.188.176-.778.972-.188 1.503-.105.446.07.897.108 1.346.118 3.488.08 3.612.032 4.493-3.455 1.403-5.567 2.777-11.144 4.08-16.738.385-1.664 1.46-1.933 2.616-1.57 1.15.36 2.628.807 2.196 2.74-1.22 5.48-1.015 11.056-1.04 16.622-.01 1.66.542 2.256 2.027 1.974.19-.036.387-.057.58-.047.844.04 2.287-.8 2.397.116.153 1.306-1.496 1.363-2.377 1.363-2.378.002-2.324 1.252-1.856 3.12.497 1.99.81 4.065 1.77 5.86.515.97.96 2.746 2.68 1.432.303-.23.498-.002.588.25.128.373-.057.707-.355.867-1.182.627-2.27.273-3.25-.512-2.337-1.87-3.448-4.566-4.267-7.428-.953-3.324-.935-3.244-4.237-3.365-1.474-.053-2.116.414-2.57 1.947-.972 3.295-2.382 6.39-4.782 8.844-3.198 3.273-8.36 4.295-12.444 2.447-5.16-2.334-7.225-9.676-4.106-14.644.28-.445.654-.843 1.042-1.19.304-.27.73-.394 1.044-.015.344.414.04.8-.23 1.066-2.635 2.62-2.852 5.834-1.52 9.06 1.42 3.438 4.448 4.322 7.582 4.475zm19.303-31.37c-.26.758-.57 1.5-.77 2.276-1.05 4.018-2.068 8.043-3.098 12.063-.95 3.697-.707 3.95 2.95 3.438.77-.107.957-.434.943-1.167-.112-5.535-.175-11.067-.024-16.608z"/><path fill="#739049" d="M142.79 115.502c-2.684.236-5.76-.088-8.29-2.64-3.125-3.157-4.147-8.028-2.518-12.323 1.562-4.13 5.02-6.52 9.426-6.52 1.744 0 3.49.042 5.232-.02.927-.028 1.182.337 1.23 1.308.2 4.088.23 4.086-3.644 4.086-.97 0-1.937-.008-2.908.002-3.024.027-5.086 2.27-5.042 5.477.045 3.13 2.05 5.23 5.04 5.252 1.745.012 3.492.057 5.233-.02 1.027-.04 1.29.36 1.32 1.424.114 3.974.154 3.972-5.08 3.972z"/><path fill="#728F47" d="M203.254 115.502c-3.576.45-7.15-.63-9.595-4.482-2.3-3.62-2.49-7.518-.648-11.338 1.78-3.693 4.714-5.736 8.754-5.664 1.158.02 2.326-.05 3.483.018 1.01.06 2.59-.527 2.903.28.5 1.296.246 2.94.23 4.438-.008.855-.71.623-1.173.63-1.805.024-3.614-.007-5.423.013-2.868.03-4.954 2.334-4.92 5.414.03 3.124 2.06 5.29 4.997 5.315 1.744.014 3.487.05 5.228-.016.97-.04 1.326.226 1.355 1.353.108 4.04.157 4.04-3.66 4.037-.32.002-.644.002-1.533.002zM255.686 102.695c.713 2.203 1.354 4.203 2.008 6.2.543 1.66 1.825 1.82 3.168 1.628 1.563-.227 1.94.434 1.894 2.027-.1 3.5-.022 3.53-3.33 3.355-2.948-.16-5.156-1.877-6.17-4.613-2.08-5.605-3.778-11.37-5.7-17.273 1.207 0 2.178.09 3.133-.02 1.542-.18 2.6.218 2.836 2.062.12.936.638 1.443 1.6 1.27.25-.047.515-.008.772-.008 3.446.008 3.998.807 3.353 4.57-.137.8-.524.807-1.062.803-.767-.006-1.532-.002-2.502-.002z"/><path fill="#A5B567" d="M246.97 76.814c.87-2.873.82-5.64 1.39-8.28.375-1.742.71-3.497 1.367-5.143.482-1.21 1.057-2.593 2.563-2.346 1.447.237 1.724 1.63 1.91 2.985.474 3.42.13 6.87.34 10.3.08 1.366.203 2.702 1.512 3.49-1.56.696-2.688.13-3.33-1.75-.573-1.69-.792-3.464-.792-5.267.002-1.994.025-3.99-.028-5.983-.02-.694.276-1.815-.613-1.906-.78-.082-.89 1.04-1.09 1.73-.906 3.16-1.44 6.4-1.86 9.672-.152 1.22-.383 2.436-.678 3.627-.198.803-.567 1.645-1.528 1.58-.963-.068-1.438-.818-1.634-1.766-.685-3.273-.378-6.568-.166-9.86.436-6.653 1.462-13.228 2.406-19.814.04-.27.093-.55.067-.82-.06-.714-.474-1.553.544-1.877.706-.224 1.4-.174 2.022.344.647.542.668 1.156.5 2.002-1.604 8.14-2.825 16.35-3.377 24.653-.093 1.367-.43 2.836.474 4.43z"/><path fill="#A4B565" d="M196.475 71.34c.73-2.387 1.18-4.82 2.302-6.998.802-1.55 1.803-2.878 3.67-2.95 1.958-.077 3.17 1.193 3.935 2.837 1.978 4.24 1.96 8.506-.486 12.545-1.724 2.842-4.67 3.902-7.8 2.84-1.334-.455-1.592.146-1.628 1.248-.076 2.268-.233 4.572.355 6.768.4 1.507-.432 1.616-1.334 1.81-1.05.23-1.62-.262-1.627-1.402-.012-2.477-.058-4.953.02-7.426.21-6.934.327-13.876 1.31-20.757.087-.616-.332-1.476.597-1.724.59-.158 1.148.07 1.637.445.775.593.444 1.29.213 2.027-1.102 3.495-1.26 7.113-1.165 10.738zm8.82-.557c-.096-.795-.2-1.814-.343-2.83-.396-2.775-1.77-4.847-3.21-4.876-1.35-.024-2.81 1.898-3.336 4.572-.5 2.546-.9 5.118-1.337 7.677-.38 2.21.353 3.355 2.387 3.748 2.012.387 3.768-.58 4.757-2.666.804-1.693.97-3.535 1.082-5.627zM222.498 62.827c.342-1.38.875-2.078 1.976-1.574.954.437 1.502 1 1.13 2.382-.983 3.645-1.474 7.4-1.25 11.202.087 1.445.025 3.238 2.397 2.734-.202 1.097-.848 1.237-1.555 1.147-1.886-.24-2.382-1.87-2.98-3.648-.643 1.073-1.17 2.044-1.777 2.954-2.203 3.328-5.7 3.227-7.735-.252-2.066-3.527-1.944-7.316-.976-11.148.58-2.297 1.728-4.298 3.216-6.05 1.78-2.093 3.068-2.164 5.166-.41.806.675 1.68 1.28 2.388 2.663zm-.43 3.985c.01-.275.023-.55.035-.825.08-1.722-.008-3.496-1.82-4.11-1.8-.607-2.88.754-3.765 2.195-2.255 3.69-2.915 7.743-2.234 12.034.24 1.527.83 3.066 2.457 3.363 1.694.308 2.534-1.095 3.207-2.47 1.564-3.187 1.825-6.695 2.12-10.188z"/><path fill="#739049" d="M230.947 115.727c1.85-5.703 3.54-11.455 5.6-17.05 1.318-3.587 4.96-5.26 8.655-4.677.688.11.875.395.84 1.04-.014.274-.002.548 0 .823.03 3.22.03 3.252-2.93 3.52-1.485.138-2.072 1.167-2.493 2.472-1.238 3.82-2.618 7.598-3.677 11.475-.49 1.8-1.36 2.428-2.952 2.398-.955-.017-1.908 0-3.043 0z"/><path fill="#A5B567" d="M258.1 70.736c.137-3.172.818-6.283 2.408-9.128 1.924-3.44 5.918-3.423 7.858.108 1.45 2.644 1.02 5.32-.368 7.836-1.307 2.37-3.187 3.844-5.906 3.34-.956-.178-1.14.1-1.073.965.02.275.018.55.032.826.168 3.037 1.282 4.69 3.265 4.842 1.995.154 3.394-1.31 4.063-4.14.12-.52-.16-1.577.656-1.44.868.147.72 1.185.613 1.91-.582 3.98-5.18 5.905-8.142 3.407-2.548-2.145-3.294-5.14-3.408-8.526zm9.614-5.636c-.045-.37-.094-.848-.167-1.32-.192-1.232-.346-2.542-1.772-2.863-1.513-.34-2.25.866-2.89 1.956-1.005 1.713-1.24 3.732-1.676 5.663-.32 1.426.062 2.686 1.28 3.34 1.248.674 2.402.055 3.302-.957 1.415-1.594 1.705-3.64 1.922-5.82zM231.258 72.885c-.02 1.035.027 2.332.456 3.584.73 2.132 2.232 3.27 4.068 3.05 1.905-.23 3.455-1.824 3.72-3.873.072-.566-.22-1.486.672-1.328.864.155.848 1.013.647 1.83-1.04 4.243-6.306 5.694-9.382 2.522-2.797-2.883-3.01-6.53-2.44-10.332.46-3.087 1.44-5.98 3.137-8.55 1.338-2.02 2.23-1.876 4.208-.75 3.465 1.97 4.327 4.963 3.843 8.763-.096.758.266 1.824-.967 1.82-1.154-.004-1.573-.89-1.56-1.94.022-1.3.248-2.593.283-3.893.028-1.072.217-2.37-1.02-2.843-1.364-.526-2.147.533-2.82 1.585-1.935 3.04-2.918 6.392-2.845 10.353z"/><path fill="#1A1918" d="M10.583 65.886c.006.146.01.294.017.44-1.226 1.138-2.328 2.316-.98 4.142.423.572-.064.832-.312 1.207-1.17 1.773-.903 3.143.893 4.223 2.154 1.293 4.49 1.545 6.636.293 1.638-.958 2.758-.126 3.953.6 2.87 1.737 6.175.792 9.16 1.776.138.045.363-.13.523-.242 1.43-.992 3.174-.738 4.607-.623 1.09.087 2.367-.614 3.447.35 1.45 1.286 3.027 1.366 4.623.235.894.6 1.81.627 2.71.05.648-.415 1.186-.452 1.605.317-.003.14-.008.28-.01.42-2.063.824-4.283.107-6.37.75-.708.217-1.52.066-2.044-.367-2.476-2.05-5.1-.887-7.637-.428-1.942.352-3.8.61-5.637-.344-.17-.09-.382-.31-.502-.262-2.27.913-4.192.093-5.998-1.33-.904-.714-1.73-.37-2.642.073-2.458 1.195-4.876.943-7.188-.504-.38-.24-.75-.56-1.024-.927-.595-.81-1.342-1.81-.688-2.764 1.482-2.148-1.21-6.177 2.86-7.084z"/><path fill="#708C47" d="M43.15 78.285c-1.595 1.13-3.173 1.05-4.623-.236-1.08-.964-2.356-.263-3.447-.35-1.433-.114-3.178-.368-4.607.626-.16.11-.383.285-.524.24-2.985-.984-6.29-.04-9.16-1.777-1.196-.726-2.316-1.558-3.954-.6-2.145 1.253-4.482 1-6.635-.29-1.795-1.078-2.063-2.45-.892-4.225.248-.373.735-.635.312-1.207-1.348-1.826-.246-3.004.98-4.14 1.05-.324 2.373-.464 1.01-2.128-.405-.49-.457-1.354-.065-1.737 1.364-1.33 1.18-3.185 1.656-4.81l.493.053c-.012.953-.15 2 .74 2.59.866.574 1.15 1.517 1.618 2.352-.05 1.306-.89 2.8.78 3.694l-.018-.017c.19.62.736.85 1.198.815 2.528-.18 3.19 1.656 3.705 3.713.137.547.098 1.287.933 1.27l-.01-.013c1.214 2.342 5.788 2.342 7.35 0l-.008.008c.693.082 1.33.268 1.99.594 1.78.88 4.41-.025 5.288-1.686.653-.8 1.813-.172 2.46-.99.412-.03.85.453 1.247-.063-.966-.875-1.478-2.578-3.23-1.96l.02.01c-1.57-1.457-1.83-2.843.16-4.163.146-.097.117-.493.168-.75 1.348.177 2.238 1.504 3.606 1.63.115.4.27.758.743.77l-.015-.01c.965 1.682 2.555 1.404 3.968 1.246 1.037-.118 1.99-.204 2.994.153 1.213.432 2.333-.007 3.202-.89.588-.6 1.097-.867 1.84-.48.882.488 1.708.627 2.333-.443l-.015.01c1.043-.2 2.25.31 3.087-.796 1.08.394 2.142.206 3.142-.254 1.043-.48 2.044-1.08 3.056-1.644.32-.18.544-.526.99-.148 2.232 1.89 2.93 1.93 4.728.385.284-.003.49-.11.53-.442l-.02.023c.663-1.144 1.677-1.853 2.74-2.5l-.025.02c.25-.023.385-.168.408-.434l-.02.027c.664-.497.75-1.264.623-1.984-.174-1-.353-1.98-.22-3l-.014.027c.763-.694.524-1.462.068-2.167-.384-.592-.05-.656.36-.743l-.017-.01.405.435-.012-.02c-.063.944-.006 1.795 1.207 1.718.98-.063 1.578.697 2.296 1.2l-.015-.027c.37 1.045-.474 2.39.698 3.238.367.366.985.685 1.057 1.108.408 2.41 1.843 1.918 3.31 1.456 1.192.83 2.48 1.11 3.87.73.386-.108.736-.226 1.07.136 2.728 2.94 5.516.47 8.037-.27 2.217-.65 4.21-1.07 6.31-.19 1.71.715 3.21.39 4.345-1.234.295-.765.907-.854 1.57-.825 1.224.125 2.384.07 3.082-1.26l-.02.023c1.47-.912 1.53-2.258.786-3.63-.396-.735-.577-1.38-.387-2.17l-.007.01c1.88-1.07 2.24-3.45.804-5.348 1.095-1.308 2.666-2.34 2.293-4.496 1-.104 1.966-.063 2.748.743.13.01.26.02.39.032l-.016-.02c.355 1.26-1.045 3.147 1.18 3.737l-.02-.02c1.28 2.318-1.16 4.817.293 7.154.08.13-.25.595-.44.86-.43.582-.046 1.015.19 1.48l-.023 2.1.007-.007c-.267-.148-.418.026-.563.227-.355.112-.764.16-.86.646-.014.066.126.243.197.243.42-.003.68-.288.885-.645.102-.035.207-.058.313-.073.02.442.25.713.594.953 1.176.813 1.232 1.753.208 2.77-.768-.354-.955-.36-1.126.147-.887 2.627-3.208 3.49-5.153 4.815-1.007.697-2.112.598-3.224.44-1.45.224-2.717-.567-4.076-.853-.268-.548-1.035-.564-1.174-1.25.025-.053.05-.105.08-.16l-.08.16c-.503.264-1 .97-1.517.022l-.397-.023c-2.24-2.347-2.237-2.342-5.284-.212-.532.37-1.165.44-1.593-.072-.425-.508-.872-.494-1.39-.426-.586.356-1.362.56-1.838.22-1.573-1.134-2.855-.157-4.217.415l-1.02.115c-1.413.144-2.877-.47-4.245.328-.074.15-.15.296-.223.446l-.012.013c-.065.004-.166-.017-.186.02-1.46 2.304-4.696.87-6.116 3.287-.144.246-.5.297-.872.223-1.54-.32-3.142-.39-4.47-1.45-.862-.323-1.865.42-2.663-.395l.274-.238c-.173-.21-.317-.113-.453.053-.82.422-1.852-.27-2.594.564l.024-.02c-.265.28-.53.564-.795.848l.013-.027-1.182.04.03.018c-1.07-1.385-2.53-.752-3.85-.834-.612.023-.776-.545-1.107-.912-.352-.39-.69-1.09-1.3-.293-.31.003-.596.062-.75.397-.88-.02-1.852.213-2.613-.117-1.25-.542-1.866-.04-2.407 1.006-.934.744-2.213-.188-3.113.725-1.83 1.628-4.347.503-6.47 1.907 1.868.484 3.53 1.348 5.332.943 1.143-.254 2.098-.025 3.08.46.008.347.038.68.43.786l.007.01c.396 1.926-.207 2.86-2.163 2.52-.662-.115-1.283.035-1.754.62-.525.657-1.354.864-1.94.548-1.7-.908-3.038.783-4.617.553-.232-.036-.117.442-.08.698zm37.618-16.937l-3.254 1.695c1.736-.006 2.725-.396 3.384-1.54.36-.145.67-.338.666-.815 0-.054-.08-.158-.1-.15-.406.098-.513.49-.696.81z"/><path fill="#B79179" d="M83.552 96.115c.243-.01.666-.463.672.178.023 2.313-.01 4.625-.015 6.936-.004.786-.4 1.065-1.097 1.052-1.076-.02-2.157-.004-3.74-.004 1.257.78 2.152.336 2.95.584.66 2.564-1.06 4.44-1.8 6.637 1.176-1.233 2.31-2.372 3.79-3.032l.777.822c-.104.727-.987.596-1.348 1.31.852-.077 1.536-.14 2.22-.204 0 0 .048.047.048.05-.21.278-.418.554-.625.833-.244.15-.49.304-.733.458l-.486.547c.072.064.148.13.222.19.122-.202.243-.407.364-.614.25-.142.506-.284.76-.425.395-.043.79-.084 1.187-.123 2.307 2.896 5.214.893 7.856 1.18 2.16.236 4.666-.453 6.554 1.738-.896.86-2.254.225-2.872 1.324-.162.307-.433.355-.727.354-1.68.584-3.156 1.883-5.073 1.65l.012.014c.313-1.36 1.057-2.43 2.398-3.44-1.486-.235-2.397.302-2.667 1.257-.518 1.825-2.09 2.696-3.253 2.6-1.013-.083-2.658 2.185-3.228-.616-.812 1.47-2.63 1.477-3.337.113-.112-.217-.05-.646-.425-.398-.377.25.002.595.035.9-2.672.43-4.264-2-6.47-2.82-.444-.17-.56-1.036-.526-1.677.13-2.334-.02-4.71.81-6.95.698-2.19.332-4.517.777-6.74l-.015.028c.386.126.387-.157.4-.43l-.01.015c.655-.55.767-1.336.83-2.145l.652-8.11c.28-.59.68-1.16.164-2.015-.77 1.525-1.802 1.672-3.03.72-.13-.1-.374-.03-.564-.038-.473-.512-.978-.576-1.776.006h1.773c1.484 1.467 2.478 3.13 1.863 5.418-.21.784-.76 1.446-.726 2.32-2.363-.993-4.735-1.323-7.15.198-.226-1.295.5-2.254.02-3.377-.918 1.124-.414 2.62-1.095 3.69-2.252.12-.85 3.29-2.736 3.71.38 2.694-2.474 4.1-2.367 6.765.026.668-.787 1.44-1.725.553-.614-.58-1.33-1.037-2.002-1.547 3.397-5.872 5.558-12.2 6.42-19.062.248-1.98-.794-3.727-.48-5.65 2.18-.586 4.48-.94 5.713-3.357.883.933 2.413.767 3.083 2.058-.166.053-.342.092-.25.352l.395-.21c2.782-.728 4.57-3.136 6.895-4.638 1.285-.27 2.468-1.053 3.845-.852l-.008-.006c.186.48.57.44.952.418l.057-.006.544.412.008.01c.13.135.255.27.383.404l.004.004c.122.61.886.822.854 1.55-.635.218-1.69.095-1.518 1.145.17 1.03 1.16.468 1.8.565.1.016.22-.115.33-.18 4.95-.71 8.657-3.47 11.424-7.8.18-.286.354-.58.568-.83.352-.42.804-.884 1.323-.544.54.355.254.942.057 1.46-1.1 2.896-3.2 4.943-5.304 6.953-1.786 1.703-3.71 3.244-5.548 4.89-1.333 1.19-2.675 2.42-3.508 4.062-.648 1.277-1.547 1.883-2.845 1.97.258-.224.16-.462 0-.673-.033-.043-.268-.004-.277.035-.07.297.047.504.318.61.114.886 1.49-.083 1.404 1.09-.156.103-.358.26-.182.435.182.182.308-.025.368-.227.73 1.38-.125 2.3-.84 3.262-.207-1.256-.294-1.422-.658-1.203-1.583.95-1.504-.45-1.81-1.354-.357-1.06-.118-2.39-1.388-3.375.232 1.217.407 2.143.587 3.064.53 2.73.75 2.917 3.292 2.84-.562.925-1.125 1.85-1.685 2.774-.353.256-.387.598-.227.986l-.133.05.112-.073c.4-.114.418-.446.402-.802zm-1.18-15.375l-.067-.25h-6.17c.003.082.003.166.004.25h6.23zm1.468 2.77c-.068.002-.137.002-.206.002v3.754c.068-.002.137-.002.206-.002V83.51zm2.128 32.12c-.04.327-.067.503-.07.683 0 .012.236.063.247.043.045-.11.08-.246.063-.363-.013-.09-.106-.17-.24-.362zm-7.385-.485c-.097.05-.195.1-.292.148.04.047.09.14.114.13.104-.026.197-.09.294-.138-.04-.047-.077-.092-.115-.14zm4.355-4.307l.07-.11-.117-.017.048.128zm-3.804 3.652l-.092-.074-.016.115.108-.04zm7.288.487l.068-.125-.11-.012.042.137zm.474-.903L86.8 114l-.013.115.11-.04z"/><path fill="#916C5C" d="M75.787 106.54c-.83 2.245-.683 4.616-.81 6.95-.036.64.08 1.508.524 1.676 2.208.822 3.8 3.252 6.47 2.822-.01.38-.017.76-.025 1.14l-.03.08c-.042.042-.126.093-.12.122.02.1.075.193.116.29.14.9-.326.718-.752.44-.92-.594-1.665-.6-2.803-.197-1.957.693-4.064-.193-6.1-.414-3.77-.41-7.28-.35-10.985 1.282-3.466 1.53-6.907 3.445-10.797 3.938-1.93.244-3.468 1.688-4.796 3.25-.76.893-1.414 1.96-2.84 2.344.386-1.256.88-2.197 1.875-2.79.21-.145.495-.243.617-.45 1.184-2 2.786-3.19 5.06-3.45.86-.1 1.65-.728 1.715-1.88 1.237.09 2.45.25 3.664-.336.67-.324 1.75-.182 1.65-1.28-.083-.897-.84-1.476-1.734-1.7-1.104-.277-2.255-.438-3.19-1.225 2.34-.32 4.238.773 6.062 2.12.516.38 1.146.636 1.53.003.415-.674-.182-1.197-.672-1.475-.614-.345-1.32-.507-1.99-.747-.163-1.01-.936-.623-1.49-.74-.503-.105-1.14.36-1.492-.393.088-.078.177-.154.267-.232-.047-.04-.124-.117-.137-.11-.09.07-.162.157-.24.24-.813.112-1.572.368-2.223.923-.42-.095-.746.054-.99.427l.038-.02c-.474.11-1.082-.268-1.39.438l.034-.025c-.232.05-.48.078-.41.443l.024-.025c-2.772.873-5.72.455-8.493 1.314l-.17-.19c.613-1.757 2.627-1.09 3.545-2.32 1.577 1.23 2.88-.167 4.294-.507 2.12-.188 3.604-2.87 6.066-1.756.078.034.25-.077.338-.165.95-.953 2.154-.877 3.32-.953 1.154.258 2.365.377 3.436 1.586-1.675-.22-3.06-1.127-4.523-.303-.293.162-.656.29-.602.676.048.364.4.544.74.528 1.437-.074 2.554.504 3.58 1.592.666.707 1.66.547 2.583.39 2.26-.396 3.354-2.876 5.51-3.448.084-.023.092-.377.136-.578.388.143.777.285 1.165.426.04.715-.01 1.625 1.014.738.772-.666 1.235-1.52 1.334-2.63.07-.796.124-1.75.554-2.327 1.783-2.39 1.942-6.59.195-9.007.458-.127 1.153.33 1.35-.357.2-.69-.54-.787-.93-1.086-1.296-.99-2.866-.482-4.855-.766 1.812-.914 3.224-.934 4.438-.537 1.846.602 2.51.063 2.393-1.887 1.13-.08 1.742.248 1.24 1.625-.152.416-.097.916-.137 1.377l.013-.014c-.333-.066-.4.146-.405.43l.015-.025c-1.196 2.123-1.364 4.38-.773 6.738z"/><path fill="#AB8772" d="M58.318 113.4c-1.167.078-2.374 0-3.32.955-.09.088-.26.2-.34.162-2.46-1.113-3.946 1.57-6.065 1.76l.018-.244c-.03-.326-.214-.486-.508-.53-.072.017-.144.022-.217.017-.842-1.596-3.175-1.834-4.31-.44l-.385.435c-.385.135-.63.422-.776.816-2.92.37-4.868 2.29-5.034 4.562l.005-.01c-.617-.098-.763.602-1.2.81-.24-.72-.68-.366-1.094-.243-2.94.866-5.97 1.44-8.665 3.132 1.82-1.97 3.613-3.873 6.235-4.594 1.988-.547 3.562-1.883 4.786-3.64 1.743-2.505 4.126-3.614 6.988-3.716 5.795-.205 10.757-2.37 14.64-7.072.67.512 1.388.97 2 1.55.94.89 1.75.112 1.726-.556-.107-2.664 2.747-4.066 2.366-6.762 1.887-.422.484-3.594 2.735-3.713l.12 1.33c.24 2-1.37 3.2-1.86 4.884-.13-.09-.342-.29-.38-.256-.2.174-.265.422-.095.68l.016-.027c-.593.036-.54.425-.406.856l.02-.03c-.637.015-.486.456-.408.854l.02-.03c-.828.26-.873.935-.79 1.68l.013-.022c-.672.23-.495.764-.407 1.268l.02-.03c-.466-.167-.61.32-.624.536-.022.34.337.26.577.236-1.786 1.814-3.373 3.85-5.4 5.392z"/><path fill="#41592F" d="M97.004 64.812c.52-.068.965-.08 1.39.426.427.513 1.06.444 1.59.073 3.048-2.13 3.045-2.135 5.286.212.098.712-.792.837-.776 1.558.027 1.09 2.844 6.016 3.79 6.457.23.107.512.285.723.227 1.813-.498 3.48.43 5.226.555-.09.35-.267.735-.62.67-2.385-.437-4.21 1.476-6.432 1.694-2.232-1.602-4.59-2.22-7.188-.672-.108-1.346.813-1.625 1.193-2.28.37-.64.838-1.245 1.075-1.938.468-1.354 1.513-3.05-.318-3.943-1.56-.763-2.534.687-3.372 1.956-1.128 1.71-2.016 3.78-4.478 3.643h-.013c.14-2.19 1.472-4.145 1.082-6.45-.257-1.515 1.864-.845 1.842-2.188z"/><path fill="#8E6A5A" d="M81.946 119.13c.008-.382.016-.763.026-1.142-.033-.303-.412-.65-.034-.902.373-.248.313.182.425.398.705 1.363 2.526 1.355 3.335-.113.57 2.802 2.216.534 3.228.618 1.164.096 2.735-.775 3.253-2.602.27-.955 1.18-1.492 2.667-1.256-1.34 1.01-2.084 2.08-2.4 3.44-.237.048-.523.032-.573.376-.01.064.148.232.21.223.318-.056.312-.356.352-.614 1.917.232 3.393-1.064 5.075-1.65-.44 1.355-.268 1.586.004 1.354 1.17-.994 2.03.488 3.06.303.34 1.258 2.098.71 2.344 2.088-1.59.394-2.92-.907-4.548-.694-3.8.492-7.553 1.19-11.29 2.076-1.937.458-3.95.337-5.134-1.903z"/><path fill="#BB967D" d="M52.495 117.154c.935.787 2.086.947 3.19 1.225.893.224 1.65.8 1.734 1.698.098 1.098-.98.955-1.652 1.28-1.212.585-2.428.425-3.663.335-.06-.295-.032-.668-.473-.633-.046.006-.12.086-.123.133-.023.457.296.467.593.5-.065 1.152-.854 1.78-1.716 1.88-2.273.26-3.875 1.454-5.06 3.452-.122.207-.406.303-.617.45.34-2.52 1.44-4.632 3.123-6.4.833-.876.914-2.147 1.58-3.097l-.022.023c.237-.04.464-.093.41-.44l-.035.027c.512.027 1.036.094 1.39-.44l-.036.02.993-.01.188.01.19-.02.005.007z"/><path fill="#916C5C" d="M88.096 78.516c-.11.063-.23.195-.33.178-.638-.098-1.628.467-1.8-.564-.174-1.05.882-.928 1.517-1.145.032-.73-.733-.94-.854-1.55.775.265.55-1.155 1.21-.874.49.21.936.663 1.296-.03.354-.676-.202-1.115-.557-1.576-.003-.13.003-.262.017-.393.536-.112.71.77 1.296.558.255-.682-.448-.908-.547-1.402l-.015.014c.88.19 1.966-.2 2.122-.8.224-.855-.9-1.245-1.5-1.81-1.103-1.04-2.656-.232-3.737-1.19.108-.69.462-1.113 1.145-1.172 1.66.462 3.336 1.033 4.67-.765 2.056.71 2.56 1.77 1.722 3.756-1.042 2.47-2.73 4.478-4.303 6.558-.524.692-1.053 1.362-1.354 2.208z"/><path fill="#BB967D" d="M64.906 79.566c-.133-.002-.27-.002-.403-.002 0-.004.028.02.028.02-.05-.693-.104-1.39-.156-2.084.87-.018 1.533-.475 2.507-1.297-1.44.27-2.383-.23-3.383-.396-.183.01-.366.02-.547.027l.012.043c.333-.283.048-.568.007-.854.655-.184 1.312-.367 2.01-.56-.51-.42-.972-.77-1.4-1.163-1.538-1.408-1.382-2.367.516-3.273.46-.22 1.002-.316 1.19-.928.393.054.783.11 1.174.167l-.03-.017c-.262 1.025.786 1.84.413 2.883-.423.082-1.148-.215-.984.69.23 1.282 1.085.626 1.742.552l1.593 2.447c-.757 2.53-1.976 3.594-4.29 3.744z"/><path fill="#41592F" d="M43.15 78.285c-.037-.252-.152-.732.077-.7 1.58.23 2.918-1.46 4.616-.552.586.316 1.415.11 1.94-.547.473-.586 1.092-.736 1.753-.62 1.956.34 2.56-.595 2.163-2.52.655.294.78 1.058 1.205 1.562.982 1.168.46 2.93-1.025 2.896-1.798-.04-3.454.076-5.08.916-.353.182-.885-.03-1.335-.064-.42-.773-.957-.736-1.606-.32-.9.576-1.817.55-2.71-.05z"/><path fill="#131312" d="M62.97 75.023c.04.283.326.57-.007.854-1.545-1.016-3.312-1.307-5.03-1.76-1.997-1.13-2.692-3.244-3.498-5.273v-.332c.54-1.04 1.157-1.545 2.407-1.004.76.33 1.733.098 2.613.117-.65.684-1.463.305-2.19.332-1.138.04-1.47.45-1.103 1.646.414 1.35.985 2.47 2.297 3.04 1.588.692 2.43.136 2.572-1.77l1.938 4.15z"/><path fill="#AB8772" d="M57.932 74.117c1.718.453 3.485.744 5.03 1.76l-.012-.043c.066.346.29.46.594.455.04.104.1.198.173.28-.12 1.127.157 2.127.814 3.014l-.027-.02c-.054.502-.105 1.002-.16 1.504-1.328-3.033-3.657-4.64-6.396-5.732l-.015-1.22z"/><path fill="#41592F" d="M53.262 72.55c-.98-.485-1.936-.714-3.08-.46-1.8.402-3.465-.46-5.33-.945 2.123-1.402 4.636-.28 6.47-1.904.67 1.088 1.74 1.908 1.94 3.31z"/><path fill="#8E6A5A" d="M84.313 108.467c-1.48.66-2.613 1.8-3.79 3.033.74-2.2 2.462-4.074 1.803-6.64 1.475-.362 2.166.112 1.86 1.847-.1.56.077 1.172.127 1.76z"/><path fill="#BB967D" d="M100.574 117.563c-1.03.186-1.89-1.297-3.06-.3-.27.23-.444 0-.004-1.356.295.002.566-.045.73-.354 1.108-.15 2.215-.336 3.328-.445.853-.082 1.67.008 1.783 1.21-.375.142-.452.456-.422.83-.245.005-.49.01-.736.01-.396-.597-.8-.628-1.21-.013l-.013.01c-.238.012-.383.123-.372.396l-.024.013z"/><path fill="#8E6A5A" d="M64.906 79.566c2.313-.15 3.532-1.215 4.29-3.744.64.416 1.153.97 1.527 1.666-1.23 2.418-3.532 2.773-5.712 3.36l-.104-1.282z"/><path fill="#B79179" d="M102.19 117.158c.246-.004.492-.006.737-.012.31-.045.62-.094.928-.143l2.77 3.354-3.708-.707c-.247-1.377-2.003-.83-2.344-2.088l.022-.012c.243-.006.38-.123.37-.396l.015-.01c.406.004.808.008 1.21.014z"/><path fill="#916C5C" d="M57.932 74.117l.015 1.22c-2.69-.698-3.11-3.585-4.544-5.47-.547-.723.886-.418 1.032-1.023.805 2.03 1.5 4.142 3.497 5.273zM40.922 119.29c-1.56 1.59-2.876 3.52-5.134 4.14-.48.13-.92.55-1.426.13-.065-.054-.087-.31-.032-.37.398-.428.8-.902 1.45-.457.484-.666 1.632-.682 1.603-1.852l-.006.007c1.275-.27 1.98-1.77 3.375-1.783.058.06.114.123.17.187z"/><path fill="#BB967D" d="M92.03 65.99c-1.332 1.8-3.008 1.23-4.668.765.524-1.206 1.866-.415 2.566-1.192l1.02-.116c.362.18.722.36 1.083.544z"/><path fill="none" d="M94.092 73.45c.61 1.603-.984 1.243-1.472 1.87-.08-.12-.164-.244-.246-.37.388-.73.58-1.716 1.705-1.5h.012z"/><path fill="#8E6A5A" d="M85.963 110.396l-2.22.203c.36-.716 1.244-.585 1.347-1.312.415.26.713.624.873 1.108z"/><path fill="#BB967D" d="M37.384 120.88c.03 1.17-1.12 1.187-1.604 1.853-.52-.635-.056-.84.403-1.045.438-.208.582-.905 1.2-.807z"/><path fill="#8E6A5A" d="M86.698 111.31c-.396.042-.792.08-1.188.124 0-.004-.125-.158-.125-.158l.625-.83c.424.11.62.43.688.865zM103.855 117.004c-.31.05-.62.098-.928.143-.03-.375.047-.688.423-.83l.505.687z"/><path fill="#41592F" d="M53.692 73.334c-.39-.107-.423-.438-.43-.783.382.114.407.448.43.784z"/><path fill="none" d="M92.62 75.32c-.29.217-.566.164-.834-.055h.025c.188-.104.377-.207.564-.314.083.126.165.25.246.37z"/><path fill="none" d="M91.786 75.266c.064.13.13.252.195.38-.035 0-.1.007-.1 0-.024-.124-.038-.25-.063-.378-.005-.002-.03-.002-.03-.002z"/><path fill="#8E6A5A" d="M81.912 119.62c-.04-.097-.094-.19-.117-.29-.006-.03.08-.08.122-.12l-.005.41z"/><path fill="#9FAF5F" d="M16.05 62.648c-.468-.835-.75-1.778-1.616-2.35-.89-.593-.753-1.64-.74-2.592l-.005-.904c.263-1.2 1.028-1.86 2.122-1.976.86-.09 1.163-.365 1.167-1.366.007-2.082 1.122-3.175 3.335-3.563.38.448.757.445 1.135-.002 2.934-.01 3.063-.187 2.293-3.134 0-.552-.003-1.105-.004-1.656 1.152-1.932 2.553-2.486 4.738-1.875 2.167.605 2.948.055 3.07-2.25.083-1.616.824-2.36 2.338-2.233.126.2.25.195.37-.006.733-.52.787-1.312.813-2.15.095-3.01 1.524-4.457 4.424-4.51.574-.013 1.15.002 1.725.005l.674.538c.945.355 1.12 1.405 1.658 2.36.13-1.473.22-2.68-1.484-2.554l-.387-.37c-.088-.96-.138-1.885.556-2.69.414-.48.36-1.093.227-1.734-.516-2.482.083-3.393 2.465-3.874.492.007 1.03.19 1.347-.425-.4-2.03 1.202-2.537 2.297-3.428.01-.5.022-.997.033-1.494.313-1.12 1.01-1.69 2.116-1.673.595-.022 1.23.247 1.753-.28.763-.145.774-.695.77-1.383-.02-2.858 1.38-4.67 4.065-5.286 1.042-.24 1.94-.58 2.516-1.65.86-1.6 2.27-2.114 3.927-2.025.125.2.25.197.37-.002.317.027.668-.03.944.095 1.83.82 3.374 2.813 5.72 1.516.152-.085.574.076.686.254 1.188 1.88 2.66 1.63 4.45 1.043 1.573-.515 2.882.33 3.453 2.1.254.787.494 1.48 1.442.764.894-.677 1.22.288 1.705.72.532.472.814 1.003.374 1.78-.824 1.453-.036 2.3 1.1 2.966.394.232.89.366 1.165.705 1.03 1.267 1.782.77 2.677-.222.943-1.045 2.117-1.785 3.525-1.935.443-.046 1.063-.232 1.31 0 1.728 1.624 4.243 1.15 6 2.635.244.346.488.343.733 0 3.587-2.544 7.336-2.446 9.95.27.498.518 1.076 1.005.972 1.884l-.005 2.11c.792.873 1.634.722 2.58.257 4.228-2.074 6.355.718 7.392 4.036.284.912-.138 1.784-.628 2.488-.804 1.152-.315 1.703.685 2.13.275 1.67-.5 2.675-1.55 3.884-.843.97.576 2.87-.347 4.24-.326.488-.788.87-1.19 1.302-.337-.007-.673-.07-.712-.504-.243-2.645-3.03-4.1-2.875-6.946.007-.152-.266-.632-.73-.395.38 1.073.963 2.1.684 3.31-.153.654.094 1.082.675 1.255 1.124.332 1.48 1.256 1.533 2.332.04.848.385 1.415 1.02 1.848.37 2.156-1.2 3.19-2.294 4.498.357 1.89.335 3.714-.805 5.347l.006-.01c-.576.304-1.7.725-.92 1.408 1.63 1.427.845 2.873.52 4.39l.022-.02c-1.1.22-2.096.72-3.08 1.26-.668-.03-1.277.06-1.573.825-1.72.632-3.473 1.823-5.044-.345-.092-.13-.558-.15-.684-.027-1.643 1.59-4.395-1.3-5.703 1.604-.03.068-.248.078-.37.06-1.01-.17-1.87.27-2.766.674-1.342.603-2.646.696-3.602-.794-.285-.445-.616-.667-1.137-.47-1.685.64-3.23.52-4.413-1.15-.38.6.1.895.085 1.277-1.464.462-2.9.954-3.307-1.456-.073-.42-.692-.74-1.057-1.106-.298-1.063.54-2.404-.7-3.238l.016.027c.085-1.07-.712-1.6-1.383-1.582-1.082.028-1.474-.8-2.12-1.335l.012.02c.046-.335-.06-.512-.405-.435l.017.01c.038-.648-.995-.462-.832-1.21 1.362.198 2.478-.287 3.792-.787 2.845-1.083 2.95-3.068 2.804-5.518.665-.79 1.33-1.585 1.995-2.378l-.023.016c1.11.07 2.092.003 1.985-1.644-.053-.813.557-1.463 1.125-1.435 2.17.106 1.928-1.576 2.135-2.964 1.49-1.87 3.37-2.433 6.013-1.603-1.346-1.383-.368-2.31-.198-3.312.123-.145.25-.29.377-.437.893-.422 1.786-.842 2.678-1.265 2.702-2.71 5.593-3.548 8.83-1.022.567.82 1.357 1.585 1.41 2.622.083 1.705 1.037 1.793 2.228 1.66.33.628.73.67 1.222.18-.37-.435-.813-.27-1.222-.273-.85-.2-1.484-.57-1.652-1.637-.183-1.165-.774-2.14-1.693-2.85-3.148-2.756-6.488-2.36-9.314 1.103-1.043.074-2.045.253-2.726 1.235-.12.146-.242.29-.364.434-.612 1.688-1.568 2.753-3.447 2.882-1.05.07-1.908.96-2.387 2.067-.338 1.978-1.982 2.52-3.307 3.412-.177-.164-.355-.327-.534-.49-.252-1.28-.16-2.515.212-3.78.475-1.612-.11-2.966-1.38-4.55 0 1.74.095 3.035-.034 4.304-.093.897-.456 1.85-1.535.728-.502.025-.742.314-.744.84.52 1.888-.762 3.042-1.572 4.39-1.23.387-2.94.407-1.516 2.617.334.52-.354 1.088-.503 1.658-1.327.382-2.534.93-3.047 2.454-.12-.48-.31-1.047-.752-1.115-1.86-.29-2.428-1.856-3.088-3.356l-.187-.502c-.29.15-.123.417-.14.637.54.968.04 2.713 1.075 3 1.123.314 2.046.966 3.11 1.32.54 1.07-.243 2.314.387 3.374-1.128.203-1.758.7-.56 1.67.83.668.977 1.473.948 2.435l.014-.03c-.684.21-.972.814-.72 1.394.518 1.187.23 2.397.317 3.592l.02-.028c-.37-.104-.505.042-.41.434l.027-.02c-1.762-.222-2.835.414-2.74 2.5l.02-.022c-.352-.09-.438.18-.53.44-1.798 1.545-2.494 1.503-4.726-.386-.45-.377-.672-.03-.992.15-1.012.563-2.012 1.16-3.06 1.644-.997.46-2.058.647-3.14.254-2.502-.387-2.502-.387-3.086.798l.014-.01-1.575.115c-1.194-.76-2.277-1.282-3.197.516-.31.606-1.272.878-1.924.616-2.493-1-5.212.597-7.64-.835l.013.012c.185-.73-.236-.8-.744-.77-1.37-.127-2.26-1.454-3.61-1.63.003 0 .01-.02.01-.02.01-.713.018-1.424.026-2.135.882-.984.172-1.695-.367-2.437.058-.626.12-1.252.177-1.88.136-.145.273-.286.41-.43.887-.617 2.068-.25 2.915-.996.492-1.235.44-2.755 1.666-3.606 1.867-.466 2.98.068 2.53 3.063.692-2.112 1.925-3.326 1.144-5.082-.104-.23.427-.78.66-1.18.825-.38 1.468-.816.56-1.81-.292-.32-.29-.704-.124-1.097l.356-.387c.46-.294 1.344-.103 1.297-.966-.078-1.43.427-2.69 1.078-4.232-1.247.785-1.445 1.818-1.62 2.808-.147.83-.276 1.61-1.014 2.09-.132.133-.267.265-.4.397-1.012.83.644 2.063-.385 2.89-.834.442-1.158 1.2-1.078 2.138.113 1.3-.654.767-1.21.706-.23-.308-.467-.318-.715-.023-.423.14-.935.045-1.23.524-1.328.48-1.714 1.625-1.822 2.96-.59 1.243-2.182.468-2.834 1.586-.13.134-.264.268-.395.4-.823.758-.563 1.622-.218 2.496.203.665.348 1.31-.194 1.904-.42.463-.72 1.072-.435 1.67.46.96-.073 1.44-.562 2.108-1.112 1.52-.48 2.942 1.45 3.458l-.018-.012c.433.928 1.87.738 1.982 2.023-.646.818-1.806.19-2.46.99-1.315.367-2.388 1.668-3.932 1.162-.25-.005-.498-.007-.747-.01-.867.034-1.688-2.192-2.598-.062l.01-.008c-2.452 1.096-4.902 1.596-7.352.002l.01.012c.064-2.137-1.26-3.79-1.75-5.737-.782 0-1.564.004-2.347.006l-1.737-.068.02.017c-.212-1.036-.648-2.04-.242-3.146.168-.47-.184-.562-.543-.548zm43.463-22.366c-.154-.116-.308-.232-.46-.35-.91-.787-2.175.078-3.072-.753-.024-.53-.05-1.062-.076-1.592-1.042-.387-1.857-1.184-2.994-1.526-.922-.28-2.724-1.155-2.516-2.167.36-1.767-.288-2.337-1.473-2.966-.357-.19-.316-.715-.333-1.13-.012-.305.092-.803-.394-.672-.19.052-.274.557-.407.856-.64-.562-.082-1.458-.504-2.092-.885 2.158-.655 3.092 1.005 4.135l-.035-.02c.104.56.56.91.48 1.648-.19 1.753.75 2.567 2.387 2.484.08.093.162.187.245.28.05.327.23.517.536.568l.09-.077.095.072c.592.763 1.38.365 2.098.406l1.025.438v1.172c-1.23-.033-2.495-.455-3.672.437 2.508-.73 4.665 1.755 7.185.777l.61.313c.595 2.125 2.175.66 3.253 1.014.927.46 1.104 1.62 1.945 2.398-1.082-2.407.783-2.16 1.818-2.612 1.193-.52 2.4.216 4.073.13-2.11-1.056-3.806-.932-5.46-.282-.834.326-1.583.445-2.386.04-.97-.5-2.252.165-3.06-.932zm-15.08-4.832c.247-.037.492-.057.42-.32-.024-.102-.3-.17-.465-.18-.148-.01-.444-.06-.354.252.036.127.288.183.4.248z"/><path fill="#9CAC5F" d="M112.433 67.627c1.112.156 2.216.254 3.225-.44.935.845 1.822.167 2.307-.448 1.254-1.584 3.378-2.3 3.972-4.518 1.025-1.016.97-1.955-.208-2.77-.345-.24-.573-.51-.594-.952.06-.13.067-.264.027-.4l-.008.007c.726-.732.996-1.546.387-2.514-.025-.888.753-1.682.422-2.553-.517-1.357-.347-2.556.27-3.81.182-.37.014-.93.008-1.4l3.59-3.404c1.368.448 3.262.308 2.73 2.854-.046.225.255.67.497.8 1.01.53 2.136.754 1.624 2.57-.208.737.787.53 1.318.316 1.13-.46 2.218-.64 3.14.466-.047 1.33.98 2.81-.493 3.937l-.336.254.022-.037c-.41.127-.632.46-.8.848l.023-.018-.797.43.02-.016c-1.354.804-1.467 1.405-.396 2.104l-.012-.014c.456.78 1.646.734 1.81 1.84.538.46.76.944.054 1.447-.538.384-.694.92-.684 1.58.042 2.752-.59 3.638-3.07 4.43-.656.21-1.402.323-1.663 1.185-.24.088-.48.174-.72.26l.036-.03h-1.574l.03.02v-.827l-.023.027c.557-.602.46-1.355.428-2.095.592-.574.277-1.335.366-2.013.355-1.182-.145-2.03-.952-2.756-1.58-.636-.536-2.518-1.522-3.455.176 1.342-1.187 3.197 1.21 3.773.373.758.84 1.475.876 2.374l-.42 2.043-.085.417c-3.103 1.842-3.17 1.828-3.65-.867-.045 2.02-1.28 3.283-2.72 3.898-.99.425-2.342-.08-3.515.278-.297.09-6.927.074-7.177.014-2.407-.578-3.62-2.17-3.745-4.92.517.95 1.014.245 1.517-.02.14.686.908.702 1.175 1.248 1.49 1.748 2.957 2.054 4.076.857z"/><path fill="#718C41" d="M105.665 65.543c.125 2.75 1.338 4.34 3.748 4.92.248.06 6.88.075 7.175-.015 1.173-.36 2.524.146 3.514-.277 1.44-.614 2.676-1.876 2.722-3.895.48 2.693.548 2.708 3.65.865.032.572.065 1.143.1 1.713l.023-.03c-.492-.052-.958.237-.95.66.003.294.592.26.948.17l-.03-.02c.526.638 1.05.616 1.576 0l-.037.03c.24-.088.48-.172.72-.26.26-.86 1.007-.977 1.663-1.186 2.48-.793 3.115-1.68 3.07-4.432-.01-.66.146-1.195.683-1.577.705-.504.482-.988-.054-1.447-.01-1.274-.878-1.594-1.81-1.84l.01.015c-.015-.732.09-1.44.397-2.104l-.02.02c.34.012.714.098.796-.432l-.022.017c.58.054.81-.265.798-.846l-.022.036.336-.255c1.474-1.126.445-2.607.49-3.937 2.022 1.89 2.064 3.1.23 6.915 1.236.342 2.655.354 1.716 2.6-.23.552.906 2.13 1.538 3.082 1.904 2.864.75 6.006-2.666 6.39-2.46.272-4.403 1.802-6.644 2.577-.628.215-1.416.68-1.814.215-1.005-1.178-2.95.627-3.563-1.404-.975.664-2.36.41-3.152 1.133-1.955 1.792-4.035 1.345-6.187.9-.113.136-.225.27-.337.41 0 0-.028.065-.027.067-1.746-.125-3.412-1.053-5.226-.555-.21.06-.493-.12-.724-.227-.945-.44-3.762-5.365-3.79-6.457-.015-.72.875-.846.777-1.558.133.01.264.017.395.023z"/><path fill="#708C47" d="M125.833 44.426l-3.59 3.403c-.42-.39-.427-1.175-1.107-1.318l.02.02c-.888-1.068-.24-2.688-1.18-3.738l.016.02c.028-.143 0-.273-.08-.392-.582-1.136-1.65-1.13-2.65-1.283.4-.432.864-.816 1.19-1.303.923-1.37-.5-3.27.346-4.24 1.05-1.21 1.825-2.215 1.55-3.883.295.112.72.13.863.352 1.063 1.678 2.954 3.48 3 4.983.066 2.098.835 3.35 1.782 4.814.546.848-.063 1.708-.16 2.562z"/><path fill="#9EAF5F" d="M52.47 16.46c-.523.527-1.157.258-1.753.28.523-.544 1.154-.295 1.754-.28zM110.32 22.8c.003-.702.004-1.406.006-2.11.445.704.44 1.408-.005 2.11zM23.738 45.104c0 .55.003 1.104.003 1.657-.44-.55-.443-1.103-.002-1.656zM48.603 18.412l-.033 1.495c-.372-.508-.467-1.01.033-1.495zM46.273 23.334c-.317.616-.854.434-1.347.427l1.347-.426zM21.45 49.895c-.378.447-.756.45-1.136 0h1.135zM13.688 56.802c0 .3.003.602.004.903-.165-.02-.33-.034-.494-.054.164-.28.327-.566.49-.848z"/><path fill="#26291E" d="M41.68 32.06c.13.123.258.245.387.37-.058.063-.116.13-.174.192l-.675-.538c.154-.007.307-.018.462-.025z"/><path fill="#9EAF5F" d="M99.405 18.536c-.245.343-.49.346-.735-.002.247 0 .49 0 .735.002z"/><path fill="#41592F" d="M114.26 74.25c.113-.14.225-.273.338-.41-.112.137-.225.27-.337.41z"/><path fill="#9EAF5F" d="M64.12 6.116c-.123.2-.247.2-.37 0 .123-.052.247-.052.37 0zM34.254 38.74c-.12.2-.244.208-.37.007.122-.055.246-.056.37-.006z"/><path fill="none" d="M289.872 104.838c0-1.303.088-2.615-.024-3.906-.12-1.34.404-1.67 1.54-1.557.895.088 1.803.004 2.702.02 2.81.052 4.732 2.198 4.76 5.294.027 3.228-1.878 5.386-4.807 5.437-4.17.076-4.17.076-4.17-4.262v-1.027zM154.476 104.83c.054-3.082 2.462-5.498 5.427-5.438 2.945.055 5.216 2.572 5.16 5.715-.056 3.096-2.453 5.498-5.42 5.434-2.94-.06-5.222-2.587-5.167-5.71zM181.63 48.185c-.15 5.54-.087 11.073.024 16.607.015.733-.172 1.058-.944 1.168-3.658.512-3.898.26-2.95-3.438 1.03-4.02 2.05-8.045 3.098-12.062.204-.774.512-1.517.773-2.275zM205.296 70.783c-.112 2.092-.278 3.934-1.082 5.625-.99 2.088-2.745 3.055-4.757 2.666-2.034-.393-2.766-1.54-2.388-3.748.437-2.56.835-5.13 1.336-7.678.525-2.673 1.987-4.596 3.337-4.572 1.44.03 2.813 2.104 3.21 4.876.14 1.017.246 2.036.343 2.83zM222.067 66.812c-.295 3.493-.557 7-2.12 10.188-.673 1.375-1.513 2.777-3.206 2.47-1.626-.298-2.215-1.837-2.456-3.364-.68-4.29-.02-8.344 2.234-12.034.884-1.44 1.965-2.803 3.764-2.195 1.813.614 1.9 2.39 1.82 4.11-.01.275-.023.55-.035.825zM267.714 65.1c-.217 2.18-.507 4.226-1.922 5.818-.9 1.012-2.054 1.63-3.303.957-1.22-.654-1.602-1.914-1.283-3.34.438-1.93.673-3.95 1.68-5.663.64-1.09 1.375-2.296 2.883-1.956 1.432.32 1.585 1.63 1.777 2.864.073.472.122.95.167 1.32z"/><path fill="#131312" d="M89.93 65.563c-.7.777-2.043-.013-2.567 1.193-.683.06-1.035.482-1.145 1.173-1.054 1.536-2.11 3.07-3.16 4.606-.108.123-.215.248-.323.373-.46.343-.915.692-1.12 1.288l-.767.85c-2.327 1.502-4.113 3.912-6.896 4.64-.05-.046-.098-.09-.146-.14-.67-1.295-2.198-1.13-3.083-2.06-.375-.698-.887-1.25-1.53-1.667-.53-.817-1.06-1.634-1.592-2.45-.187-.457-.222-1.023-.756-1.238.372-1.043-.675-1.857-.412-2.883.394-.015.787-.028 1.182-.04.09.326.196.646.27.98.34 1.517.902 2.083 2.527 1.366 1.405-.62 3.175.268 4.61-.787 2.147 1.835 4.25 1.817 6.304-.177 1.42.855 1.773-.518 2.335-1.324.647-.935 1.197-1.944 1.79-2.922 0 0 .012-.012.012-.01.217-.07.334-.195.224-.447 1.366-.798 2.83-.183 4.243-.327zM81 72.428c.146-.227.687-.336.287-.727-.186-.18-.472.026-.595.306l-.37.436c-1.225.512-2.65.93-3.75.344-1.748-.936-3.527-.398-5.265-.7-.745-.124-1.687.077-2.034.75-.288.556.436 1.206.825 1.724.804 1.072 1.713 2.04 2.903 2.637 1.044.523 2.098.69 3.064-.168 1.57-1.4 3.295-2.616 4.648-4.286l.288-.316z"/><path fill="#41592F" d="M85.45 66.348c-.593.978-1.144 1.988-1.793 2.92-.56.808-.914 2.18-2.333 1.325-2.056 1.994-4.157 2.012-6.305.176-1.437 1.054-3.205.167-4.61.786-1.625.717-2.187.15-2.527-1.367-.073-.333-.18-.653-.27-.98l-.013.025c.533.004.795-.28.794-.848l-.022.02c1.813-.235 3.618 1.155 5.433.02 1.33 1.058 2.933 1.128 4.472 1.448.37.076.726.025.873-.22 1.42-2.42 4.655-.985 6.115-3.288.02-.034.12-.013.185-.02z"/><path fill="#1F211A" d="M85.1 60.566c.013-.385-.468-.678-.087-1.276 1.183 1.67 2.728 1.787 4.413 1.148.52-.196.852.025 1.138.47.956 1.49 2.26 1.397 3.602.794.896-.403 1.756-.844 2.766-.675.122.02.338.01.37-.06 1.306-2.904 4.06-.014 5.7-1.604.128-.123.594-.103.688.026 1.57 2.167 3.32.976 5.044.345-1.135 1.625-2.634 1.95-4.345 1.23-2.1-.88-4.094-.456-6.31.194-2.523.737-5.31 3.207-8.04.268-.333-.36-.682-.244-1.068-.137-1.39.386-2.68.107-3.873-.724z"/><path fill="#41592F" d="M61.03 70.873c-.14 1.908-.982 2.463-2.572 1.77-1.312-.57-1.882-1.69-2.296-3.038-.368-1.197-.037-1.607 1.103-1.648.726-.025 1.542.352 2.19-.332.153-.336.44-.395.75-.398-.21 1.34.53 2.437.826 3.646z"/><path fill="#916C5C" d="M61.03 70.873c-.296-1.21-1.035-2.307-.825-3.646.608-.795.947-.098 1.3.293.33.367.494.938 1.106.912.735.947 1.902-.086 2.678.666-.188.61-.73.71-1.19.928-1.898.906-2.054 1.867-.516 3.275.428.394.89.74 1.4 1.163-.698.193-1.355.377-2.01.56-.648-1.382-1.294-2.765-1.94-4.15z"/><path fill="#26291E" d="M117.262 41.14c1 .152 2.07.146 2.65 1.282l-.31.36c-.782-.806-1.748-.845-2.748-.744-.634-.433-.98-1.002-1.02-1.848-.05-1.077-.41-2-1.534-2.332-.58-.173-.826-.6-.676-1.255.28-1.21-.305-2.236-.683-3.31.466-.238.74.242.732.395-.155 2.846 2.632 4.302 2.876 6.946.04.436.377.498.714.505z"/><path fill="#1F211A" d="M42.417 65.5c2.43 1.432 5.15-.164 7.64.835.652.262 1.615-.01 1.924-.615.92-1.798 2.004-1.274 3.197-.516-.25.11-.504.218-.757.325-.742-.388-1.253-.12-1.84.478-.87.886-1.988 1.323-3.202.89-1.004-.357-1.957-.27-2.993-.153-1.413.16-3.002.437-3.968-1.245zM37.746 58.52c.54.74 1.25 1.45.37 2.436-.95.698-1.014 1.408-.026 2.134l-.01.022c-.052.257-.023.652-.167.75-1.99 1.32-1.73 2.706-.16 4.164-1.93-.518-2.564-1.94-1.452-3.458.49-.67 1.022-1.148.564-2.108-.288-.598.014-1.208.435-1.67.54-.595.394-1.24.193-1.904l.253-.367zM16.812 66.325l1.74.07c.782.442 1.564.473 2.346-.007.49 1.944 1.812 3.6 1.75 5.737-.836.016-.795-.725-.933-1.27-.515-2.058-1.176-3.896-3.705-3.714-.462.034-1.01-.195-1.198-.815z"/><path fill="#1A1918" d="M121.137 46.512c.68.144.686.93 1.106 1.317.008.47.174 1.03-.007 1.4-.618 1.254-.788 2.453-.27 3.81.33.87-.45 1.665-.423 2.555-.12.14-.24.276-.362.415-.236-.467-.618-.9-.19-1.48.19-.267.52-.732.44-.86-1.453-2.338.986-4.838-.293-7.158zM121.937 62.222c-.594 2.218-2.716 2.934-3.97 4.517-.487.614-1.374 1.29-2.308.446 1.944-1.325 4.265-2.19 5.152-4.815.17-.51.357-.502 1.125-.148z"/><path fill="#1F211A" d="M22.636 72.11c2.45 1.595 4.9 1.095 7.35 0-1.563 2.343-6.136 2.343-7.35 0z"/><path fill="#1F211A" d="M29.977 72.12c.912-2.134 1.732.095 2.6.06.248.252.495.365.748.01 1.542.506 2.617-.795 3.93-1.162-.876 1.658-3.505 2.566-5.288 1.686-.658-.327-1.295-.513-1.99-.595z"/><path fill="#1A1918" d="M113.365 57.672c.322-1.52 1.108-2.964-.52-4.39-.783-.685.342-1.105.918-1.41-.19.79-.01 1.437.388 2.172.744 1.372.684 2.716-.785 3.628z"/><path fill="#1A1918" d="M113.756 51.883c1.14-1.633 1.16-3.458.804-5.347 1.435 1.897 1.08 4.276-.804 5.347z"/><path fill="#1F211A" d="M75.34 50.26c-.164.746.87.56.832 1.208-.412.085-.744.15-.36.743.458.706.697 1.473-.067 2.168.03-.962-.12-1.767-.947-2.436-1.2-.968-.57-1.466.56-1.67l-.018-.013z"/><path fill="#26291E" d="M112.433 67.627c-1.12 1.197-2.587.89-4.076-.856 1.358.29 2.624 1.08 4.076.857z"/><path fill="#1F211A" d="M39.716 70.035c-.114-1.283-1.55-1.094-1.982-2.023 1.75-.615 2.262 1.088 3.23 1.96-.398.518-.837.034-1.248.063zM75.356 59.334c-.088-1.196.2-2.405-.317-3.592-.253-.58.036-1.185.718-1.393-.133 1.02.047 2 .222 3 .127.72.04 1.486-.624 1.984z"/><path fill="#26291E" d="M56.738 65.098c.584-1.185.584-1.185 3.087-.797-.837 1.106-2.043.596-3.087.798z"/><path fill="#1F211A" d="M76.55 51.874c.645.536 1.037 1.363 2.118 1.336.67-.02 1.468.512 1.383 1.58-.716-.502-1.313-1.263-2.294-1.2-1.214.078-1.272-.772-1.207-1.716zM72.253 62.22c-.094-2.086.977-2.722 2.74-2.5-1.064.646-2.077 1.356-2.74 2.5z"/><path fill="#131312" d="M73.803 68.428c-1.814 1.137-3.62-.254-5.433-.018.74-.834 1.774-.143 2.594-.563.057.063.117.125.178.184.797.82 1.8.075 2.66.398z"/><path fill="#1F211A" d="M16.05 62.648c.36-.014.712.08.54.548-.406 1.107.03 2.11.24 3.146-1.67-.893-.83-2.388-.78-3.694z"/><path fill="#1A1918" d="M119.977 42.793c.938 1.05.292 2.67 1.18 3.738-2.227-.586-.825-2.477-1.18-3.737z"/><path fill="#1F211A" d="M80.035 54.763c1.24.833.402 2.176.7 3.238-1.173-.85-.33-2.19-.7-3.237zM80.9 61.505c-.66 1.142-1.65 1.532-3.385 1.538 1.394-.728 2.326-1.212 3.255-1.695l.13.157z"/><path fill="#1A1918" d="M110.303 58.91c.984-.537 1.982-1.04 3.082-1.258-.7 1.33-1.858 1.382-3.082 1.26z"/><path fill="#131312" d="M65.288 69.098c-.775-.752-1.945.28-2.677-.666 1.32.084 2.78-.55 3.852.836l-1.174-.17z"/><path fill="#26291E" d="M121.18 56.01l.363-.417c.61.968.338 1.78-.385 2.514l.023-2.097zM54.42 65.53l.756-.326c.525-.04 1.05-.077 1.577-.116-.625 1.07-1.45.93-2.334.44zM120.822 58.575c-.205.355-.463.642-.885.644-.07 0-.212-.178-.198-.244.096-.486.505-.533.862-.646.072.085.146.165.22.245z"/><path fill="#1F211A" d="M80.768 61.348c.183-.318.29-.712.694-.81.022-.01.1.096.1.15.007.477-.304.672-.663.816-.043-.05-.086-.104-.132-.156zM41.686 64.74c.51-.027.93.042.744.772-.472-.012-.63-.37-.744-.77z"/><path fill="#131312" d="M68.393 68.39c0 .565-.26.85-.794.847.263-.282.528-.565.793-.846z"/><path fill="#26291E" d="M121.164 58.1c.04.137.032.272-.027.4-.106.014-.212.038-.315.074-.074-.08-.148-.16-.22-.245.142-.2.294-.376.562-.23z"/><path fill="#1F211A" d="M74.968 59.74c-.097-.392.04-.538.41-.434-.025.266-.16.41-.41.434zM71.743 62.64c.093-.263.178-.533.53-.442-.042.33-.246.438-.53.44z"/><path fill="#9CAC5F" d="M107.182 65.524l.08-.16-.08.16z"/><path fill="#41592F" d="M85.685 65.89c.11.253-.008.378-.225.447l.225-.446z"/><path fill="#131312" d="M70.965 67.848c.135-.168.28-.264.452-.053l-.274.236c-.06-.057-.12-.12-.178-.182z"/><path fill="#1A1918" d="M119.603 42.783l.31-.36c.08.118.108.25.08.393-.13-.013-.26-.02-.39-.033z"/><path fill="#1F211A" d="M76.156 51.458c.346-.08.45.098.405.434l-.404-.434z"/><path fill="#BB967D" d="M81.616 74.2c.204-.597.66-.946 1.12-1.29 1.232.752 2.626.414 3.93.72-1.073-.907-2.304-1.147-3.61-1.093l3.162-4.607c1.08.957 2.634.148 3.737 1.19.6.563 1.724.954 1.5 1.806-.155.602-1.242.994-2.12.8-.017-.046-.024-.1-.05-.142-.016-.023-.063-.023-.094-.037l.16.166c.1.496.802.723.547 1.402-.587.215-.76-.668-1.296-.56-.296.12-.31.25-.017.397.355.46.912.9.557 1.574-.36.693-.806.24-1.295.033-.662-.282-.436 1.136-1.212.868h-.004c-.127-.135-.255-.27-.384-.404l-.007-.01c-.067-.31-.277-.404-.545-.414l-.06.006c-.23-.357-.56-.465-.948-.416l.007.004c-1.028-.905-2.053-.163-3.078.005zm4.76-2.9c-.136.157-.33.286-.325.407.007.125.198.32.328.338.243.037.516-.06.434-.41-.03-.13-.257-.203-.437-.336z"/><path fill="#916C5C" d="M74.99 87.824c.19.008.434-.06.563.04 1.228.95 2.26.804 3.03-.722.516.857.116 1.426-.164 2.014-1.393.996-.458 2.52-.748 3.77-.24 1.03.33 2.423-1.177 2.86-.123-.072-.248-.146-.37-.22-.035-.87.516-1.536.726-2.32.616-2.282-.377-3.95-1.865-5.417l.006-.006z"/><path fill="#1A1918" d="M76.125 95.568l.37.217c-.298.38-.71.275-1.096.293-2.754-1.4-5.19-.807-7.382 1.33l-.12-1.33c.683-1.07.178-2.564 1.095-3.69.48 1.124-.243 2.083-.02 3.378 2.416-1.522 4.79-1.192 7.152-.198z"/><path fill="#26291E" d="M85.082 93.182c-2.54.074-2.762-.113-3.293-2.84-.183-.926-.355-1.852-.59-3.068 1.27.986 1.032 2.318 1.39 3.38.305.9.225 2.3 1.81 1.35.365-.218.452-.052.657 1.202l.025-.024z"/><path fill="#1F211A" d="M75.4 96.078c.384-.018.797.086 1.096-.293 1.506-.436.938-1.828 1.177-2.857.29-1.25-.645-2.775.747-3.77l-.65 8.11c-.065.81-.176 1.596-.832 2.145.04-.46-.015-.96.137-1.38.502-1.372-.11-1.702-1.24-1.622-.146-.11-.29-.22-.435-.332zM75.787 106.54c-.59-2.356-.423-4.614.775-6.74-.446 2.223-.08 4.552-.775 6.74z"/><path fill="#8E6A5A" d="M82.37 80.74h-6.23l-.004-.25h6.17c.02.082.044.166.065.25zM81.616 74.2c1.025-.17 2.05-.91 3.076-.003-1.376-.2-2.56.584-3.843.852.254-.284.51-.568.766-.85z"/><path fill="#141312" d="M83.84 83.51v3.754c-.068 0-.137 0-.206.002v-3.754c.07 0 .137 0 .206-.002z"/><path fill="#916C5C" d="M74.986 87.83h-1.77c.797-.58 1.3-.514 1.776-.006l-.006.006z"/><path fill="#8E6A5A" d="M84.752 111.86c-.12.206-.242.41-.365.614l-.223-.19c.162-.18.325-.366.486-.548l.102.125zM85.968 115.63c.134.194.227.272.24.362.018.117-.02.252-.063.363-.01.02-.248-.027-.248-.043.003-.18.03-.355.07-.68z"/><path fill="#916C5C" d="M78.583 115.145c.038.05.076.094.115.143-.097.05-.19.11-.294.137-.024.008-.076-.084-.113-.13.098-.05.196-.102.293-.15z"/><path fill="#141312" d="M84.306 88.648c-.27-.107-.39-.316-.32-.61.01-.04.246-.08.28-.038.157.21.254.45 0 .676-.003 0 .04-.028.04-.028z"/><path fill="#8E6A5A" d="M84.684 74.19c.388-.048.716.06.95.42-.38.023-.765.06-.95-.42z"/><path fill="#141312" d="M83.17 96.94c-.162-.39-.126-.73.226-.985.05.055.103.107.156.16.016.355-.002.688-.404.8l.02.026z"/><path fill="#8E6A5A" d="M84.65 111.738c.246-.156.49-.305.734-.46 0-.003.125.155.125.155-.254.14-.507.283-.76.428.002 0-.1-.124-.1-.122z"/><path fill="#141312" d="M85.896 89.945c-.062.2-.186.408-.37.225-.177-.176.025-.328.184-.434.06.07.124.14.186.21z"/><path fill="#8E6A5A" d="M82.938 110.838l-.047-.127.118.017"/><path fill="#141312" d="M83.148 96.916l-.113.072.134-.047"/><path fill="#916C5C" d="M79.134 114.49l-.108.04.016-.114"/><path fill="#8E6A5A" d="M86.422 114.977l-.04-.137.108.012M85.692 74.604c.268.008.478.104.544.412-.18-.137-.362-.276-.544-.412z"/><path fill="#916C5C" d="M86.243 75.025c.13.135.257.27.384.404l-.384-.405z"/><path fill="#1F211A" d="M76.546 99.828c.004-.283.073-.496.404-.432-.014.274-.016.557-.404.432z"/><path fill="#131312" d="M73.95 79.69c-.13.067-.26.138-.392.206-.094-.26.083-.3.247-.348.048.05.096.095.146.14z"/><path fill="#8E6A5A" d="M86.896 114.074l-.11.04.015-.114"/><path fill="#BB967D" d="M75.4 96.078c.145.11.29.22.435.332.117 1.95-.547 2.486-2.393 1.885-1.214-.396-2.626-.375-4.438.54 1.99.28 3.56-.224 4.855.765.39.297 1.128.396.93 1.086-.2.69-.894.232-1.35.357-.127-.14-.25-.283-.375-.426-.17-.352-.47-.402-.796-.39l-.14-.105.152.088c.15.348.44.424.757.434.134.133.266.268.4.398 1.746 2.42 1.586 6.615-.196 9.01-.428.574-.483 1.53-.554 2.326-.1 1.11-.562 1.963-1.334 2.63-1.025.884-.976-.022-1.013-.74-.038-.265-.075-.53-.11-.796 1.024-.78.095-2.072 1.027-3.088-1.09.156-1.954.05-1.38 1.387.18.43.127.948-.33 1.267l-1.466-.51-.375-.424c-.132-.137-.26-.275-.392-.412-.834-.907-1.726-1.677-3.266-1.476 1.123.69 2.045 1.258 2.97 1.822.128.14.258.277.39.416l.31.37c.26.706 1.022.6 1.457 1.02-.045.202-.053.556-.14.58-2.154.57-3.248 3.052-5.506 3.444-.922.162-1.917.32-2.584-.387-1.025-1.09-2.142-1.665-3.58-1.593-.34.018-.69-.162-.74-.525-.053-.387.31-.514.6-.678 1.465-.822 2.85.082 4.525.303-1.072-1.21-2.282-1.326-3.435-1.588 2.026-1.542 3.613-3.58 5.396-5.396l.045-.77-.02.028c.34-.35.638-.71.408-1.268l-.012.023c1.846.283.533-1.115.79-1.68l-.022.03c.354-.17.41-.497.41-.856l-.022.032c.37-.16.424-.49.407-.855l-.018.027.48-.424c.49-1.684 2.098-2.885 1.858-4.883 2.19-2.136 4.626-2.727 7.38-1.33zm-6.584 13.563l.13-.106-.113-.13c-.055.06-.11.116-.167.175.05.018.1.04.15.06zM40.752 119.104c-1.396.014-2.1 1.512-3.375 1.783.167-2.268 2.113-4.19 5.035-4.557.927.447.742-.303.775-.816l.384-.434c1.45.03 2.842.67 4.312.44.073.005.146 0 .218-.017.17.176.34.352.508.53-.006.077-.012.16-.02.243-1.412.336-2.716 1.736-4.293.506-.915 1.23-2.93.562-3.543 2.322zM57.424 117.053c.668.242 1.376.402 1.99.748.49.282 1.087.802.673 1.478-.387.63-1.015.377-1.53-.006-1.824-1.344-3.724-2.44-6.063-2.117l-.004-.008c.002-.115.01-.232.02-.35 1.658-.318 3.27.29 4.914.256z"/><path fill="#141312" d="M57.424 117.053c-1.642.035-3.256-.574-4.912-.254-.138-.022-.272-.044-.41-.062l.006.004c.65-.555 1.41-.813 2.223-.922l.11.1c.353.756.99.29 1.495.396.553.114 1.325-.273 1.49.737z"/><path fill="#1A1918" d="M68.083 112.527l1.467.508c.227.146.454.29.68.438.038.266.075.53.11.797-.388-.143-.777-.283-1.166-.426-.432-.422-1.196-.314-1.45-1.02.12-.1.238-.2.36-.297z"/><path fill="#141312" d="M51.156 117.146c-.355.535-.878.47-1.39.44.307-.703.917-.33 1.39-.44z"/><path fill="#141312" d="M52.114 117.156c-.332.002-.662.008-.994.01.243-.373.568-.52.99-.426l-.006-.006c.003.143.005.284.01.422zM54.33 115.818c.08-.08.152-.17.24-.236.014-.012.09.068.137.105-.088.08-.177.154-.267.232l-.11-.102zM49.8 117.56c.057.35-.17.4-.408.442-.07-.36.175-.395.41-.443z"/><path fill="#8E6A5A" d="M47.883 115.52c-1.47.23-2.863-.41-4.31-.44 1.136-1.394 3.47-1.158 4.31.44z"/><path fill="#1F211A" d="M64.923 104.34c-.256.563 1.057 1.963-.79 1.68-.083-.747-.037-1.422.79-1.68z"/><path fill="#B79179" d="M43.19 115.514c-.036.514.15 1.264-.778.816.145-.394.392-.682.777-.816z"/><path fill="#1F211A" d="M64.146 105.996c.23.555-.067.918-.407 1.264-.088-.502-.265-1.037.406-1.264z"/><path fill="#1F211A" d="M63.76 107.234l-.046.77c-.24.022-.6.105-.58-.235.015-.215.158-.704.625-.536zM65.312 103.514c0 .357-.055.688-.41.855-.076-.4-.228-.843.41-.856zM66.16 102.29c-.16.144-.318.284-.48.427-.168-.262-.105-.508.097-.682.038-.03.25.166.383.256z"/><path fill="#1F211A" d="M65.698 102.686c.017.37-.036.7-.407.857-.133-.432-.186-.818.408-.857z"/><path fill="#8E6A5A" d="M48.61 116.033l-.508-.53c.293.04.475.202.508.53z"/><path fill="#B79179" d="M92.437 117.557c-.04.258-.034.56-.353.613-.062.01-.22-.158-.21-.223.05-.344.337-.328.575-.377l-.013-.013z"/><path fill="#916C5C" d="M52.104 121.693c-.297-.033-.617-.043-.594-.5 0-.047.076-.127.12-.133.444-.035.414.338.476.633h-.002zM52.114 117.156l-.01-.422c.136.02.27.043.41.063-.012.117-.02.234-.022.352l-.19.02-.188-.014z"/><path fill="#B79179" d="M88.582 72.953c-.293-.146-.28-.277.017-.396-.016.134-.02.263-.018.396z"/><path fill="#916C5C" d="M63.717 76.57c-.074-.082-.132-.176-.173-.28l-.047-.483c1 .166 1.944.668 3.384.393-.973.826-1.638 1.283-2.506 1.3l-.657-.93z"/><path fill="#B79179" d="M66.842 72.133c.536.215.57.78.76 1.238-.66.08-1.513.733-1.744-.546-.164-.908.56-.61.984-.69z"/><path fill="#141312" d="M63.717 76.57c.22.31.44.62.657.93l.157 2.084c-.656-.887-.934-1.887-.813-3.014z"/><path fill="#131312" d="M63.497 75.807c.015.162.03.32.047.482-.305.005-.527-.11-.594-.456l.547-.027z"/><path fill="#8E6A5A" d="M102.19 117.158c-.403-.006-.805-.01-1.208-.014.41-.615.813-.583 1.21.014zM100.968 117.154c.008.273-.128.39-.37.396-.013-.277.132-.384.37-.396z"/><path fill="#708C47" d="M80.017 40.187c.81-1.35 2.093-2.5 1.57-4.39.49-.04.756-.297.745-.84 1.08 1.123 1.442.168 1.535-.73.13-1.268.032-2.562.032-4.303 1.27 1.584 1.855 2.937 1.38 4.55-.37 1.266-.464 2.5-.212 3.78-.576.627-.162.757.367.826.258 1.365-.795 1.827-1.526 2.51l.022-.017c-1.262.228-1.777 1.162-1.995 2.378.145 2.45.04 4.435-2.804 5.52-1.314.5-2.43.985-3.792.788l.018.014c-.63-1.06.15-2.304-.39-3.375l-.016.018c.513-1.524 1.72-2.07 3.046-2.452.878.043 1.346-.966 1.16-1.294-.84-1.46.47-2.04.86-2.983z"/><path fill="#26291E" d="M55.207 37.827l-1.027-.438c-.594-.742-1.403-.238-2.096-.408l-.094-.07-.09.076c-.18-.188-.358-.378-.536-.566-.083-.095-.163-.188-.247-.282-.575-1.087-2.122-1.58-1.572-3.388.198-.65-.712-.75-1.294-.744 0 0 .036.02.034.02l-.5-2.043c.133-.3.217-.806.407-.856.487-.132.383.366.395.67.017.418-.024.94.334 1.13 1.184.628 1.83 1.2 1.472 2.965-.208 1.013 1.594 1.89 2.516 2.168 1.137.343 1.952 1.142 2.994 1.527-.23.08-.462.16-.695.237z"/><path fill="#1F211A" d="M88.907 35.333c.48-1.11 1.337-1.996 2.387-2.067 1.88-.13 2.835-1.196 3.447-2.882.07.09.147.175.23.25-.17 1-1.15 1.93.196 3.313-2.644-.83-4.523-.27-6.014 1.6l-.245-.214zM58.72 40.212c-2.52.978-4.677-1.507-7.183-.78 1.175-.89 2.438-.467 3.67-.434l.773.18c.897.832 2.164-.033 3.07.753-.11.095-.22.19-.33.282zM97.83 28.716c2.827-3.464 6.168-3.86 9.315-1.103l-.295.3c-3.234-2.526-6.125-1.69-8.827 1.02l-.192-.217z"/><path fill="#26291E" d="M47.25 48.408c-.235.4-.764.947-.662 1.18.783 1.755-.45 2.97-1.143 5.084.45-2.996-.664-3.53-2.53-3.064-.053-.054-.103-.106-.153-.162.295-.48.806-.387 1.23-.524l.715.022c.555.063 1.324.593 1.21-.706-.08-.938.244-1.695 1.076-2.138.085.104.17.206.257.308z"/><path fill="#1F211A" d="M83.907 41.59c.732-.682 1.785-1.144 1.527-2.51.08-.1.135-.21.167-.335 1.325-.893 2.97-1.435 3.307-3.412l.245.216c-.207 1.388.035 3.07-2.134 2.964-.567-.028-1.177.622-1.125 1.434.107 1.644-.873 1.714-1.986 1.643zM62.573 41.213c.803.404 1.552.285 2.385-.04 1.655-.65 3.35-.773 5.46.283-1.674.084-2.88-.648-4.073-.13-1.038.45-2.9.204-1.818 2.61-.84-.776-1.018-1.938-1.945-2.4l-.01-.323z"/><path fill="#26291E" d="M74.968 46.898c-1.06-.353-1.986-1.006-3.11-1.317-1.035-.287-.535-2.032-1.075-3 .113-.034.223-.08.328-.136.66 1.502 1.23 3.067 3.09 3.357.442.07.634.637.752 1.115l.016-.017zM106.85 27.913c.098-.1.2-.2.295-.3.92.712 1.51 1.686 1.694 2.85.166 1.067.798 1.437 1.652 1.637v.093c-1.193.133-2.147.044-2.23-1.66-.054-1.038-.845-1.804-1.412-2.62zM47.78 44.813c.738-.48.868-1.262 1.013-2.09.175-.99.374-2.023 1.62-2.81-.65 1.544-1.155 2.804-1.077 4.233.048.863-.835.672-1.295.966-.077-.11-.164-.21-.26-.3zM80.017 40.187c-.388.94-1.698 1.523-.86 2.984.187.33-.28 1.336-1.16 1.293.15-.57.838-1.137.504-1.66-1.423-2.208.287-2.228 1.517-2.616z"/><path fill="#9EAF5F" d="M48.25 32.007c.583-.006 1.492.093 1.295.744-.55 1.81.995 2.304 1.572 3.39-1.634.082-2.575-.732-2.386-2.485.08-.738-.376-1.09-.48-1.648z"/><path fill="#9EAF5F" d="M47.785 29.984l.5 2.043c-1.66-1.043-1.89-1.978-1.003-4.135.42.634-.138 1.53.503 2.092z"/><path fill="#1A1918" d="M62.573 41.213l.01.326c-1.08-.356-2.658 1.11-3.25-1.016.058-.084.118-.164.18-.243.81 1.1 2.092.434 3.06.933z"/><path fill="#26291E" d="M42.915 51.607c-1.224.852-1.172 2.37-1.665 3.606-.103-.27-.208-.54-.31-.812.107-1.333.493-2.477 1.822-2.958.05.058.1.11.153.165zM46.994 48.1c1.03-.828-.627-2.062.387-2.89.1.098.204.195.304.292-.168.39-.168.775.122 1.094.91.995.267 1.43-.558 1.812-.084-.102-.17-.204-.254-.31z"/><path fill="#1A1918" d="M40.94 54.402c.102.27.207.54.31.812-.847.746-2.03.38-2.916.994-.076-.074-.152-.147-.23-.217.656-1.12 2.245-.344 2.835-1.588z"/><path fill="#26291E" d="M42.066 32.428c1.703-.125 1.615 1.08 1.484 2.555-.54-.956-.713-2.006-1.658-2.36.06-.065.116-.13.174-.195z"/><path fill="#1F211A" d="M81.936 43.953c.22-1.216.734-2.15 1.996-2.378l-1.996 2.378zM98.023 28.934c-.892.422-1.785.842-2.678 1.262-.08-.083-.158-.166-.24-.244.68-.982 1.683-1.16 2.726-1.235.066.07.13.144.193.217z"/><path fill="#1A1918" d="M37.746 58.52c-.085.12-.17.243-.253.365-.346-.874-.606-1.738.217-2.496.07.083.143.166.218.25-.062.627-.12 1.253-.182 1.88z"/><path fill="#708C47" d="M38.09 63.09c-.988-.727-.924-1.437.025-2.135-.01.712-.017 1.424-.025 2.134z"/><path fill="#9EAF5F" d="M55.98 39.18c-.257-.063-.516-.12-.773-.182v-1.172c.233-.078.464-.157.696-.237l.077 1.59zM52.084 36.983c.692.17 1.5-.335 2.096.406-.715-.042-1.503.354-2.096-.407zM110.49 32.192s.002-.094 0-.093c.41.003.853-.163 1.223.273-.493.49-.892.446-1.224-.18zM20.897 66.388c-.78.48-1.562.45-2.347.006l2.347-.006z"/><path fill="#26291E" d="M44.433 35.45c-.11-.064-.362-.12-.4-.248-.088-.313.206-.26.354-.252.165.01.44.078.466.18.072.263-.174.283-.42.32z"/><path fill="#9EAF5F" d="M82.332 34.958c.01.543-.256.8-.744.84.002-.527.242-.814.744-.84zM85.6 38.744c-.03.127-.086.238-.166.338-.528-.07-.944-.2-.367-.826.18.162.355.326.534.488zM71.11 42.444c-.104.057-.214.102-.327.136.02-.22-.148-.486.14-.636.064.168.127.334.188.5z"/><path fill="#1A1918" d="M58.72 40.212c.11-.094.22-.188.332-.28.154.117.308.233.46.35-.062.08-.12.16-.18.243-.205-.103-.408-.21-.612-.313z"/><path fill="#9EAF5F" d="M44.708 50.943l-.714-.023c.246-.295.484-.285.714.023z"/><path fill="#1A1918" d="M37.71 56.39l.396-.4c.077.07.153.144.23.218-.136.146-.273.287-.41.43-.073-.082-.145-.165-.216-.25z"/><path fill="#1F211A" d="M94.74 30.384c.123-.145.245-.288.365-.433.083.08.16.162.24.245l-.377.44c-.08-.076-.157-.16-.227-.25z"/><path fill="#9EAF5F" d="M51.364 36.42c.178.19.356.38.535.567-.306-.052-.486-.24-.536-.566z"/><path fill="#26291E" d="M48.04 45.113l-.356.388c-.1-.096-.202-.19-.302-.29.132-.133.267-.265.4-.396.094.09.18.188.26.3z"/><path fill="#9EAF5F" d="M33.324 72.19c-.25.354-.5.24-.747-.01l.747.01z"/><path fill="#26291E" d="M126.103 62.307c-2.397-.576-1.035-2.433-1.21-3.774.986.938-.06 2.82 1.522 3.455-.106.107-.21.213-.312.32z"/><path fill="#26291E" d="M126.98 64.68c-.037-.898-.504-1.616-.877-2.373.103-.106.204-.212.312-.32.807.728 1.307 1.575.952 2.757l-.388-.064zM132.784 56.832c-.31.663-.412 1.37-.396 2.104-1.07-.7-.958-1.302.396-2.104z"/><path fill="#26291E" d="M132.375 58.922c.933.245 1.8.564 1.81 1.84-.162-1.107-1.354-1.062-1.81-1.84z"/><path fill="#718C41" d="M126.98 64.68l.386.063c-.09.68.226 1.44-.365 2.013-.147-.01-.294-.02-.443-.032.14-.682.28-1.363.422-2.044z"/><path fill="#141312" d="M126.557 66.724l.444.032c.033.74.13 1.494-.427 2.095l-.1-1.71.084-.416z"/><path fill="#141312" d="M126.595 69.652c-.356.086-.945.12-.95-.17-.006-.422.46-.71.952-.658l-.002.828z"/><path fill="#141312" d="M128.14 69.633c-.523.615-1.048.64-1.573 0h1.573z"/><path fill="#26291E" d="M134.34 55.59c.01.578-.223.898-.8.845.166-.388.386-.72.8-.846z"/><path fill="#26291E" d="M133.56 56.418c-.08.53-.457.443-.796.43l.796-.43z"/><path fill="#141312" d="M128.824 69.404c-.24.088-.48.172-.72.26.24-.088.48-.172.72-.26z"/><path fill="#26291E" d="M134.65 55.372c-.112.084-.223.17-.336.253.114-.084.224-.17.336-.253z"/><path fill="none" d="M80.712 72.742c-1.353 1.67-3.078 2.885-4.646 4.285-.967.86-2.022.69-3.064.168-1.19-.598-2.1-1.564-2.904-2.637-.388-.518-1.112-1.168-.825-1.725.348-.672 1.29-.875 2.034-.748 1.74.3 3.517-.236 5.265.695 1.1.588 2.525.172 3.75-.342.13.105.26.205.39.304z"/><path fill="#916C5C" d="M83.056 72.537c1.304-.055 2.537.186 3.61 1.092-1.303-.31-2.698.03-3.93-.72.106-.125.212-.25.32-.373z"/><path fill="none" d="M80.69 72.006c.124-.28.41-.484.596-.305.4.392-.14.5-.287.728l-.31-.422z"/><path fill="none" d="M80.32 72.44c.124-.144.247-.288.37-.435.105.143.207.28.31.422l-.288.314c-.13-.097-.26-.197-.392-.3z"/><path fill="#B79179" d="M86.375 71.3c.18.132.407.206.438.335.082.35-.19.447-.434.41-.13-.018-.322-.213-.328-.338-.007-.117.188-.25.323-.408z"/><path fill="#916C5C" d="M89.348 71.713c-.053-.055-.104-.11-.16-.166.033.014.08.014.096.037.025.04.033.094.05.143l.014-.014zM70.23 113.473c-.228-.146-.454-.29-.68-.438.456-.316.51-.836.327-1.264-.574-1.335.29-1.23 1.38-1.388-.933 1.014-.002 2.31-1.028 3.09z"/><path fill="#1A1918" d="M67.02 112.04c-.924-.57-1.847-1.138-2.97-1.825 1.54-.2 2.432.568 3.266 1.477-.098.115-.198.23-.296.347z"/><path fill="#916C5C" d="M68.816 109.64l-.15-.062c.056-.06.112-.115.168-.174.038.045.075.084.113.13-.044.034-.088.07-.13.107zM72.268 100.227c.326-.012.626.04.796.39l-.026.026c-.32-.008-.607-.084-.757-.432l-.012.017z"/><path fill="#1A1918" d="M67.41 112.453c-.132-.14-.262-.277-.39-.416l.296-.346c.13.136.26.272.39.413-.1.116-.198.235-.297.35z"/><path fill="#1A1918" d="M67.707 112.104c.125.14.25.28.375.424l-.36.295-.314-.37c.1-.115.2-.234.3-.35z"/><path fill="#916C5C" d="M72.28 100.21c-.05-.028-.1-.056-.15-.087l.138.104.013-.016zM73.064 100.617c.125.143.248.285.373.426l-.4-.4.027-.026z"/></svg>